<svg width="141" height="56" viewBox="0 0 141 56" fill="none" xmlns="http://www.w3.org/2000/svg">
<g clip-path="url(#clip0_2_1334)">
<path d="M11.71 17.6897H15.51V17.8297C14.75 17.8297 14.78 18.0297 14.78 18.9797V27.2097C14.78 28.2697 14.9 28.5197 15.67 28.5197V28.6597H10.92V28.5197C11.65 28.5197 11.71 28.2697 11.71 27.2097V18.1097L7.67 28.8097H7.53L2.48 19.4297V24.5397C2.48 26.5497 3.06 28.5297 4.87 28.5297V28.6697H0V28.5297C1.67 28.5297 2.34 26.5797 2.34 24.5397V19.1897C1.73 18.1097 1.23 17.8597 0.8 17.8297V17.6897H5.24L9.01 24.8597L11.71 17.6897Z" fill="white"/>
<path d="M25.9501 17.6897V17.8097C25.3001 17.8097 24.9401 17.8297 24.9401 19.1997V26.8997C24.9401 28.3797 25.3001 28.5197 25.9501 28.5197V28.6597H20.8101V28.5197C21.4601 28.5197 21.8201 28.3797 21.8201 26.8997V19.1997C21.8201 17.8297 21.4801 17.8097 20.8101 17.8097V17.6897H25.9501Z" fill="white"/>
<path d="M41.24 24.9298L41.4 28.0798C40.98 28.3598 39.4 28.8098 37.75 28.8098C34.41 28.8098 31.45 26.7098 31.45 23.1798C31.45 19.6598 34.41 17.5498 37.75 17.5498C39.76 17.5498 41.02 17.9698 41.4 18.2698L41.24 21.4198H41.1199C40.6499 18.1898 38.89 17.6898 37.75 17.6898C36.02 17.6898 35.29 18.9098 35.29 23.1798C35.29 27.4698 36.07 28.6698 37.75 28.6698C38.81 28.6698 40.5899 28.0298 41.1199 24.9298H41.24Z" fill="white"/>
<path d="M58.39 28.5297V28.6697H55.29C54.18 28.6697 53.84 27.9697 53.47 25.0697C53.27 23.5097 51.4 23.5997 51.4 23.5997H50.67V26.8997C50.67 28.4297 50.73 28.5197 51.39 28.5197V28.6597H46.73V28.5197C47.4 28.5197 47.54 28.4897 47.54 26.8997V19.1997C47.54 18.2297 47.42 17.8097 46.73 17.8097V17.6897H51.16C54.26 17.6897 57.05 18.0597 57.05 20.6697C57.05 23.0097 54.9 23.4897 53.4 23.4897C55.19 23.4897 56.1 23.8797 56.86 26.6897C57.16 27.8697 57.98 28.4997 58.39 28.5297ZM53.37 20.6697C53.37 17.6897 52.96 17.8297 51.14 17.8297H50.66V23.4597H51.14C53.17 23.4597 53.37 23.4897 53.37 20.6697Z" fill="white"/>
<path d="M74.51 23.2598C74.51 26.3598 72.25 28.8098 68.82 28.8098C65.39 28.8098 63.13 26.3598 63.13 23.2598C63.13 20.1698 65.39 17.5498 68.82 17.5498C72.25 17.5498 74.51 20.1698 74.51 23.2598ZM70.72 23.2598C70.72 18.9898 70.66 17.6898 68.82 17.6898C66.96 17.6898 66.89 18.9798 66.89 23.2598C66.89 27.5498 66.97 28.6698 68.82 28.6698C70.65 28.6698 70.72 27.5498 70.72 23.2598Z" fill="white"/>
<path d="M96.17 17.6897V17.8097C95.55 17.8097 94.6 18.2897 93.46 21.0397L90.73 28.6597H90.17C88.72 25.2797 87.78 23.0897 87.16 21.6797L84.67 28.6597H84.11C80.18 19.4797 79.98 19.0697 79.98 19.0697C79.45 17.8197 79.23 17.8397 78.83 17.8097V17.6897H83.69V17.8097C82.69 17.8097 83.49 19.6197 83.49 19.6197L85.84 24.9697L87.09 21.4897C86.14 19.2797 86.05 19.0697 86.05 19.0697C85.52 17.8197 85.3 17.8397 84.9 17.8097V17.6897H89.76V17.8097C88.76 17.8097 89.56 19.6197 89.56 19.6197L91.9 24.9797L93.3 21.0397C93.69 19.9297 93.35 17.8097 91.76 17.8097V17.6897H96.17Z" fill="white"/>
<path d="M105.24 17.6897H105.32C109.26 26.7297 109.53 27.2497 109.53 27.2497C110.09 28.4997 110.62 28.5097 110.93 28.5397V28.6597H105.47V28.5397C106.72 28.5397 105.78 26.7197 105.78 26.7197L105.28 25.6397H102.22C101.91 26.3597 102.19 28.5397 104.06 28.5397V28.6597H99.5699V28.5397C100.04 28.5097 100.88 28.3797 102.08 25.6397L105.24 17.6897ZM103.67 21.9997L102.28 25.5097H105.23L103.67 21.9997Z" fill="white"/>
<path d="M126.24 17.6897V17.8097C125.57 17.8097 124.57 18.2897 123.36 21.0397L120.29 28.6597H119.84C115.66 19.4797 115.44 19.0697 115.44 19.0697C114.88 17.8197 114.65 17.8397 114.21 17.8097V17.6897H119.4V17.8097C118.32 17.8097 119.18 19.6197 119.18 19.6197L121.6 24.9997L123.21 21.0397C123.68 19.8897 123.4 17.8097 121.53 17.8097V17.6897H126.24Z" fill="white"/>
<path d="M140.45 25.6097V28.6697H131.35V28.5297C132 28.5297 132.25 27.5897 132.25 26.5297V19.8397C132.25 18.8697 132.03 17.8097 131.35 17.8097V17.6897H140.25V20.8897H140.11C140.11 17.8497 135.85 17.8297 135.85 17.8297H135.29V23.0497H136.55C136.57 23.0497 138.22 23.0997 138.39 21.2097H138.53V25.0297H138.39C138.22 23.1597 136.57 23.1897 136.55 23.1897H135.29V28.5197H135.85C135.85 28.5197 140.31 28.6897 140.31 25.5997H140.45V25.6097Z" fill="white"/>
<path d="M37.5399 34.6699H38.5899V38.9999H37.5399V37.2099H35.8699V38.9999H34.8199V34.6699H35.8699V36.3999H37.5399V34.6699Z" fill="white"/>
<path d="M45.89 38.9999L45.65 38.2699H44.1L43.86 38.9999H42.74L44.24 34.6599H45.52L47.02 38.9999H45.89ZM44.36 37.4699H45.38L44.87 35.9299L44.36 37.4699Z" fill="white"/>
<path d="M51.1599 38.9999V34.6699H52.2099V38.9999H51.1599Z" fill="white"/>
<path d="M57.8199 37.3199V38.9999H56.7699V34.6699H58.4799C58.9799 34.6699 59.3699 34.7999 59.6499 35.0599C59.9299 35.3199 60.0699 35.6299 60.0699 35.9999C60.0699 36.2499 59.9899 36.4999 59.8399 36.7299C59.6899 36.9699 59.4399 37.1399 59.0899 37.2399L60.1499 38.9999H58.9199L57.9499 37.3199H57.8199ZM57.8199 35.4699V36.5099H58.4699C58.6299 36.5099 58.7599 36.4599 58.8499 36.3699C58.9399 36.2699 58.9899 36.1499 58.9899 35.9999C58.9899 35.8499 58.9399 35.7199 58.8499 35.6199C58.7599 35.5199 58.6299 35.4699 58.4699 35.4699H57.8199Z" fill="white"/>
<path d="M71.4599 35.4398C71.3299 35.4398 71.2199 35.4798 71.1399 35.5398C71.0599 35.6098 71.0099 35.7098 71.0099 35.8398C71.0099 35.9698 71.0499 36.0798 71.1299 36.1598C71.2099 36.2398 71.3099 36.2998 71.4399 36.3398C71.5699 36.3798 71.7099 36.4198 71.8599 36.4598C72.0099 36.4998 72.1699 36.5498 72.3199 36.5998C72.4699 36.6598 72.6099 36.7198 72.7399 36.8098C72.8699 36.8898 72.9699 37.0098 73.0499 37.1598C73.1299 37.3098 73.1699 37.4898 73.1699 37.6998C73.1699 38.0698 73.0199 38.3798 72.7199 38.6398C72.4199 38.8998 72.0299 39.0298 71.5399 39.0298C71.0499 39.0298 70.6599 38.9098 70.3599 38.6798C70.0599 38.4498 69.9099 38.1098 69.9099 37.6798H71.0299C71.0599 38.0298 71.2399 38.1998 71.5599 38.1998C71.7099 38.1998 71.8299 38.1598 71.9199 38.0798C72.0099 37.9998 72.0499 37.8998 72.0499 37.7698C72.0499 37.6498 72.0099 37.5498 71.9299 37.4698C71.8499 37.3898 71.7499 37.3298 71.6199 37.2798C71.4899 37.2298 71.3499 37.1898 71.1999 37.1498C71.0499 37.1098 70.8899 37.0598 70.7399 37.0098C70.5899 36.9498 70.4499 36.8798 70.3199 36.7998C70.1899 36.7198 70.0899 36.5998 70.0099 36.4498C69.9299 36.2998 69.8899 36.1198 69.8899 35.9198C69.8899 35.5198 70.0399 35.1898 70.3399 34.9498C70.6399 34.7098 71.0199 34.5898 71.4899 34.5898C71.9599 34.5898 72.3299 34.6998 72.6199 34.9098C72.9099 35.1198 73.0599 35.4598 73.0699 35.9098H71.9199C71.8999 35.7498 71.8499 35.6298 71.7699 35.5498C71.6999 35.4898 71.5899 35.4398 71.4599 35.4398Z" fill="white"/>
<path d="M80.35 38.9999L80.11 38.2699H78.56L78.32 38.9999H77.2L78.7 34.6599H79.98L81.48 38.9999H80.35ZM78.82 37.4699H79.84L79.33 35.9299L78.82 37.4699Z" fill="white"/>
<path d="M85.63 34.6699H86.68V38.1999H87.99V38.9999H85.62V34.6699H85.63Z" fill="white"/>
<path d="M92.6 38.4199C92.17 37.9999 91.96 37.4699 91.96 36.8299C91.96 36.1899 92.17 35.6599 92.6 35.2399C93.03 34.8199 93.56 34.6099 94.18 34.6099C94.8 34.6099 95.33 34.8199 95.75 35.2399C96.18 35.6599 96.39 36.1899 96.39 36.8299C96.39 37.4699 96.18 37.9999 95.75 38.4199C95.32 38.8399 94.8 39.0499 94.18 39.0499C93.55 39.0399 93.03 38.8299 92.6 38.4199ZM95 37.7299C95.21 37.4999 95.31 37.1999 95.31 36.8199C95.31 36.4399 95.21 36.1399 95 35.9099C94.79 35.6799 94.51 35.5699 94.17 35.5699C93.82 35.5699 93.55 35.6799 93.34 35.9099C93.13 36.1399 93.03 36.4399 93.03 36.8199C93.03 37.1999 93.13 37.4999 93.34 37.7299C93.55 37.9599 93.82 38.0699 94.17 38.0699C94.52 38.0699 94.79 37.9599 95 37.7299Z" fill="white"/>
<path d="M103.51 34.6599H104.56V38.9999H103.51L101.75 36.2699V38.9999H100.7V34.6599H101.75L103.51 37.3899V34.6599Z" fill="white"/>
<path d="M59.58 0.619891C61.21 -0.130109 63.3099 -0.210109 65.1999 0.419891C66.1599 0.719891 67.04 1.23989 67.76 1.73989C68.5 2.24989 69.12 2.73989 69.72 3.12989C70.08 3.35989 70.4299 3.57989 70.7699 3.75989C71.1099 3.94989 71.4399 4.06989 71.7699 4.21989C72.4499 4.47989 73.1799 4.62989 73.9199 4.70989C75.4099 4.83989 76.96 4.56989 78.29 3.96989C78.36 4.10989 78.22 4.42989 78.48 4.38989C79.5 4.15989 79.65 4.35989 79.82 4.63989C79.86 4.70989 79.6799 4.81989 79.5299 4.90989C79.3699 4.99989 79.24 5.05989 79.4 5.06989C78.67 5.49989 77.2999 5.96989 78.1699 5.85989C78.3299 5.87989 78.6799 5.75989 79.0199 5.61989C79.3499 5.45989 79.6999 5.32989 79.8799 5.34989C80.2599 5.38989 79.84 5.90989 80.22 5.95989C80.49 5.78989 81.04 5.46989 81.29 5.25989C81.64 5.18989 81.2999 5.82989 81.57 5.62989C82.4799 5.16989 83.44 4.13989 84.16 2.97989C84.23 3.01989 84.33 2.99989 84.3899 3.02989C84.4499 3.05989 84.47 3.14989 84.29 3.46989C82.56 6.08989 79.71 7.75989 76.69 8.28989C75.17 8.55989 73.59 8.52989 72.04 8.14989C71.27 7.95989 70.51 7.69989 69.79 7.32989C69.04 6.97989 68.4099 6.52989 67.8399 6.10989C66.6999 5.25989 65.7699 4.46989 64.8899 4.04989C64.0499 3.62989 63.0599 3.45989 62.0999 3.52989C61.1399 3.61989 60.24 3.93989 59.47 4.50989C58.7 5.06989 58.0599 5.85989 57.6899 6.71989C57.3399 7.50989 57.2 6.81989 57.32 6.04989C57.29 6.29989 57.0699 6.19989 57.0499 6.46989C56.8499 6.39989 56.6199 5.72989 57.2099 4.75989C57.0499 4.97989 56.8999 5.21989 56.7599 5.45989C56.5599 5.66989 56.5599 5.34989 56.4199 5.26989C56.5599 5.00989 56.72 4.76989 56.66 4.72989C56.6 4.68989 56.47 4.59989 56.4 4.55989C56.22 4.80989 55.9199 5.34989 55.7999 5.63989C55.9299 5.35989 56.0799 5.08989 56.0099 5.04989C55.9399 5.00989 55.81 4.93989 55.74 4.89989C55.98 4.27989 56.6999 3.59989 57.1199 3.09989L56.9599 2.92989C56.4199 3.33989 55.85 4.18989 55.54 4.77989C55.64 4.44989 55.58 4.40989 55.45 4.32989C55.94 3.38989 56.7999 2.76989 57.4799 1.96989C57.1999 2.17989 56.9399 2.40989 56.6899 2.65989C56.7999 2.27989 57.27 1.83989 57.84 1.47989C58.41 1.09989 59.09 0.839891 59.58 0.619891Z" fill="#D8A788"/>
<path d="M59.58 48.0899C61.21 47.3399 63.31 47.2599 65.2 47.8899C66.16 48.1999 67.04 48.7099 67.76 49.2099C68.5 49.7199 69.12 50.2099 69.72 50.5999C70.08 50.8299 70.43 51.0499 70.77 51.2299C71.11 51.4199 71.44 51.5399 71.77 51.6899C72.45 51.9499 73.18 52.0999 73.92 52.1799C75.41 52.3099 76.96 52.0399 78.29 51.4399C78.36 51.5799 78.22 51.8999 78.48 51.8599C79.5 51.6299 79.65 51.8299 79.82 52.1099C79.86 52.1799 79.68 52.2899 79.53 52.3799C79.37 52.4599 79.24 52.5199 79.41 52.5299C78.68 52.9599 77.31 53.4299 78.18 53.3199C78.34 53.3399 78.69 53.2199 79.03 53.0799C79.36 52.9199 79.71 52.7899 79.89 52.8099C80.27 52.8499 79.85 53.3699 80.23 53.4199C80.5 53.2499 81.05 52.9299 81.3 52.7199C81.65 52.6499 81.31 53.2899 81.58 53.0899C82.49 52.6299 83.45 51.5999 84.17 50.4399C84.24 50.4799 84.34 50.4599 84.4 50.4899C84.46 50.5199 84.48 50.6099 84.3 50.9299C82.57 53.5499 79.72 55.2199 76.7 55.7499C75.18 56.0199 73.6 55.9899 72.05 55.6099C71.28 55.4199 70.52 55.1599 69.8 54.7899C69.05 54.4399 68.42 53.9899 67.85 53.5699C66.71 52.7199 65.78 51.9299 64.9 51.5099C64.06 51.0899 63.07 50.9199 62.11 50.9899C61.15 51.0799 60.25 51.3999 59.48 51.9699C58.71 52.5299 58.07 53.3199 57.7 54.1799C57.35 54.9699 57.21 54.2799 57.33 53.5099C57.3 53.7599 57.08 53.6599 57.06 53.9299C56.86 53.8599 56.63 53.1899 57.22 52.2199C57.06 52.4399 56.91 52.6799 56.77 52.9199C56.57 53.1299 56.57 52.8099 56.43 52.7299C56.57 52.4699 56.73 52.2299 56.67 52.1899C56.61 52.1499 56.48 52.0599 56.41 52.0199C56.23 52.2699 55.93 52.8099 55.81 53.0999C55.94 52.8199 56.09 52.5499 56.02 52.5099C55.95 52.4699 55.82 52.3999 55.75 52.3599C55.99 51.7399 56.71 51.0599 57.13 50.5599L56.97 50.3899C56.43 50.7999 55.86 51.6499 55.55 52.2399C55.65 51.9099 55.59 51.8699 55.46 51.7899C55.95 50.8499 56.81 50.2299 57.49 49.4299C57.21 49.6399 56.95 49.8699 56.7 50.1199C56.81 49.7399 57.28 49.2999 57.85 48.9399C58.41 48.5699 59.09 48.3099 59.58 48.0899Z" fill="#D8A788"/>
</g>
<defs>
<clipPath id="clip0_2_1334">
<rect width="140.45" height="55.92" fill="white"/>
</clipPath>
</defs>
</svg>
