<svg width="106" height="63" viewBox="0 0 106 63" fill="none" xmlns="http://www.w3.org/2000/svg">
<g clip-path="url(#clip0_2_1094)">
<path d="M47.14 33.9099C47.15 33.1799 47.75 31.9499 48.29 32.3299C47.75 31.9499 47.75 31.9599 47.85 30.9199C48.21 31.1699 48.56 30.3999 48.81 29.9299C48.31 30.1299 47.95 30.6199 47.21 31.5699C47.42 33.0099 44.99 34.1199 45.29 35.5299C45.9 35.0499 46.85 34.8099 47.14 33.9099Z" fill="white"/>
<path d="M52.23 31.28L52.1 31L51.42 32.84C51.44 32.4 51.94 31.17 52.23 31.28Z" fill="white"/>
<path d="M54.96 25.6899C55.27 26.0899 56.03 25.4299 56.39 25.6899C55.57 25.1899 57.05 24.2999 57.43 23.5499L57 22.8499C56.09 23.2299 55.15 25.0799 54.15 26.5099L54.96 25.6899Z" fill="white"/>
<path d="M56.28 24.67L56.19 23.95C56.03 24.41 55.51 25.34 56.28 24.67Z" fill="white"/>
<path d="M53.4499 24.24C52.6499 25.36 54.1699 23.72 53.5499 24.97C53.6899 24.51 53.9599 24.04 53.4499 24.24Z" fill="white"/>
<path d="M57.9 20.2898C57.44 21.1598 56.98 22.0198 56.54 22.8998L57.48 22.0798L57.9 20.2898Z" fill="white"/>
<path d="M59.28 21.0598C59.06 21.3698 58.5 21.6998 58.6 21.1098C59.67 20.5898 59.38 19.5998 60.34 19.1098L60.01 19.9998C60.58 20.2598 60.63 18.0698 61.49 18.7698C61.62 17.3198 60.17 18.9698 60.71 17.3398C59.94 18.6798 59.1 19.4598 58.19 20.3998C58.59 20.2198 58.64 20.0698 59.1 19.7498C58.59 20.5098 58.16 21.7098 57.63 22.6298C58.52 22.5698 58.44 21.5598 59.28 21.0598Z" fill="white"/>
<path d="M62.13 17.4498C62.78 16.7198 63.72 15.5598 63.26 14.8298C62.14 15.2598 62.58 15.8598 62.56 16.4298C62.27 16.5798 61.61 17.3098 61.52 16.7298C61.74 16.7298 61.61 17.6098 62.13 17.4498Z" fill="white"/>
<path d="M64.6501 14.5798L64.5601 13.5598L64.3601 13.9898L63.9301 13.6898C63.9701 13.8398 64.4801 14.7298 63.8101 15.4298C64.4301 15.2898 64.1801 14.8498 64.6501 14.5798Z" fill="white"/>
<path d="M62.05 12.0198C62.77 11.7198 62.89 11.2998 63.27 10.5598C62.56 11.4298 61.53 12.6198 61.55 13.0698L61.51 12.9198C61.51 12.9198 61.13 13.9598 61.09 14.8498C61.36 13.6398 63.27 12.6398 62.05 12.0198Z" fill="white"/>
<path d="M61.08 13.0599L61.28 12.1699L61.08 13.0599Z" fill="white"/>
<path d="M66.52 12.22C66.12 12.52 65.73 12.84 65.34 13.16L65.75 13.04C66.01 12.77 66.26 12.48 66.52 12.22Z" fill="white"/>
<path d="M63.67 12.0598C64.58 11.2098 62.78 12.1798 63.58 11.3198C63.73 11.0298 62.44 12.6198 62.66 12.9298C62.95 12.7798 63.12 11.7398 63.67 12.0598Z" fill="white"/>
<path d="M67.24 11.5698C67.39 11.1498 67.54 10.7198 67.72 10.3098C67.54 10.7098 67.4 11.1498 67.24 11.5698Z" fill="white"/>
<path d="M69.6699 9.70991L69.5899 9.25991C70.1499 8.99991 70.6199 8.48991 71.1399 8.09991C71.6599 7.70991 72.1899 7.38991 72.7699 7.46991C72.3199 7.19991 72.5699 6.35991 71.6499 6.88991C71.6799 7.19991 71.3799 7.41991 71.6199 7.62991C71.2099 7.82991 71.0699 7.49991 70.7499 7.57991C70.4199 8.38991 69.3199 8.92991 69.1099 9.61991C69.2699 9.34991 69.3899 9.37991 69.5899 9.25991C69.0899 10.6199 67.7999 9.58991 68.1599 10.7899C68.2599 10.2299 69.3399 10.2299 69.6699 9.70991Z" fill="white"/>
<path d="M67.8 7.79979L66.9 8.43979C66.79 7.81979 67.86 7.49979 67.68 7.02979C67.42 6.82979 66.5 7.47979 66.66 7.04979C67.39 8.04979 65.6 8.13979 66.96 8.73979C66.05 9.82979 66.11 8.48979 65.1 9.60979L65.27 10.3698C66.19 8.93979 66.82 9.16979 67.8 7.79979Z" fill="white"/>
<path d="M71.2 5.25998L71.87 5.27998L71.3 4.97998C71.79 4.60998 72.32 4.39998 72.84 4.27998C73.37 4.17998 73.91 4.17998 74.4 4.18998C75.38 4.18998 76.24 4.35998 76.78 3.87998C77.08 3.48998 77.45 3.25998 77.85 3.08998C78.25 2.91998 78.67 2.81998 79.1 2.73998C79.54 2.68998 79.98 2.66998 80.41 2.60998C80.63 2.57998 80.84 2.54998 81.05 2.49998C81.27 2.46998 81.48 2.42998 81.69 2.35998C82.42 1.68998 80.8 2.23998 80.64 2.00998C80.62 0.97998 81.6 2.29998 81.81 1.42998C81.79 1.06998 81.28 0.99998 80.66 0.97998C80.05 1.00998 79.33 1.11998 78.86 1.03998C78.21 1.34998 78.31 1.58998 78.25 2.02998C77.95 1.72998 77.23 1.89998 76.9 1.60998C76.31 2.12998 75.78 2.32998 75.21 2.46998C74.64 2.61998 74.1 2.80998 73.63 3.44998C72.96 3.22998 74.51 2.78998 74.06 2.97998L73.39 3.40998L73.51 3.43998C73.35 3.69998 73.11 3.91998 72.83 4.12998C72.56 4.34998 72.24 4.53998 71.92 4.69998C71.27 5.00998 70.6 5.24998 70.22 5.31998C70.76 5.12998 71.32 5.25998 70.92 5.77998L70.13 5.60998C69.95 6.13998 69.77 6.63998 69.62 7.16998C70.04 6.05998 71.72 6.29998 71.2 5.25998Z" fill="white"/>
<path d="M69.3 5.31982C67.78 6.10982 70.02 5.89982 68.45 6.84982L69.15 6.19982L69.89 5.58982L69.3 5.31982Z" fill="white"/>
<path d="M76.83 2.3798L77.74 2.4598C77.37 2.1398 77 2.3798 76.8 2.5598C76.62 2.7598 76.57 2.8998 76.83 2.3798Z" fill="white"/>
<path d="M79.63 1.30981L79.48 2.19981L80.05 1.53981L79.63 1.30981Z" fill="white"/>
<path d="M82.46 1.55982C82.96 1.02982 82.2 0.859824 81.54 1.10982C82.16 0.999824 82.55 1.26982 82.46 1.55982Z" fill="white"/>
<path d="M86.78 2.62988C86.16 2.65988 86.44 2.69988 86.76 2.81988C87.08 2.96988 87.42 3.20988 86.99 3.54988C87.13 3.21988 87.77 2.77988 86.78 2.62988Z" fill="white"/>
<path d="M90.37 4.8398C89.96 4.8898 89.82 4.7498 89.79 4.5498C90.09 4.5898 90.3 4.7098 90.37 4.8398Z" fill="white"/>
<path d="M75.5899 5.17993C75.4699 5.25993 75.3299 5.33993 75.1899 5.39993C75.3299 5.32993 75.4499 5.25993 75.5899 5.17993Z" fill="white"/>
<path d="M75.85 5.0498L75.59 5.1898C75.68 5.1298 75.77 5.0798 75.85 5.0498Z" fill="white"/>
<path d="M84.94 3.87982C84.9 3.85982 84.87 3.84982 84.84 3.81982L84.94 3.87982Z" fill="white"/>
<path d="M54.6001 28.22C54.5001 28.46 54.4001 28.63 54.3101 28.77C54.4001 28.58 54.4901 28.4 54.6001 28.22C54.5901 28.22 54.5901 28.22 54.6001 28.22Z" fill="white"/>
<path d="M53.28 28.23C53.43 27.03 54.92 27.89 55.56 26.21C55.27 26.87 54.94 27.54 54.59 28.22C53.38 28.65 54.65 27.33 53.28 28.23Z" fill="white"/>
<path d="M60.92 15.5C60.93 15.48 60.94 15.46 60.94 15.44C60.98 15.33 60.97 15.39 60.92 15.5Z" fill="white"/>
<path d="M19.99 60.5198L20 60.7398L18.99 60.5498L19.99 60.5198Z" fill="white"/>
<path d="M20.17 60.8999C20.75 60.9699 21.34 60.9899 21.93 61.0299C18.58 61.6999 15.04 61.8099 11.65 60.8899L12.05 60.6899C12.05 60.6399 12.17 60.6399 12.39 60.6699C12.61 60.6899 12.94 60.7299 13.32 60.7999C13.71 60.8499 14.15 60.9799 14.64 61.0099C15.13 61.0599 15.65 61.1099 16.17 61.1599C18.28 61.2899 20.35 61.0499 20.17 60.8999Z" fill="white"/>
<path d="M20.6 60.4899C21.39 59.4199 22.26 60.5699 23.26 59.6199C22.94 59.9299 22.66 60.2299 22.36 60.4499C22.06 60.6499 21.73 60.7699 21.33 60.7199L20.6 60.4899Z" fill="white"/>
<path d="M23.37 58.1099C23.91 58.1799 24.34 57.5799 24.65 57.6299C24.72 58.3299 23.81 58.1199 23.37 58.1099Z" fill="white"/>
<path d="M23.78 55.1899C23.84 55.1499 23.91 55.1299 23.97 55.1199C23.91 55.1899 23.85 55.2499 23.81 55.3099L23.78 55.1899Z" fill="white"/>
<path d="M23.82 55.3098L23.91 55.6098C23.73 55.5498 23.74 55.4398 23.82 55.3098Z" fill="white"/>
<path d="M23.97 55.1198C24.11 54.9698 24.28 54.7998 24.34 54.6398L24.15 54.6598C24.37 54.5098 24.68 54.0898 24.86 54.1998C24.38 54.3498 24.45 54.5598 24.6 54.9698L25.39 54.6898C25.64 55.7098 24.69 54.9698 23.97 55.1198Z" fill="white"/>
<path d="M26.3 53.8699C26.14 54.1899 25.96 54.4699 25.77 54.7699C25.32 54.3299 26.03 54.0399 26.3 53.8699Z" fill="white"/>
<path d="M27.7499 53.8799C27.6499 54.1199 26.8599 54.4699 27.4499 54.4699C27.3799 54.6399 27.2199 54.6999 27.0599 54.7799C27.5099 54.3799 26.6999 54.0099 27.7499 53.8799Z" fill="white"/>
<path d="M27.06 54.7798C27.01 54.8298 26.94 54.8798 26.85 54.9198C26.91 54.8598 26.98 54.8198 27.06 54.7798Z" fill="white"/>
<path d="M29.6 53.4998C29.7 53.4398 29.79 53.3798 29.89 53.3098C29.81 53.3698 29.74 53.4298 29.68 53.4898L29.6 53.4998Z" fill="white"/>
<path d="M0.619995 55.2598C1.05 55.8798 1.48 56.4898 2.03 57.1098C2.32 57.4098 2.66 57.6798 3.04 57.9698C3.43 58.2398 3.81 58.5698 4.34 58.7798C4.74 58.1498 5.18 59.1098 5.73 58.5298C5.27 58.2398 5.48 58.3698 6.02 58.6898C6.16 58.7698 6.31 58.8698 6.49 58.9598C6.66999 59.0398 6.88 59.1298 7.09 59.2298C7.52 59.4198 7.98 59.6398 8.46 59.8298C10.42 60.5398 12.5 60.7698 11.73 60.4098L11.16 60.5998C11.4 60.3998 11.64 60.1998 11.87 59.9898C12.3 60.2398 12.83 60.5498 13.34 60.7598C13.85 60.9798 14.35 61.1298 14.71 60.9198C14.73 60.9498 14.61 60.9698 14.39 60.9598C14.17 60.9498 13.86 60.8998 13.47 60.8398C13.09 60.7698 12.63 60.7198 12.15 60.5898C11.68 60.4598 11.17 60.3098 10.66 60.1698C10.16 60.0198 9.68 59.7898 9.22 59.6198C8.99 59.5298 8.76999 59.4398 8.56999 59.3598C8.37 59.2598 8.19 59.1598 8.02 59.0798C7.34 58.7298 6.9 58.5198 6.94 58.6098C6.89 58.3198 7.52999 58.4798 8.5 58.8598C8.99 59.0498 9.59999 59.1898 10.23 59.4098C10.55 59.5298 10.89 59.5998 11.24 59.6798C11.59 59.7598 11.94 59.8398 12.3 59.9198C13.02 60.0598 13.76 60.1298 14.44 60.2298C15.13 60.2498 15.79 60.2798 16.36 60.2998C17.5 60.2198 18.28 60.1598 18.35 60.0398L18.51 60.4998C19.23 60.1798 19.8 59.8398 20.31 59.4898C20.82 59.1198 21.29 58.7798 21.83 58.5198L22.21 59.0198C21.31 59.0198 21.16 59.4198 20.29 59.8298C21.06 59.6398 21.53 59.6198 21.96 59.6098C22.39 59.5898 22.76 59.5398 23.34 59.3298C23.1 58.6198 22.27 59.2298 23.59 58.4598C23.84 58.5598 23.79 58.8598 23.82 59.0898C23.85 59.3098 23.99 59.4698 24.62 59.1598C25.44 58.9798 25.68 58.6598 25.87 58.3198C26.05 57.9598 26.19 57.5798 26.82 57.2798L25.85 57.3998C26.3 57.1498 27.11 56.6698 27.72 56.7898C27.19 57.0198 25.98 57.9498 26.29 58.6398C26.79 58.2398 28.16 57.9798 28.61 57.6698L28.55 58.2898C29.31 58.4398 29.27 57.6398 30.16 57.6698C30.62 57.0398 29.42 57.2398 29.65 56.8498C29.85 56.9298 31.17 56.4398 31.38 55.9098C30.93 55.5398 30.65 55.8198 30.3 56.1298C29.95 56.4398 29.55 56.8198 28.91 56.5398C29.32 56.4198 29.7 56.2398 30.09 56.0698C30.14 55.3998 29.72 55.6698 29.28 55.9798C28.83 56.2698 28.32 56.5798 28.3 56.1098C28.44 55.4098 28.98 55.4298 29.49 55.3698C30 55.3198 30.52 55.2298 30.47 54.4098C29.84 54.4798 28.35 55.3898 28.33 54.9098C29.07 54.9598 29.04 54.0398 29.66 53.4998C30.04 53.4598 30.41 53.3798 30.79 53.3198C30.95 52.7798 30.65 52.9898 30.25 52.9998C30.65 52.9098 31.06 52.7098 31.47 52.4498C31.87 52.1698 32.28 51.8298 32.71 51.4798C33.55 50.7498 34.45 49.9698 35.5 49.4698C36.33 48.4498 35.28 49.0098 35.43 48.3298C36.38 48.2898 36.82 47.0798 37.29 46.5398C37.47 46.4098 37.24 45.6898 36.9 45.6598C36.61 46.1998 36.31 46.7398 35.99 47.2598C35.8 46.9598 35.2 46.7498 34.82 47.2598C35.43 47.5498 34.86 47.8698 34.23 48.2198C33.61 48.5798 32.97 48.9798 33.4 49.5498L32.98 49.0498C32.52 49.6398 32.08 50.2698 31.59 50.8298L31.7 50.8598C31.63 50.7698 31.34 51.1498 30.92 51.6298C30.49 52.0898 29.9 52.6098 29.33 52.8498C29.5 52.4698 31.29 51.4898 29.9 51.5998C30.39 50.7998 32.01 50.2498 33.06 48.9298L32.52 48.8098C33.36 47.2098 35.56 46.1598 36.75 44.5398L36.81 45.3798C37.45 45.0198 38.42 44.6298 38.45 43.7798C37.92 44.4598 37.94 43.8998 37.84 43.6198C38.32 42.5298 39.66 41.4198 40.43 39.9798C40.43 39.9798 40.49 40.1198 40.6 40.1198C40.84 39.5998 41.06 39.0598 41.29 38.5398C41.84 37.9498 42.28 37.9298 42.9 37.7398C43 37.4498 43.43 36.8398 42.98 36.8698C42.86 36.9798 42.74 37.0898 42.71 37.1998C42.65 36.1098 43.22 36.8198 43.48 35.6898C43.48 36.6998 44.28 35.9198 44.7 36.3098C45.21 35.1098 43.93 35.6498 43.8 35.3698C44.93 34.2698 45.44 34.3598 46.39 33.1098C46.15 32.8498 45.59 33.9098 45.18 33.8098C45.5 33.4898 45.76 33.0298 45.69 32.8898L44.94 33.5398C46.18 32.4198 47.11 31.1398 47.85 29.4498L47.62 29.4798L48.24 28.5298L48.57 29.2198C48.76 28.6098 49.6 28.3598 49.33 27.8098L49.17 27.9798L49.4 27.2198L49.52 28.2298C50.28 27.5598 49.87 25.6898 50.83 24.3898C51.75 24.5698 49.6 26.8998 50.45 27.6798C50.89 27.3298 51.53 26.6698 51.45 26.2298C51.16 26.1198 50.95 26.4398 50.74 26.7598C50.99 25.2598 52.93 23.9898 52.59 22.6998L51.7 23.3898C52.29 22.2798 53.72 22.2798 53.41 21.5698L53.81 23.0098C54.04 21.6598 55.03 20.3698 55.37 19.1598C54.85 18.7598 54.41 20.5798 54.35 20.4398L54.27 19.6998C55.65 18.3898 54.9 19.4898 56.51 17.8698L56.17 17.5998C57.14 17.3798 57.31 14.9898 57.8 16.2998L57.22 16.6298L57.67 16.8998L58.96 14.5998C59.11 15.0398 59.81 13.9798 60.01 14.5698L60.25 13.5198C61.11 13.6498 59.84 15.4598 60.24 15.8898C60.53 16.0698 60.77 15.6998 60.87 15.4998C60.6 16.7298 59.24 16.3898 58.53 17.2998L58.58 18.0398L58.07 17.6298C57.89 18.0898 58.01 18.6698 58.12 18.9498C56.74 19.3398 56.93 20.9498 55.84 22.2298C56.31 20.8598 54.82 22.6198 54.81 22.3298C54.37 22.9698 54.3 25.1798 53.28 25.2898C52.78 25.4998 53.39 24.2498 52.69 25.0598C52.38 25.6898 52.41 26.2698 52.92 26.0598C52.26 27.4598 51.15 28.9198 50.28 30.3398L50.13 29.7698C49.26 30.4598 49.23 31.6298 49.33 32.3498C49.1 32.3798 49.17 32.5098 49.04 32.2398C47.72 32.9698 48.88 34.1598 47.55 35.8998C48.13 36.1298 48.72 35.3398 48.85 34.5998L49.34 35.1298C50.39 33.5498 51.41 31.6698 51.88 30.1498L51.94 31.0198C53.44 30.3998 51.68 29.7298 53.25 29.2498C53.53 28.3398 52.59 29.6198 52.71 28.8698C53.23 28.4298 53.64 29.6598 54.27 28.7598C52.37 32.4098 49.86 36.3598 47.5 39.9898C47.56 40.1298 47.73 39.9698 47.9 39.8098C47.87 40.6898 45.62 43.2898 43.37 45.6698C41.14 48.0798 38.87 50.2098 39.38 50.9898C39.04 50.9598 39.31 50.2398 38.69 50.9398C38.73 51.0898 38.68 51.3898 39.02 51.4098C37.83 51.9098 36.86 52.8698 35.8 53.8598C34.75 54.8498 33.6 55.8598 32.24 56.4098C32.47 56.6298 32.04 57.1298 32.15 57.3198C31.52 57.2898 30.96 57.6498 30.41 58.0498C29.85 58.4198 29.29 58.7998 28.79 58.8398L29.22 59.0198L28.56 59.3698L27.87 59.6698C27.41 59.8598 26.96 60.0698 26.49 60.2498C26.46 60.4098 26.84 60.2598 27.07 60.2098C26.53 60.6298 26.24 60.2798 26.08 60.0198L25.07 61.1798C22.99 61.1398 20.95 61.7998 18.65 62.1598C16.38 62.5298 13.84 62.6098 11.66 61.6398C11.25 61.8398 10.87 61.9498 10.44 61.9798C10.23 61.9898 10 61.9898 9.75 61.9598C9.51 61.9098 9.25 61.8398 8.95 61.7398L9.45 62.1398C8.08 62.1398 9.49 61.8298 8.39999 61.6498C7.55999 61.7198 7.83 62.4098 8.91 62.4798C9.42999 62.9098 9 62.9698 8.51 62.9298C8.03 62.7298 7.55 62.5198 7.09 62.2998C6.64 62.0398 6.21 61.7798 5.78 61.5098L5.19 61.0998C4.99 60.9598 4.8 60.7898 4.61 60.6398C4.24 60.3198 3.87 59.9998 3.52 59.6798C2.84 59.0198 2.29 58.2598 1.76 57.5598C1.31 56.7898 0.929995 56.0098 0.619995 55.2598Z" fill="white"/>
<path d="M97.56 10.3799C97.58 9.96989 98.4601 11.0399 98.4801 10.1199C98.4101 9.81989 98.3 9.49989 98.15 9.19989C97.97 8.91989 97.77 8.64989 97.54 8.36989C97.42 8.22989 97.3 8.08989 97.18 7.95989C97.04 7.83989 96.89 7.71989 96.75 7.60989C96.45 7.37989 96.16 7.11989 95.83 6.90989C94.51 6.04989 93.03 5.44989 91.79 4.58989C91.16 3.96989 90.9501 3.91989 90.3001 3.50989C90.2701 3.60989 90.25 3.72989 90.26 3.84989C89.87 3.75989 89.34 3.74989 88.82 3.67989C88.3 3.59989 87.7701 3.60989 87.3701 3.42989C87.1301 3.54989 86.97 4.01989 87.4001 3.91989C86.8 4.08989 86.2801 3.90989 85.8001 3.70989C85.3301 3.50989 84.89 3.28989 84.57 3.54989C85.2 3.76989 84.04 4.08989 84.77 4.22989C83.54 4.48989 83.36 2.75989 82.25 2.81989C82.22 2.95989 82.18 3.10989 82.4001 3.09989C82.08 2.98989 81.6901 3.00989 81.3001 3.08989C80.9101 3.17989 80.5201 3.35989 80.1601 3.49989C79.4301 3.75989 78.8401 4.01989 78.5501 3.48989L78.29 4.12989C77.66 3.98989 77.65 3.64989 76.78 3.92989C76.35 4.37989 77 4.31989 76.89 4.57989C76.68 4.41989 76.25 4.56989 75.75 4.71989C75.26 4.89989 74.7201 5.10989 74.2301 5.00989C74.0101 4.70989 74.43 4.74989 74.92 4.74989C75.17 4.74989 75.43 4.73989 75.65 4.67989C75.88 4.62989 76.06 4.51989 76.14 4.28989C76.09 4.14989 75.98 4.15989 75.84 4.20989C76.27 4.00989 76.7001 3.84989 77.1201 3.71989C77.5501 3.58989 77.9901 3.52989 78.4101 3.46989C79.2501 3.31989 80.0901 3.35989 80.8701 3.34989C81.6501 3.34989 82.4101 3.43989 83.1201 3.38989C83.8401 3.41989 84.5301 3.30989 85.2301 3.11989C85.8901 3.60989 86.33 3.08989 86.61 2.55989C86.09 2.35989 84.4901 1.92989 84.5801 3.00989L83.5801 2.46989C83.2401 2.56989 83.0701 1.52989 82.8701 1.38989C83.5601 1.40989 84.23 0.279887 83.21 0.0498873C84.16 -0.150113 84.06 0.429887 83.96 0.979887C83.86 1.53989 83.74 2.06989 84.5 1.82989L84.6501 1.04989C84.4001 1.45989 85.79 1.72989 86.28 1.44989L86.06 1.29989C88.18 1.38989 90.63 1.60989 93.06 2.28989C95.48 2.94989 97.84 4.10989 99.72 5.56989C99.63 6.11989 99.75 6.49989 100 6.78989C100.26 7.06989 100.6 7.30989 100.95 7.55989C101.3 7.79989 101.67 8.04989 101.91 8.33989C102.14 8.63989 102.22 9.00989 102.07 9.44989C102.57 9.72989 102.19 8.45989 102.95 9.14989C103.33 9.49989 102.95 9.79989 102.82 9.85989C102.95 9.95989 103.07 10.0499 103.2 10.1499C102.53 10.7899 101.71 11.0899 100.77 11.1199C100.3 11.1299 99.8 11.0699 99.29 10.9299C99.16 10.8999 99.03 10.8499 98.9 10.8099C98.76 10.7799 98.61 10.7399 98.46 10.6999C98.16 10.6099 97.86 10.4999 97.56 10.3799Z" fill="white"/>
<path d="M4.81 21.4298V23.7398C5.8 22.0898 7.39 21.2598 9.57 21.2598C11.37 21.2598 12.83 21.8598 13.95 23.0598C15.07 24.2598 15.63 25.8898 15.63 27.9598V37.1398H10.84V28.6098C10.84 27.5998 10.57 26.8098 10.04 26.2598C9.51 25.7098 8.77 25.4298 7.83 25.4298C6.89 25.4298 6.15 25.7098 5.62 26.2598C5.09 26.8098 4.82 27.5998 4.82 28.6098V37.1398H0V21.4298H4.81Z" fill="#272525"/>
<path d="M20.36 35.0898C18.97 33.5898 18.28 31.6598 18.28 29.3198C18.28 26.9698 18.97 25.0498 20.36 23.5298C21.75 22.0198 23.44 21.2598 25.44 21.2598C27.44 21.2598 28.97 21.9998 30.04 23.4798V21.4198H34.85V37.1298H30.04V34.8498C28.88 36.4998 27.32 37.3298 25.37 37.3298C23.41 37.3398 21.74 36.5898 20.36 35.0898ZM29 32.1598C29.69 31.4798 30.04 30.5298 30.04 29.2898C30.04 28.0498 29.69 27.0998 29 26.4298C28.31 25.7598 27.51 25.4298 26.61 25.4298C25.71 25.4298 24.91 25.7698 24.22 26.4398C23.53 27.1198 23.18 28.0698 23.18 29.3098C23.18 30.5498 23.53 31.4998 24.22 32.1698C24.91 32.8398 25.71 33.1698 26.61 33.1698C27.51 33.1698 28.3 32.8398 29 32.1598Z" fill="#272525"/>
<path d="M45.47 33.0599H47.19V37.1399H44.74C42.97 37.1399 41.61 36.7499 40.64 35.9699C39.67 35.1899 39.19 33.8499 39.19 31.9599V25.4299H37.73V21.4299H39.19V17.5999H44V21.4299H47.15V25.4299H44V31.9599C44.01 32.6999 44.49 33.0599 45.47 33.0599Z" fill="#272525"/>
<path d="M60.87 21.4299H65.68V37.1399H60.87V34.8299C59.87 36.4799 58.2901 37.3099 56.1101 37.3099C54.3101 37.3099 52.85 36.7099 51.73 35.5099C50.61 34.3099 50.05 32.6799 50.05 30.6099V21.4299H54.84V29.9599C54.84 30.9699 55.11 31.7599 55.64 32.3099C56.17 32.8599 56.91 33.1399 57.85 33.1399C58.79 33.1399 59.5301 32.8599 60.0601 32.3099C60.6001 31.7599 60.8601 30.9699 60.8601 29.9599V21.4299H60.87Z" fill="#272525"/>
<path d="M74.44 21.4298V24.3598C75.57 22.2998 77.07 21.2598 78.95 21.2598V26.1598H77.77C76.66 26.1598 75.83 26.4198 75.28 26.9498C74.73 27.4798 74.45 28.3998 74.45 29.7098V37.1398H69.64V21.4298H74.44Z" fill="#272525"/>
<path d="M82.21 35.0898C80.82 33.5898 80.13 31.6598 80.13 29.3198C80.13 26.9698 80.82 25.0498 82.21 23.5298C83.6 22.0198 85.29 21.2598 87.29 21.2598C89.29 21.2598 90.82 21.9998 91.89 23.4798V21.4198H96.7V37.1298H91.89V34.8498C90.73 36.4998 89.17 37.3298 87.22 37.3298C85.27 37.3398 83.6 36.5898 82.21 35.0898ZM90.85 32.1598C91.54 31.4798 91.89 30.5298 91.89 29.2898C91.89 28.0498 91.54 27.0998 90.85 26.4298C90.16 25.7598 89.36 25.4298 88.46 25.4298C87.56 25.4298 86.76 25.7698 86.07 26.4398C85.38 27.1198 85.03 28.0698 85.03 29.3098C85.03 30.5498 85.38 31.4998 86.07 32.1698C86.76 32.8398 87.56 33.1698 88.46 33.1698C89.36 33.1698 90.16 32.8398 90.85 32.1598Z" fill="#272525"/>
<path d="M100.65 37.1398V16.3098H105.46V37.1398H100.65Z" fill="#272525"/>
<path d="M5.18996 39.8899V44.6099H4.40996V41.3699L2.96996 44.6099H2.43996L0.989961 41.3699V44.6099H0.209961V39.8899H1.04996L2.70996 43.5999L4.35996 39.8899H5.18996Z" fill="black"/>
<path d="M10.5599 44.6199V39.8999H11.3399V44.6199H10.5599Z" fill="black"/>
<path d="M19.8099 39.8899H20.58V44.6199H19.8099L17.4799 41.0899V44.6199H16.7V39.8899H17.4799L19.8099 43.4099V39.8899Z" fill="black"/>
<path d="M28.57 39.8899V40.4999H26.73V41.9299H28.36V42.5299H26.73V44.0199H28.57V44.6299H25.96V39.8999H28.57V39.8899Z" fill="black"/>
<path d="M34.65 42.6999V44.6199H33.88V39.8999H35.51C36.04 39.8999 36.46 40.0299 36.75 40.2999C37.04 40.5699 37.19 40.8999 37.19 41.3099C37.19 41.6299 37.09 41.9099 36.9 42.1699C36.71 42.4199 36.41 42.5899 36.01 42.6699L37.26 44.6299H36.32L35.14 42.7099H34.65V42.6999ZM34.65 40.4999V42.0999H35.51C35.8 42.0999 36.02 42.0299 36.17 41.8899C36.31 41.7499 36.39 41.5499 36.39 41.2999C36.39 41.0499 36.32 40.8499 36.17 40.7099C36.02 40.5699 35.8 40.4999 35.51 40.4999H34.65Z" fill="black"/>
<path d="M45.71 44.6199L45.37 43.6499H43.39L43.05 44.6199H42.24L43.93 39.8899H44.83L46.52 44.6199H45.71ZM43.6 43.0499H45.16L44.38 40.8299L43.6 43.0499Z" fill="black"/>
<path d="M51.61 39.8899H52.38V44.0199H53.98V44.6099H51.61V39.8899Z" fill="black"/>
<path d="M70.69 39.8899H71.52L70.12 44.6099H69.24L68.25 41.0299L67.2 44.6099L66.33 44.6199L64.99 39.8899H65.81L66.79 43.7399L67.85 39.8899H68.72L69.71 43.7199L70.69 39.8899Z" fill="black"/>
<path d="M79.7 44.6199L79.36 43.6499H77.38L77.04 44.6199H76.23L77.92 39.8899H78.82L80.51 44.6199H79.7ZM77.59 43.0499H79.15L78.37 40.8299L77.59 43.0499Z" fill="black"/>
<path d="M85.36 40.4999V39.8999H88.66V40.4999H87.4V44.6199H86.62V40.4999H85.36Z" fill="black"/>
<path d="M96.4 39.8899V40.4999H94.56V41.9299H96.19V42.5299H94.56V44.0199H96.4V44.6299H93.79V39.8999H96.4V39.8899Z" fill="black"/>
<path d="M102.48 42.6999V44.6199H101.71V39.8999H103.34C103.87 39.8999 104.29 40.0299 104.58 40.2999C104.87 40.5699 105.02 40.8999 105.02 41.3099C105.02 41.6299 104.92 41.9099 104.73 42.1699C104.54 42.4199 104.24 42.5899 103.84 42.6699L105.09 44.6299H104.15L102.97 42.7099H102.48V42.6999ZM102.48 40.4999V42.0999H103.34C103.63 42.0999 103.85 42.0299 104 41.8899C104.14 41.7499 104.22 41.5499 104.22 41.2999C104.22 41.0499 104.15 40.8499 104 40.7099C103.85 40.5699 103.63 40.4999 103.34 40.4999H102.48Z" fill="black"/>
</g>
<defs>
<clipPath id="clip0_2_1094">
<rect width="105.46" height="62.93" fill="white"/>
</clipPath>
</defs>
</svg>
