<svg width="122" height="41" viewBox="0 0 122 41" fill="none" xmlns="http://www.w3.org/2000/svg">
<g clip-path="url(#clip0_2_1038)">
<path d="M5.32002 12.2099C5.40002 12.1899 5.48002 12.1599 5.56002 12.1399C5.50002 12.1299 5.43002 12.1199 5.36002 12.1099C5.31002 12.1299 5.25002 12.1599 5.21002 12.1899C5.25002 12.1899 5.29002 12.1999 5.32002 12.2099Z" fill="#D8A788"/>
<path d="M2.23998 12.91C1.96998 12.84 1.70998 12.76 1.32998 12.78C1.23998 12.82 1.18998 12.84 1.16998 12.85C1.30998 12.89 1.49998 12.95 1.68998 13.01C2.06998 13.13 2.25998 13.05 2.23998 12.91Z" fill="#D8A788"/>
<path d="M1.17001 12.86C1.04001 12.82 0.950012 12.79 0.950012 12.79C1.00001 12.82 1.05001 12.85 1.10001 12.88C1.14001 12.87 1.14001 12.87 1.14001 12.87C1.14001 12.87 1.14001 12.87 1.17001 12.86Z" fill="#D8A788"/>
<path d="M73.57 11.1499C78.7 11.3499 83.85 11.4799 89 11.5799C89.17 11.5799 89.32 11.5399 89.33 11.4799C89.34 11.4299 89.2 11.3799 89.05 11.3799C83.9 11.2699 78.78 11.1399 73.65 10.9399C73.48 10.9399 73.34 10.9799 73.31 11.0299C73.29 11.0999 73.41 11.1399 73.57 11.1499Z" fill="#D8A788"/>
<path d="M111.99 16.8799C111.87 16.9199 111.87 16.9799 112 17.0299C112.11 17.0699 112.3 17.0699 112.42 17.0299C112.52 16.9899 112.52 16.9199 112.41 16.8899C112.28 16.8299 112.09 16.8399 111.99 16.8799Z" fill="#D8A788"/>
<path d="M115.19 19.36C111.48 19.2 107.75 19.05 104.01 18.93C104.27 18.88 104.53 18.83 104.79 18.78C105.05 18.76 105.31 18.74 105.57 18.72C107.97 18.71 110.38 18.67 112.79 18.61C113.69 18.62 114.44 18.38 114.48 18.07C114.49 17.76 113.83 17.52 112.96 17.49C113.1 17.47 113.24 17.45 113.38 17.43C113.52 17.42 113.62 17.36 113.58 17.31C113.52 17.26 113.34 17.22 113.21 17.23C112.7 17.3 112.2 17.38 111.7 17.45C107.12 17.33 102.53 17.37 97.94 17.43C102.88 17.07 107.88 16.82 112.92 16.72C112.82 16.76 112.81 16.82 112.93 16.86C113.04 16.89 113.25 16.89 113.35 16.86C113.47 16.82 113.45 16.75 113.34 16.72H113.33C116.03 16.67 118.75 16.67 121.47 16.71C121.63 16.71 121.77 16.67 121.76 16.61C121.76 16.55 121.61 16.5 121.43 16.5C112.42 16.36 103.48 16.76 94.74 17.48C94.26 17.49 93.79 17.49 93.31 17.5C93.16 17.26 92.84 17.05 92.42 16.88C95.51 16.78 98.59 16.66 101.67 16.51C104.24 16.53 106.81 16.55 109.39 16.57C109.76 16.57 110.07 16.47 110.08 16.33C110.09 16.2 109.78 16.1 109.39 16.09C108.76 16.08 108.13 16.08 107.5 16.07C108.02 15.91 108.36 15.68 108.4 15.42C108.44 15.17 108.17 14.94 107.73 14.77C110.52 14.53 113.27 14.27 115.97 13.92C116.13 13.9 116.21 13.85 116.16 13.79C116.1 13.74 115.94 13.71 115.78 13.73C111.86 13.88 108 14.1 104.12 14.28C101.06 13.97 98.07 13.64 94.76 13.52C89.94 13.36 85.42 13.68 80.9 14C79.27 13.92 77.66 13.86 76.05 13.82C76.28 13.7 76.41 13.56 76.41 13.41C76.41 13.37 76.39 13.33 76.37 13.3C77.78 13.32 79.21 13.34 80.65 13.35C94.06 13.49 106.64 12.44 119.47 11.57C120.29 11.54 120.88 11.28 120.78 11C120.68 10.72 119.93 10.52 119.11 10.55C112.96 10.55 107.29 11.04 101.07 11.52C96.64 11.86 92.75 12.11 88.3 12.35C83.09 12.62 78.24 12.56 73.14 12.56C72.64 12.52 72.14 12.48 71.63 12.5C71.12 12.52 70.6 12.53 70.09 12.55C66.09 12.51 62.17 12.33 58.27 12.14C62.94 11.97 67.6 11.77 72.19 11.38C72.52 11.36 72.74 11.26 72.7 11.15C72.64 11.04 72.34 10.96 72.01 10.98C65.61 11.22 59.18 11.31 52.77 11.43C51.02 10.46 47.32 9.88997 44 9.85997C42.78 9.83997 41.64 9.94997 40.5 10.11C41.03 10.15 41.55 10.19 42.09 10.23C40.52 10.26 39.17 10.51 37.85 10.77C37.73 10.76 37.62 10.74 37.49 10.74C34.41 10.2 30.81 10.31 27.48 10.08C27.55 10.2 27.64 10.33 27.71 10.45C27.09 10.36 26.74 10.13 26.06 10.06C26.25 10.15 26.43 10.24 26.62 10.33C26.61 10.33 26.59 10.33 26.58 10.33C25.86 10.13 24.99 10.04 24.09 10.03C22.04 9.45997 19.54 9.11997 16.92 8.96997C16.6 8.81997 16.1 8.70997 15.5 8.68997C15.25 8.63997 14.96 8.60997 14.77 8.54997C13.14 7.94997 11.15 7.52997 8.96001 7.21997C9.38001 7.32997 9.82001 7.44997 10.25 7.55997C9.62001 7.46997 8.99001 7.36997 8.28001 7.35997C8.35001 7.42997 8.45001 7.49997 8.52001 7.57997C6.35001 7.05997 3.36001 7.24997 1.85001 7.98997C0.340013 8.73997 0.870013 9.75997 3.05001 10.27L3.36001 10.35C2.25001 10.46 1.27001 10.71 0.720013 11.14C0.430013 11.38 0.680013 11.67 0.750013 11.95C0.660013 12.35 1.54001 12.69 2.71001 12.72C3.03001 12.73 3.33001 12.71 3.61001 12.67C4.96001 12.82 6.33001 12.93 7.64001 13.11C7.90001 13.15 8.21001 13.12 8.35001 13.02C8.47001 12.93 8.35001 12.82 8.09001 12.78C7.15001 12.59 6.23001 12.4 5.32001 12.2C5.24001 12.22 5.17001 12.25 5.09001 12.27C5.12001 12.24 5.17001 12.21 5.21001 12.18C5.13001 12.16 5.04001 12.14 4.96001 12.13C5.02001 12.11 5.08001 12.09 5.15001 12.08C5.22001 12.09 5.29001 12.1 5.36001 12.11C5.48001 12.06 5.61001 12.01 5.76001 11.97C7.39001 12.11 9.01001 12.26 10.53 12.52C10.62 12.54 10.47 12.71 10.63 12.78C10.71 12.81 10.8 12.84 10.88 12.87C10.61 12.83 10.32 12.8 10.01 12.77C8.84001 13.02 8.40001 13.12 8.09001 13.18C8.09001 13.18 8.09001 13.18 8.00001 13.2C7.86001 13.23 7.74001 13.26 7.56001 13.29C7.56001 13.29 7.56001 13.3 7.56001 13.31C7.52001 13.32 7.49001 13.33 7.45001 13.34C7.28001 13.33 7.10001 13.31 6.93001 13.3C6.73001 13.28 6.54001 13.32 6.45001 13.37C6.38001 13.33 6.31001 13.28 6.22001 13.24C5.22001 13.15 5.22001 13.15 4.19001 13.07C4.19001 13.07 4.19001 13.12 4.23001 13.18C4.19001 13.18 3.85001 13.23 3.45001 13.21C3.07001 13.22 3.07001 13.22 2.11001 13.14C2.11001 13.14 2.11001 13.14 2.57001 13.32C2.57001 13.32 2.57001 13.32 2.16001 13.2C2.16001 13.2 2.16001 13.2 2.27001 13.4C2.27001 13.4 2.27001 13.4 2.08001 13.18C2.08001 13.18 2.08001 13.18 1.91001 13.35C1.91001 13.35 1.91001 13.35 1.11001 12.87C1.05001 12.88 0.900013 12.9 0.520013 12.97C0.520013 12.97 0.420013 13.02 0.340013 13.07C0.320013 13.14 0.320013 13.14 1.30859e-05 13.34C1.30859e-05 13.34 -0.00998691 13.41 0.0200131 13.48C0.120013 13.55 0.120013 13.55 0.140013 13.73C0.140013 13.73 0.250013 13.8 0.410013 13.86C0.560013 13.9 0.600013 13.91 1.18001 14.02C1.13001 14.05 1.08001 14.08 1.04001 14.12C0.930013 14.47 0.930013 14.47 1.64001 15.27C1.64001 15.27 2.04001 15.49 2.68001 15.65C3.43001 15.73 3.43001 15.73 4.30001 15.81C4.30001 15.81 4.49001 15.84 4.81001 15.88C5.05001 16.01 5.11001 16.04 5.29001 16.16C5.12001 16.17 4.96001 16.19 4.83001 16.23C4.44001 16.34 4.39001 16.54 4.71001 16.67C4.28001 17.2 4.54001 17.68 5.08001 18.14C4.91001 18.32 4.84001 18.5 4.86001 18.69C4.22001 19.14 3.82001 19.63 3.66001 20.14L3.60001 20.59C3.78001 20.97 4.32001 21.32 5.11001 21.59L5.35001 21.7L5.12001 22.07C6.14001 23.05 8.15001 23.84 9.40001 24.78L10.34 25.28C11.02 25.68 12.1 25.97 13.36 26.11L14.69 26.25C14.97 26.26 15.25 26.26 15.53 26.26C14.11 26.72 13.33 27.4 13.59 28.11C14.04 29.28 17.2 30.12 20.66 29.96C29.88 29.91 38.78 29.83 48.2 29.35C55.18 28.99 61.5 28.51 68.34 28.51C74.88 28 81.18 27.34 87.56 26.56C92.92 25.9 97.02 24.58 101.77 23.58C101.91 23.55 101.92 23.49 101.85 23.44C101.74 23.39 101.55 23.39 101.42 23.42C93.9 24.29 86.31 25.05 78.25 25.23C77.33 25.25 76.42 25.25 75.52 25.24C75.42 25.22 75.31 25.21 75.19 25.21C74.37 25.15 73.55 25.1 72.73 25.05C73.02 25.05 73.3 25.04 73.59 25.04C74.16 25.05 74.64 24.9 74.68 24.7C74.68 24.62 74.6 24.54 74.47 24.48C76.57 24.27 78.62 24 80.66 23.71C81.27 23.69 81.83 23.62 82.32 23.51C84.68 23.66 87.06 23.76 89.43 23.9L90.02 23.96C90.8 24 91.55 23.88 91.93 23.65C92.05 23.58 92.12 23.51 92.16 23.43C97.57 23.02 103.07 22.71 108.18 21.94C108.44 21.9 108.58 21.82 108.53 21.72C108.63 21.74 108.75 21.75 108.87 21.73C109.48 21.57 110.16 21.48 110.88 21.39C111.04 21.36 111.12 21.3 111.05 21.26C110.98 21.2 110.8 21.18 110.66 21.2C109.92 21.29 109.2 21.4 108.54 21.55C108.47 21.57 108.42 21.6 108.41 21.63C108.26 21.57 108.03 21.55 107.8 21.57C102.52 21.83 97.4 22.41 92.07 22.54C94.68 22.18 97.35 21.94 100.15 21.67C103.54 21.35 106.65 20.89 110.07 20.71C110.25 20.71 110.37 20.65 110.35 20.6C110.33 20.55 110.18 20.5 110.01 20.51C103.01 20.79 96.88 22.13 89.65 22.13C89.37 22.13 89.08 22.12 88.8 22.12C91.03 21.65 93.22 21.17 95.4 20.7C102.05 20.5 108.67 20.2 115.2 19.77C115.52 19.77 115.78 19.67 115.77 19.57C115.78 19.44 115.5 19.35 115.19 19.36ZM3.94001 14.42C4.03001 14.45 4.09001 14.48 4.20001 14.55C4.20001 14.55 4.20001 14.55 3.94001 14.42ZM20.04 14.18C18.72 14.1 17.37 14.04 15.99 14.01C15.48 14 14.97 14.02 14.48 14.07C13.94 13.78 13.36 13.49 12.62 13.26C13.86 13.44 15.27 13.5 16.57 13.62C18.01 13.75 19.43 13.88 20.84 13.99C20.67 14 20.51 14.01 20.34 14.03C20.18 14.05 19.87 14.03 20.04 14.18ZM22.99 11.18C23.24 11.29 23.5 11.4 23.75 11.51C23.71 11.51 23.68 11.51 23.64 11.5C23.3 11.45 22.97 11.41 22.63 11.36C22.69 11.39 22.75 11.42 22.82 11.45C21.52 11.37 20.22 11.29 18.93 11.2C17.07 10.91 15.07 10.71 13.04 10.63C13.63 10.51 14.18 10.37 14.7 10.23C17.28 10.55 19.75 10.96 22.45 11.08C22.64 11.11 22.81 11.14 22.99 11.18ZM9.94001 16.57C9.84001 16.5 9.72001 16.42 9.56001 16.32C9.57001 16.32 9.72001 16.43 9.94001 16.57ZM5.52001 21.44L5.45001 21.39L6.24001 20.27L5.52001 21.44Z" fill="#D8A788"/>
<path d="M20.48 28.25C20.45 28.14 20.28 27.98 20.22 27.87C20.31 27.72 20.44 27.65 20.49 27.54C20.57 27.2 20.57 26.83 20.65 26.49C20.67 26.34 20.68 26.23 20.7 26.08C20.95 25.6 21.03 25.14 20.98 24.65C20.99 24.57 21.12 24.39 21.14 24.24C21.19 24.17 21.28 24.05 21.25 23.98C21.15 23.83 21.25 23.64 21.47 23.38C21.61 23.19 21.63 23.01 21.72 22.82C22.04 22 22.25 21.17 22.57 20.39C22.39 18.96 26.06 14.08 23.28 14.79C23.11 14.9 22.88 14.97 22.68 15.01C19.76 16.25 20.01 16.06 18.95 18.68C18.87 19.05 18.76 19.39 18.64 19.77C18.58 19.92 18.61 20.07 18.51 20.26C17.91 21.49 17.7 22.73 16.79 24C16.71 24.04 16.71 24.07 16.66 24.15C15.84 25.04 15.96 25 15.01 24.95C14.86 24.95 14.71 24.87 14.59 24.94C14.16 25.01 13.96 24.78 13.95 24.52C13.95 24.14 14 23.77 14.12 23.36C14.66 21.64 15.35 19.84 16.09 18.08C16.97 16.36 15.17 17.46 15.22 16.04C15.21 15.81 15.16 15.55 15.26 15.33C15.43 14.88 15.47 14.47 15.63 14.06C15.74 13.76 15.77 13.54 15.66 13.42C15.99 12.9 16.27 12.41 16.6 11.85C17.11 12.08 17.71 11.83 18.48 11.73C18.99 11.62 19.56 10.96 19.68 10.51C20.31 8.93999 20.91 8.07999 21.81 6.51999C22.38 5.50999 23.14 4.46999 23.83 3.42999C24 3.11999 24.2 3.04999 24.46 3.08999C24.76 3.12999 24.98 3.16999 25.28 3.20999C25.65 3.32999 25.66 3.54999 25.51 3.88999C25.21 4.48999 24.85 5.00999 24.64 5.52999C24.34 6.12999 24.06 6.64999 23.77 7.20999C21.17 10.71 23.55 10.52 26.52 9.50999C26.62 9.31999 26.74 9.24999 26.79 9.09999C27.26 8.00999 27.63 7.37999 28.21 6.25999C28.32 5.95999 28.59 5.58999 28.62 5.28999C28.68 4.79999 29.06 4.38999 29.34 3.94999C29.53 3.64999 29.67 3.34999 29.75 2.97999C29.78 2.71999 30.01 2.33999 30.16 2.03999C30.62 1.36999 31.11 0.69999 31.57 -0.0100098C32.1 -9.76585e-06 32.63 0.00999023 33.13 0.00999023C33.93 0.0199902 34.63 0.21999 35.2 0.56999C35.74 0.87999 35.99 1.33999 35.76 2.04999C35.52 2.49999 35.43 2.94999 35.08 3.35999C34.16 4.77999 33.46 6.22999 32.81 7.64999C32.02 9.28999 34.02 8.75999 35.03 8.54999C35.22 8.50999 35.46 8.47999 35.51 8.70999C34.78 8.80999 33.96 8.98999 33.29 9.12999C32.9 9.19999 32.63 9.30999 32.3 9.45999C31.86 9.67999 31.62 10.05 31.46 10.5C31.65 10.5 31.95 10.55 32.18 10.55C32.29 10.55 32.49 10.52 32.61 10.44C33.07 10.41 33.54 10.3 33.99 10.39C34.18 10.43 34.6 10.4 34.87 10.33C35.18 10.3 35.44 10.3 35.79 10.31C35.7 10.12 35.6 9.96999 35.55 9.77999C35.53 9.58999 35.67 9.36999 35.78 9.06999C35.86 9.06999 35.97 9.06999 36.05 9.06999C36.09 9.02999 36.09 9.02999 36.13 8.99999C36.03 8.84999 35.86 8.68999 35.8 8.53999C36.31 8.73999 36.69 9.07999 36.78 9.60999L36.79 9.53999C36.71 9.60999 36.63 9.64999 36.47 9.64999C36.14 10.25 36.59 10.25 37.09 10.26C36.51 10.67 36.2 10.4 35.78 10.43C36.03 10.58 36.17 10.7 36.38 10.85C36.11 10.92 35.81 10.88 35.61 11.29C35.8 11.33 36.02 11.33 36.32 11.38C36.05 11.45 35.84 11.56 35.69 11.6C35.53 11.64 35.34 11.67 35.16 11.89C35.31 11.89 35.45 11.97 35.64 12.01C34.7 12.26 33.76 12.51 32.8 12.87C32.17 13.05 31.47 13.23 30.79 13.44C30.24 13.58 29.9 13.92 29.7 14.36C29.32 15.03 29.13 15.71 28.94 16.38C28.77 16.87 28.64 17.35 28.39 17.84C28.03 18.66 27.9 19.49 27.58 20.27C27.34 21.02 27.11 21.77 26.79 22.52C26.78 22.6 26.66 22.67 26.57 22.78C26.56 22.85 26.47 22.97 26.51 23C26.68 23.53 26.34 24.16 26.12 24.73C26.11 24.84 26.06 24.95 26.05 25.03C26.1 25.56 25.75 26.04 25.5 26.53C25.44 26.75 25.07 26.97 24.81 27.23C24.62 27.23 24.43 27.26 24.31 27.3C24.2 27.3 24.08 27.3 24 27.33C23.46 27.77 22.9 27.65 22.35 28.1C22.15 28.21 22.26 27.91 22.09 28.02C21.96 28.13 21.87 28.24 21.84 28.24C21.69 28.24 21.62 28.16 21.47 28.12C21.39 28.19 21.22 28.34 21.13 28.42C20.62 28.63 20.59 28.59 20.48 28.25ZM18.01 12.06C17.54 12.17 17.41 12.32 17.17 12.8C17.36 12.8 17.58 12.88 17.81 12.89C18.03 12.93 18.06 13.04 18.11 13.23C17.75 13.37 17.41 13.37 17.06 13.74C17.52 13.67 17.87 13.6 18.27 13.49C18.56 12.97 18.8 12.48 19.1 11.88C18.66 12 18.39 12.03 18.01 12.06ZM22.61 11.08C22.38 11.11 22.18 11.19 22.15 11.41C22.26 11.41 22.34 11.45 22.38 11.41C23.02 11.16 23.54 10.9 24.14 10.68C24.41 10.65 24.64 10.65 24.9 10.65C24.9 10.61 24.99 10.54 24.99 10.5C24.68 10.53 24.4 10.64 24.13 10.68C23.63 10.83 23.12 10.94 22.61 11.08ZM23.02 11.84C22.79 11.87 22.55 11.95 22.31 12.06C22.53 12.13 22.8 12.1 23.02 11.84ZM25.5 11.73C25.12 11.69 24.69 11.79 24.18 11.94C23.9 12.05 23.63 12.12 23.32 12.12C23.05 12.12 22.82 12.19 22.57 12.37C23.52 12.35 24.49 12.21 25.66 11.93C25.6 11.84 25.57 11.8 25.5 11.73ZM25.4 12.33C25.14 12.29 24.93 12.1 24.43 12.5C24.85 12.43 25.06 12.58 25.4 12.33Z" fill="white"/>
<path d="M37.16 13.3C37.16 13.3 37.16 13.3 37.2 13.26C37.33 13.11 37.41 13.08 37.53 13C37.96 12.93 38.98 12.27 39.34 12.5C39.44 12.65 39.8 12.85 39.93 13C40.06 13.19 40.07 13.45 39.91 13.83C39.63 14.31 39.31 14.76 38.94 15.36C38.84 15.58 38.74 15.77 38.69 15.92C38.5 16.26 38.3 16.71 38.07 17.04C37.87 17.49 38.71 16.07 38.59 16.45C38.58 16.56 38.49 16.67 38.44 16.75C38.05 17.5 38.07 17.35 37.95 18.02C37.91 18.4 37.54 20.31 37.54 20.65C37.55 20.91 37.68 21.07 37.78 21.22C37.92 21.3 38.1 21.45 38.32 21.53C38.49 21.68 38.69 21.61 38.92 21.58C42.2 20.5 41.11 20.07 43.15 18.18C43.55 17.7 44.02 17.25 44.27 16.65C44.27 16.61 44.27 16.61 44.41 16.43C44.56 16.81 44.08 17.33 44.6 17.45C43.64 18.87 42.84 20.92 41.46 21.66C41.02 22.14 38.19 24.36 36.59 23.69C36.04 23.87 35.6 23.34 35.06 23.1C34.7 22.94 34.35 22.64 34.05 22.26C33.92 21.77 33.79 21.24 33.84 20.75C33.79 20.52 33.82 20.26 33.84 20.07C34.01 19.62 34.03 18.75 34.21 18.46C34.27 18.27 34.37 18.09 34.39 17.86C34.47 17.82 34.42 17.63 34.69 17.6C34.73 17.6 34.78 17.45 34.83 17.41C35.05 17.15 35.11 16.92 35.33 16.66C35.33 16.66 34.44 17.44 34.98 16.69C35.37 15.94 36.15 15.13 36.43 14.6C36.44 14.53 36.53 14.41 36.53 14.41C36.67 14.19 36.8 14.04 36.75 13.77C36.73 13.62 36.78 13.47 36.92 13.25C37.01 13.29 37.04 13.33 37.16 13.3ZM41.12 9.24999C41.03 9.35999 40.95 9.43999 40.89 9.57999C40.89 9.61999 40.88 9.68999 40.79 9.76999C40.66 9.87999 40.53 10.03 40.36 10.21C40.27 10.32 39.95 10.47 39.76 10.5C39.69 10.46 39.57 10.53 39.48 10.61C39.24 10.76 39.09 10.72 38.94 10.64C38.83 10.56 38.76 10.56 38.64 10.56C38.49 10.56 38.37 10.56 38.23 10.52C38.27 10.48 38.32 10.41 38.36 10.37C38.37 10.26 38.46 10.15 38.52 9.99999C38.62 9.80999 38.71 9.69999 38.84 9.51999C38.85 9.43999 38.97 9.36999 38.98 9.32999C39 9.10999 39.22 8.91999 39.36 8.69999C39.45 8.58999 39.54 8.47999 39.63 8.36999C39.71 8.29999 39.8 8.21999 39.87 8.21999C39.95 8.17999 40.03 8.18999 40.06 8.21999C40.05 8.29999 40.12 8.29999 40.2 8.25999C40.28 8.21999 40.32 8.18999 40.36 8.21999C40.5 8.29999 40.69 8.33999 40.84 8.37999C41.09 8.49999 41.26 8.68999 41.38 8.94999C41.25 9.06999 41.2 9.17999 41.12 9.24999Z" fill="white"/>
<path d="M55.88 18.0199C55.81 18.9599 56.15 18.6299 57.59 18.4199C58.05 18.3499 58.76 18.1699 59.52 17.5099C59.9 17.1799 60.27 17.5999 60.44 17.7899C60.42 17.9399 59.84 18.6799 59.76 18.7599C58.06 19.6799 57.22 19.6599 56.03 19.7899C55.05 19.9999 54.92 20.4899 54.5 21.2299L54.31 21.5299C54.14 21.9799 53.84 22.3099 53.61 22.6499C53.53 22.7199 53.44 22.8399 53.36 22.8699L52.93 23.3199C52.75 23.5799 52.49 23.8799 52.2 24.0599L51.9 24.3599L51.48 24.6899C51.36 24.7299 51.25 24.7199 51.14 24.6799C51.04 24.5999 50.9 24.4899 50.79 24.4499C50.76 24.3399 50.78 24.2199 50.79 24.1099C50.75 23.7699 50.67 23.4699 50.33 23.4299C50.19 23.3499 50.09 23.1999 49.99 23.0899C49.86 22.8599 49.76 22.7899 49.58 22.6699C49.26 22.4399 49.26 21.8399 49.62 21.3499C49.81 21.0099 50.02 20.8299 50.27 20.6799C50.52 20.4999 50.8 20.3499 51.08 20.2399C51.57 19.9499 51.99 19.9499 52.51 19.7399C52.79 19.5899 53.01 19.3299 53.21 18.9199C53.59 17.9499 54.05 16.5199 54.28 15.5099L54.42 14.2299C54.43 14.1599 54.44 14.0799 54.41 13.9999C54.39 13.8099 54.21 13.7299 54.08 13.8799C54 13.9199 53.96 13.9499 53.91 14.0599C53.6 14.4699 53.28 14.8799 53.04 15.3299C52.35 16.4099 51.68 17.5699 51 18.6099C50.49 19.3899 50.03 20.0999 49.6 20.9199C48.88 22.2599 47.43 23.5999 46.77 25.0499C46.63 25.3099 46.52 25.5699 46.28 25.7199C46.08 25.7899 45.97 26.0899 45.95 26.3199C45.92 26.5799 45.85 26.8799 45.75 27.1099C45.66 27.2599 45.56 27.4099 45.48 27.4799C45.22 27.7399 45.13 27.9199 44.99 28.1099C44.5 29.0399 44.09 29.9799 43.9 30.9899C43.81 31.4399 43.76 31.8899 43.59 32.3399C43.51 32.6799 43.33 32.9399 43.05 33.0499C42.85 33.1599 42.68 33.3099 42.53 33.6099C42.49 33.6499 42.36 33.7999 42.32 33.7899C42.21 33.7899 42.14 34.0499 42.05 34.1599H42.01C41.39 34.2599 41.06 33.8099 40.91 33.0899C40.76 32.3699 40.78 31.5799 40.82 30.8299C40.95 29.0199 41.26 27.2999 41.69 25.4999C41.85 24.7899 42.08 24.0399 42.27 23.3599C42.55 22.1999 42.95 21.0399 43.38 19.9499C43.98 18.2999 44.62 16.6899 45.3 15.1199C45.46 14.7499 45.65 14.4099 45.81 13.9599C46.39 12.8399 46.91 11.6399 47.5 10.4899C47.75 9.92994 48.13 9.29994 48.46 8.72994C48.67 8.57994 48.86 8.58994 49.03 8.73994L49.88 9.31994L49.91 9.35994C50.4 10.0499 50.65 10.8799 50.64 12.0099C50.65 12.5799 50.54 13.2099 50.32 13.8499C49.99 14.7499 49.61 15.7199 49.17 16.6499C48.87 17.2499 48.56 17.9999 48.26 18.6699C47.41 20.7699 48.66 20.5199 49 19.8899C49.15 19.5899 49.8 18.8499 49.96 18.4699L51.5 15.9299C51.75 15.4499 51.97 15.1099 52.32 14.7399C52.62 14.4399 52.93 14.0699 53.27 13.7799C53.52 13.5599 53.89 13.3799 54.15 13.3799L54.8 13.3899C55.15 13.3199 55.42 13.6299 55.69 13.8899C55.87 14.0099 55.98 14.3099 55.99 14.6099C55.99 14.9099 56.03 15.2499 56 15.5099V16.6299L55.88 18.0199ZM51.1 20.9199C50.86 21.0299 50.68 21.2899 50.63 21.7399C50.65 21.9299 50.74 22.0799 50.86 22.0799C50.94 22.0099 51.06 22.0099 51.14 21.9299C51.34 21.8199 51.55 21.6699 51.68 21.4899C52.16 20.9299 52.38 20.3299 52.24 20.5599C51.81 20.7399 51.47 20.6599 51.1 20.9199Z" fill="white"/>
<path d="M60.14 29.4499C59.99 29.4499 59.99 29.4499 59.62 29.6699C59.62 29.6699 59.63 29.5999 59.63 29.5599C59.56 29.5199 59.56 29.5199 59.53 29.4499C59.45 29.5199 59.33 29.5199 59.28 29.6299C59.07 29.7799 58.88 29.8099 58.64 29.8799C58.56 29.9199 58.56 29.9199 58.38 29.8399C58.43 29.7599 58.43 29.7299 58.48 29.6499C58.37 29.6499 58.28 29.7199 58.17 29.7199C58.12 29.7899 58.04 29.8299 57.97 29.8299C57.64 30.0099 57.5 29.9399 57.38 29.6299C57.33 29.3999 57.32 29.1799 57.18 29.0199C56.99 28.7199 56.99 28.3399 56.96 27.9299C56.98 27.7799 57.04 27.5199 57.14 27.3299C57.31 26.8399 57.58 26.4299 57.94 25.9899C58.65 25.1299 59.38 24.3899 60.17 23.7699C61.76 22.4799 61.58 22.0999 61.25 20.9599C61.12 20.0899 60.81 19.4499 60.51 18.7699C60.49 18.6199 60.39 18.4999 60.37 18.3499C60.08 17.8599 59.67 15.0999 59.75 14.4299C59.83 14.3599 59.8 14.2799 59.9 14.1299C59.89 13.8999 59.99 13.6799 60.17 13.4599C60.22 13.3499 60.36 13.1199 60.27 12.9399C60.4 12.7499 60.47 12.4899 60.61 12.2999C60.71 12.1099 60.8 11.9999 60.9 11.7799C60.99 11.6699 61.04 11.5599 61.17 11.4499C61.31 11.2299 61.45 10.9999 61.59 10.7799C61.78 10.4799 62.03 10.2599 62.21 9.99991C62.26 9.92991 62.29 9.92991 62.37 9.88991C62.49 9.81991 62.54 9.77991 62.63 9.62991C62.76 9.47991 62.85 9.40991 62.91 9.47991C63.16 9.59991 63.34 9.70991 63.54 9.93991C63.54 9.93991 63.58 9.93991 63.61 9.97991C63.93 10.1399 64.39 11.5299 64.37 12.0199C64.36 12.1299 64.34 12.2399 64.41 12.3199C64.38 12.5499 64.36 12.7699 64.26 12.9899C64.15 13.2899 64.03 13.6599 63.85 13.9599C63.76 14.1099 63.71 14.2199 63.55 14.2599C63.43 14.3299 63.3 14.4799 63.2 14.6299C63.15 14.7399 62.98 14.8499 63 15.0399C63 15.0399 62.99 15.1199 62.95 15.1499C62.81 15.3399 62.68 15.5599 62.58 15.7499C62.39 16.1199 62.31 16.7999 62.39 17.0999C62.45 17.2899 62.61 17.4799 62.71 17.5899C63.16 18.0099 63.41 19.4399 63.79 19.8599C63.96 20.0099 63.92 20.4299 64.05 20.5799C64.3 21.4099 65.63 20.4199 66.65 20.1699C67.27 19.7599 67.88 19.3599 68.5 18.9199C68.95 18.6299 69.41 18.2899 69.83 17.9599C70.12 17.7399 70.38 17.4799 70.64 17.2199C70.85 17.0399 71.07 16.8099 71.28 16.5899C71.34 16.7399 71.36 16.8499 71.39 16.9699C71.44 17.1999 71.45 17.4199 71.27 17.6499C71.22 17.7599 71.14 17.8399 71.12 17.9499C71.01 18.2099 70.87 18.4299 70.7 18.6599C70.48 18.8799 70.34 19.1799 70.12 19.3999C69.91 19.5499 69.74 19.6999 69.57 19.8399C69.28 20.0599 68.99 20.2799 68.7 20.4999C68.66 20.5399 68.57 20.6099 68.53 20.6499C68.09 20.8699 67.66 21.2399 67.21 21.5299C67.08 21.6399 66.92 21.7499 66.75 21.8599C65.93 22.4099 64.79 22.3999 64.67 23.4099C64.74 24.1599 64.75 24.0099 64.42 24.9099C64.44 25.0199 64.36 25.0999 64.39 25.2099C64.3 25.3199 64.34 25.3599 64.34 25.3599C64.16 25.5799 64.19 25.9999 64.09 26.2199C64.04 26.2899 63.96 26.3699 63.88 26.3999C63.84 26.4399 63.8 26.4399 63.76 26.4699C63.58 26.6899 63.37 26.9199 63.22 27.1799C62.98 27.5899 61.84 28.6299 61.5 28.9199C61.37 29.0699 61.28 29.1799 61.15 29.2899C60.97 29.5099 60.62 29.6199 60.38 29.7299C60.34 29.7699 60.3 29.7699 60.3 29.7999C60.04 30.0599 59.76 30.1699 59.53 30.1999C59.45 30.2399 59.45 30.2699 59.37 30.3099C59.62 30.0099 59.88 29.7499 60.14 29.4499ZM59.02 26.3099C58.78 26.3799 58.53 26.5999 58.39 26.8699C58.25 27.0899 58.12 27.2399 57.95 27.3499C57.78 27.4999 57.61 27.6499 57.51 27.8299C57.45 28.0499 57.43 28.2399 57.33 28.4299C57.23 28.6499 57.25 28.8099 57.35 28.9199C57.48 29.1099 57.62 29.2599 57.75 29.4499C57.86 29.5299 58 29.5699 58.17 29.4199C58.33 29.3099 58.46 29.1999 58.67 29.0499C58.84 28.8999 59.01 28.7199 59.18 28.5699C59.55 28.3099 59.85 28.0199 60.13 27.5699C60.21 27.4999 60.27 27.3799 60.31 27.3099C60.53 27.0099 60.72 26.6799 60.88 26.3399C61.11 26.0099 61.11 25.6299 61.31 25.2499C61.35 25.2499 61.36 25.1799 61.36 25.1399C61.5 23.9399 59.93 25.6399 59.43 26.0899C59.29 26.1999 59.17 26.2699 59.02 26.3099Z" fill="white"/>
<path d="M82.62 17.1401C82.59 17.3701 82.48 17.3601 82.5 17.5501C82.52 17.7001 81.98 18.7801 81.89 18.9301C81.59 19.5301 81.26 20.1201 80.96 20.7201C80.54 21.3901 80.13 21.9901 79.72 22.6201C79.54 22.8801 77.5 25.1101 77.29 25.2501C76.76 25.5801 75.81 26.5501 75.32 26.8401C75 27.0201 73.81 27.4201 73.54 27.4501C73.04 27.4801 72.51 27.5101 72.06 27.3901C71.27 27.2701 70.23 26.0801 69.93 25.3301C69.78 24.9901 69.58 24.6901 69.51 24.3101C69.41 23.8201 69.39 23.0301 69.41 22.4601C69.77 19.3001 70.2 18.8601 71.45 15.8301C71.56 15.5701 71.62 15.3401 71.72 15.0801C71.79 14.8201 71.93 14.5601 72.03 14.3301C72.19 13.9201 72.35 13.5101 72.51 13.1301C72.79 12.3101 73.94 10.8901 73.05 10.6901C72.79 10.6501 72.56 10.6801 72.35 10.4901C72.14 10.3401 71.92 10.2201 71.71 10.0701C71.64 9.99006 71.54 9.92006 71.52 9.73006C71.6 9.69006 71.68 9.66006 71.72 9.66006C72.27 9.56006 72.77 9.45006 73.32 9.35006C73.67 9.28006 74.05 9.25006 74.44 9.22006C74.6 9.19006 74.76 9.11006 74.85 8.92006C75 8.62006 75.22 8.36006 75.33 8.02006C75.79 7.31006 76.14 6.56006 76.64 5.89006C77.09 5.29006 77.53 4.77006 78.07 4.33006C78.16 4.22006 78.29 4.11006 78.37 4.03006C78.53 3.92006 78.69 3.85006 78.88 3.89006C79.1 3.97006 79.34 3.86006 79.61 3.86006C79.65 3.86006 79.65 3.86006 79.69 3.82006C80.23 3.72006 80.4 3.94006 80.5 4.36006C80.65 4.74006 80.68 5.12006 80.63 5.57006C80.6 5.80006 80.62 5.98006 80.64 6.17006C80.66 6.32006 80.64 6.51006 80.58 6.70006C80.52 6.89006 80.46 7.07006 80.4 7.30006C80.29 7.60006 80.18 7.90006 80.07 8.20006C80.06 8.31006 80.05 8.39006 80 8.50006C80.11 8.58006 80.22 8.58006 80.37 8.58006C80.83 8.55006 81.33 8.52006 81.79 8.49006C82.44 8.50006 83.12 8.51006 83.77 8.52006C84 8.52006 84.22 8.60006 84.48 8.64006C84.39 8.75006 84.34 8.83006 84.3 8.86006C84.22 8.93006 84.09 9.01006 84.01 9.04006C83.73 9.15006 83.41 9.29006 83.13 9.40006C83.13 9.44006 83.09 9.44006 83.09 9.44006C82.67 9.47006 82.19 9.65006 81.74 9.61006C81.47 9.61006 81.2 9.64006 80.93 9.71006C80.77 9.78006 80.58 9.78006 80.42 9.81006C80.11 9.84006 79.84 9.88006 79.53 9.91006C79.37 9.95006 79.29 10.0601 79.19 10.2101C79.15 10.2501 79.14 10.2801 79.1 10.3201C78.5 11.5901 77.76 12.7801 77.12 14.0201C77.03 14.1701 76.93 14.3201 76.88 14.4301C76.65 14.8001 76.46 15.1401 76.3 15.5501C76.15 15.8901 75.92 16.2201 75.7 16.5201C75.52 16.7801 75.52 17.1201 75.3 17.3801C74.78 18.3101 73.96 21.1601 73.87 22.5901C73.84 23.1901 73.93 23.7601 74.05 24.3201C74.1 24.5101 74.24 24.6201 74.34 24.7801C74.38 24.7801 74.41 24.8201 74.49 24.8201C74.83 24.8301 75.51 24.8701 75.88 24.6501C76.12 24.5001 77.37 23.6201 77.62 23.4301C78.25 22.8701 79.7 21.5001 80.17 20.7601C80.58 20.1301 80.87 19.3001 81.28 18.7101C81.47 18.3401 81.95 17.5201 82.18 17.1101C82.38 17.1801 82.67 17.0301 82.62 17.1401ZM77.36 11.4901C77.85 10.5601 78.04 9.81006 76.7 10.5801C76.14 11.8101 75.89 12.6801 75.42 13.8301C74.23 16.9401 75.71 14.6301 76.4 13.2401C76.75 12.5401 76.94 12.1701 77.36 11.4901ZM79.02 7.19006C79.07 7.04006 79.13 6.85006 79.19 6.67006C79.26 6.37006 79.37 6.07006 79.44 5.77006C79.52 5.43006 79.52 5.09006 79.52 4.76006C79.5 4.61006 79.39 4.57006 79.3 4.64006C79.14 4.75006 79.01 4.82006 78.92 5.01006C78.73 5.31006 78.54 5.64006 78.43 5.98006C78.38 6.09006 78.29 6.20006 78.24 6.32006C78.15 6.47006 78.05 6.62006 77.96 6.80006C77.84 7.17006 77.72 7.59006 77.56 8.00006C77.3 8.97006 78.36 9.03006 78.66 8.35006C78.78 7.98006 78.9 7.60006 79.02 7.19006Z" fill="white"/>
<path d="M86.06 17.3101C86.05 17.3801 85.97 17.4601 85.89 17.4901C85.85 17.5301 85.77 17.5601 85.75 17.6801C85.7 17.8301 85.65 17.8701 85.53 17.9001C85.45 17.9401 85.45 17.9701 85.38 18.2001C85.46 18.2001 85.49 18.2001 85.53 18.2401C85.53 18.2401 85.53 18.2401 85.53 18.2801C85.45 18.2801 85.38 18.2801 85.26 18.2801C85.31 18.1701 85.32 18.0601 85.33 17.9801C85.29 17.9801 85.25 17.9801 85.25 17.9801C85.18 18.2401 85.11 18.5001 85.05 18.7701C85.12 18.8101 85.16 18.8501 85.19 18.8501C85.2 19.1101 85.17 19.3401 85.14 19.6001C85.11 19.8601 85.16 20.0901 85.22 20.2801C85.32 20.4301 85.53 21.2601 85.62 21.4201C86.09 21.9501 86.66 22.6401 87.26 22.6901C87.45 22.7301 88.57 22.5601 88.76 22.5301C89.7 22.2801 90.63 21.8001 91.54 21.1801C92.24 20.7001 92.91 20.1501 93.62 19.6301C93.66 19.5901 93.7 19.5601 93.75 19.5201C94.01 19.2601 94.26 19.0401 94.52 18.7801C94.98 18.3701 95.41 17.9701 95.81 17.4801C95.94 17.2901 96.08 17.1101 96.32 17.0301C96.21 17.3701 96.1 17.6701 95.91 17.9701C95.86 18.0801 95.77 18.1901 95.69 18.2701C95.43 18.5301 95.22 18.7501 95.03 19.0501C94.9 19.2001 94.73 19.3501 94.6 19.4901C94.56 19.5301 94.51 19.6001 94.42 19.7101C94.54 19.6801 94.62 19.6401 94.74 19.6001C94.68 19.8201 94.48 19.8601 94.42 20.0501C94.45 20.0901 94.45 20.1301 94.52 20.1601C94.38 20.3501 94.26 20.4601 94.09 20.6001C93.84 20.7801 93.59 21.0101 93.37 21.2301C92.99 21.6001 92.57 21.9001 92.16 22.1901C91.95 22.3401 91.78 22.4901 91.58 22.6001C91.42 22.7101 91.25 22.7801 91.09 22.8901C90.85 23.0001 90.61 23.1101 90.36 23.2601C89.95 23.4801 89.52 23.6601 89.09 23.7301C88.97 23.7701 88.85 23.8001 88.73 23.8401C88.26 23.9801 87.79 24.0501 87.33 24.0801C86.79 24.1501 84.59 23.7001 84.12 23.5001C82.85 22.9501 82.66 22.3101 82.11 21.7801C81.9 21.5901 81.75 21.2901 81.67 20.9801C81.54 20.4901 81.56 19.9601 81.58 19.4001C81.71 18.2301 82.14 17.1101 82.76 16.0701C82.9 15.8501 82.9 15.8501 82.9 15.5101C82.7 15.6201 82.57 15.6901 82.47 15.9201C82.32 16.2601 82.13 16.5601 81.9 16.8901C81.94 16.5501 82.12 16.3301 82.26 16.0701C82.64 15.4001 83.05 14.7701 83.54 14.1701C84.03 13.5401 84.55 12.9801 85.14 12.4601C85.74 11.9001 86.36 11.4301 87.01 11.0601C87.17 10.9901 87.29 10.9501 87.41 10.8801C87.61 10.8101 87.8 10.7701 87.89 10.9601C87.99 11.0701 88.15 11.0401 88.22 11.1201C88.32 11.2001 88.35 11.3501 88.41 11.4201C88.77 11.6101 90.17 12.0101 90.49 12.2401C90.6 12.3201 90.65 12.4701 90.71 12.6201C90.86 12.9601 90.97 13.3401 91.21 13.5701C91.28 13.6501 91.3 13.8001 91.32 13.9101C91.34 14.3601 91.34 14.7801 91.17 15.2601C91.03 15.7801 90.75 16.2701 90.43 16.7201C90.25 16.9801 90.07 17.2001 89.92 17.5001C89.81 17.7601 89.64 17.9801 89.46 18.2501C89.27 18.5501 88.99 18.7301 88.71 18.8001C88.47 18.9101 88.2 18.9401 87.98 18.9001C87.87 18.8601 87.75 18.9001 87.69 18.7501C87.69 18.7101 87.66 18.7101 87.66 18.7101C87.35 18.7401 87.2 18.4001 86.99 18.2901C86.96 18.2501 86.93 18.1401 86.93 18.1001C87.02 17.9501 86.96 17.8801 86.93 17.7601C86.81 17.4601 86.7 17.1201 86.54 16.8101C86.51 16.7001 86.4 16.6601 86.28 16.7701C86.26 16.9401 86.09 17.0801 86.06 17.3101ZM82.07 20.6401C82.1 20.7501 82.12 20.8301 82.15 20.9401C82.14 21.0501 82.24 21.1301 82.15 21.2801C82.12 21.2401 82.08 21.2401 82.08 21.2001C81.93 20.8201 81.91 20.3301 81.89 19.8401C81.86 19.8001 81.9 19.7601 81.9 19.7301C81.96 19.1701 82.02 18.6401 82.24 18.0801C82.29 17.9701 82.34 17.8601 82.35 17.7401C82.36 17.6601 82.36 17.6301 82.38 17.4801C82.24 17.7001 82.15 17.8501 82.09 18.0001C82.03 18.1901 81.98 18.3401 81.92 18.5201C81.66 19.4901 81.59 20.4001 81.92 21.1901C81.98 21.3401 82.08 21.4601 82.18 21.6101C82.25 21.6901 82.32 21.7301 82.43 21.7701C82.43 21.8101 82.47 21.7701 82.54 21.7701C82.45 21.5801 82.35 21.4301 82.3 21.2401C82.21 21.0101 82.24 20.7901 82.14 20.6001C82.11 20.6001 82.07 20.6401 82.07 20.6401ZM82.34 18.2301C82.08 18.8301 82.06 19.3901 82.07 19.9601C82.07 20.0001 82.1 20.0001 82.14 20.0401C82.22 19.6301 82.31 19.2501 82.39 18.8801C82.46 18.6201 82.53 18.3601 82.44 18.1301C82.39 18.1601 82.35 18.1901 82.34 18.2301ZM84.93 19.2101C84.93 19.2501 84.93 19.2501 84.92 19.2801C84.93 19.2501 84.93 19.2501 84.93 19.2101ZM87.47 15.3001C87.38 15.4101 87.25 15.5601 87.16 15.7101C86.98 15.9701 86.99 16.1601 87.17 16.2701C87.28 16.3501 87.42 16.4201 87.48 16.5401C87.68 16.8101 87.99 16.7701 88.29 16.7401C88.56 16.6701 88.78 16.4101 88.97 16.1501C89.31 15.5101 89.47 15.4001 89.77 14.7701C90.54 13.3501 89.29 13.6701 88.67 14.1101C88.22 14.4101 87.86 14.8901 87.47 15.3001Z" fill="white"/>
<path d="M100.4 18.73C100.62 18.17 102.25 15.52 102.56 15.07C102.83 14.74 103.09 14.4 103.33 14.03C103.59 13.73 103.86 13.4 104.04 13.1C104.22 12.84 104.47 12.69 104.7 12.66C104.97 12.66 105.2 12.63 105.43 12.63C105.89 12.64 106.11 12.98 106.29 13.47C106.29 13.51 106.28 13.54 106.27 13.62C106.29 14.11 106.35 14.64 106.36 15.17C106.38 15.66 106.28 16.18 106.23 16.67C106.19 17.01 106.19 17.35 106.12 17.68C106.3 17.8 106.24 17.95 106.28 17.91C106.36 17.84 106.62 17.95 106.7 17.88C106.75 17.81 106.83 17.77 106.87 17.69C107.03 17.58 107.2 17.47 107.37 17.28C107.51 17.09 107.62 17.1 107.75 17.29C107.74 17.4 107.69 17.51 107.56 17.59C107.52 17.63 107.47 17.7 107.42 17.78C107.37 17.89 107.28 18 107.16 18.04C107.12 18.08 107.08 18.11 107.03 18.15C106.99 18.19 106.91 18.22 106.9 18.26C106.86 18.3 106.82 18.3 106.78 18.33C106.61 18.48 106.49 18.51 106.34 18.51C106.3 18.51 106.15 18.54 105.98 18.65C105.86 18.72 105.74 18.72 105.68 18.64C105.43 18.49 105.17 18.44 104.92 18.33C104.48 18.21 104.18 17.79 104.05 17.26C103.9 16.58 103.98 15.83 104.18 15.12C104.29 14.78 104.33 14.48 104.4 14.18C104.46 13.96 104.53 13.73 104.59 13.51C104.68 13.36 104.7 13.25 104.67 13.1C104.63 13.1 104.56 13.06 104.55 13.14C104.51 13.18 104.42 13.25 104.38 13.32C104.19 13.62 103.97 13.92 103.74 14.25C103.6 14.44 103.5 14.66 103.44 14.92C103.46 15.07 103.33 15.18 103.28 15.29C102.87 15.92 102.49 16.52 102.19 17.23C101.94 17.75 101.62 18.2 101.34 18.72C100.91 19.5 100.41 20.21 100.05 21.03C99.94 21.29 99.76 21.59 99.61 21.89C99.51 22.11 98.35 23.9 98.11 24.09C98.1 24.16 97.98 24.2 97.9 24.27C97.37 24.9 96.84 24.86 96.25 24.7C96.16 24.77 96.1 24.7 96.03 24.62C95.44 24.46 95.2 23.89 95.13 23.14C95.09 22.5 95.17 21.82 95.24 21.18C95.39 20.2 95.54 19.23 95.72 18.25C96.03 17.16 95.87 17.24 96.29 16.23C96.72 14.77 96.54 14.99 97.24 13.53C97.31 13.27 97.48 13.08 97.59 12.82C97.93 12.15 98.23 11.55 98.6 10.95C98.81 10.46 98.97 10.39 99.34 10.47C99.61 10.47 99.94 10.55 100.27 10.63C100.49 10.67 100.71 10.75 100.99 11.02C101.2 11.51 101.54 11.86 101.87 12.31C102.14 12.92 102.17 13.37 101.86 14.08C101.59 14.83 101.57 14.26 101.29 15.05C100.62 16.62 99.57 17.85 98.99 19.27C98.23 21.11 100.17 19.37 100.4 18.73Z" fill="white"/>
<path d="M28.6 37.2C29.12 37.2 29.54 37.35 29.87 37.65C30.2 37.95 30.37 38.34 30.37 38.82C30.37 39.3 30.2 39.69 29.87 39.99C29.54 40.29 29.11 40.4399 28.6 40.4399H27.46V37.2H28.6ZM28.25 39.84H28.6C28.9 39.84 29.14 39.75 29.31 39.56C29.48 39.38 29.57 39.13 29.57 38.82C29.57 38.51 29.48 38.26 29.31 38.08C29.14 37.9 28.9 37.7999 28.6 37.7999H28.25V39.84Z" fill="white"/>
<path d="M34.93 37.1899V37.7899H33.76V38.4899H34.79V39.0899H33.76V39.8399H34.93V40.4399H32.97V37.1999H34.93V37.1899Z" fill="white"/>
<path d="M38.82 37.7799C38.72 37.7799 38.64 37.8099 38.58 37.8599C38.52 37.9099 38.49 37.9899 38.49 38.0899C38.49 38.1899 38.52 38.2699 38.58 38.3299C38.64 38.3899 38.71 38.4399 38.81 38.4699C38.9 38.4999 39.01 38.5299 39.12 38.5599C39.24 38.5899 39.35 38.6299 39.46 38.6699C39.57 38.7099 39.68 38.7599 39.77 38.8199C39.86 38.8799 39.94 38.9699 40 39.0799C40.06 39.1899 40.09 39.3299 40.09 39.4799C40.09 39.7499 39.98 39.9899 39.76 40.1799C39.54 40.3799 39.24 40.4699 38.88 40.4699C38.52 40.4699 38.22 40.3799 38 40.2099C37.78 40.0299 37.67 39.7899 37.67 39.4599H38.51C38.53 39.7199 38.66 39.8499 38.91 39.8499C39.02 39.8499 39.11 39.8199 39.18 39.7599C39.24 39.6999 39.28 39.6199 39.28 39.5299C39.28 39.4399 39.25 39.3599 39.19 39.2999C39.13 39.2399 39.06 39.1999 38.96 39.1599C38.87 39.1299 38.76 39.0899 38.65 39.0699C38.53 39.0399 38.42 38.9999 38.31 38.9599C38.2 38.9199 38.09 38.8699 38 38.8099C37.91 38.7499 37.83 38.6599 37.77 38.5499C37.71 38.4399 37.68 38.3099 37.68 38.1499C37.68 37.8499 37.79 37.6099 38.02 37.4299C38.24 37.2499 38.53 37.1599 38.88 37.1599C39.23 37.1599 39.51 37.2399 39.73 37.3999C39.94 37.5599 40.06 37.8099 40.07 38.1499H39.21C39.2 38.0299 39.16 37.9399 39.1 37.8799C39 37.8099 38.92 37.7799 38.82 37.7799Z" fill="white"/>
<path d="M42.82 40.4399V37.2H43.61V40.4399H42.82Z" fill="white"/>
<path d="M46.7 39.9999C46.38 39.6899 46.22 39.2899 46.22 38.8099C46.22 38.3299 46.38 37.9399 46.7 37.6199C47.02 37.3099 47.41 37.1499 47.88 37.1499C48.24 37.1499 48.56 37.2499 48.84 37.4399C49.12 37.6299 49.31 37.8899 49.43 38.2299H48.49C48.37 37.9899 48.17 37.8799 47.9 37.8799C47.63 37.8799 47.42 37.9599 47.26 38.1299C47.1 38.2999 47.03 38.5299 47.03 38.8099C47.03 39.0899 47.11 39.3199 47.26 39.4899C47.42 39.6599 47.62 39.7399 47.88 39.7399C48.07 39.7399 48.22 39.6899 48.34 39.5999C48.46 39.5099 48.54 39.3799 48.58 39.2199H47.67V38.6199H49.43V39.2199C49.37 39.5099 49.21 39.7899 48.95 40.0499C48.82 40.1699 48.67 40.2699 48.48 40.3499C48.29 40.4299 48.1 40.4699 47.89 40.4699C47.41 40.4699 47.02 40.3099 46.7 39.9999Z" fill="white"/>
<path d="M54.15 37.1899H54.94V40.4299H54.15L52.83 38.3899V40.4299H52.04V37.1899H52.83L54.15 39.2299V37.1899Z" fill="white"/>
<path d="M62.33 37.7799C62.23 37.7799 62.15 37.8099 62.09 37.8599C62.03 37.9099 62 37.9899 62 38.0899C62 38.1899 62.03 38.2699 62.09 38.3299C62.15 38.3899 62.22 38.4399 62.32 38.4699C62.41 38.4999 62.52 38.5299 62.63 38.5599C62.75 38.5899 62.86 38.6299 62.97 38.6699C63.08 38.7099 63.19 38.7599 63.28 38.8199C63.37 38.8799 63.45 38.9699 63.51 39.0799C63.57 39.1899 63.6 39.3299 63.6 39.4799C63.6 39.7499 63.49 39.9899 63.27 40.1799C63.05 40.3799 62.75 40.4699 62.39 40.4699C62.03 40.4699 61.73 40.3799 61.51 40.2099C61.29 40.0299 61.18 39.7899 61.18 39.4599H62C62.02 39.7199 62.15 39.8499 62.4 39.8499C62.51 39.8499 62.6 39.8199 62.67 39.7599C62.73 39.6999 62.77 39.6199 62.77 39.5299C62.77 39.4399 62.74 39.3599 62.68 39.2999C62.62 39.2399 62.55 39.1999 62.45 39.1599C62.36 39.1299 62.25 39.0899 62.14 39.0699C62.02 39.0399 61.91 38.9999 61.8 38.9599C61.69 38.9199 61.58 38.8699 61.49 38.8099C61.4 38.7499 61.32 38.6599 61.26 38.5499C61.2 38.4399 61.17 38.3099 61.17 38.1499C61.17 37.8499 61.28 37.6099 61.51 37.4299C61.73 37.2499 62.02 37.1599 62.37 37.1599C62.72 37.1599 63 37.2399 63.22 37.3999C63.43 37.5599 63.55 37.8099 63.56 38.1499H62.7C62.69 38.0299 62.65 37.9399 62.59 37.8799C62.51 37.8099 62.43 37.7799 62.33 37.7799Z" fill="white"/>
<path d="M66.1 37.7999V37.2H68.65V37.7999H67.77V40.4399H66.98V37.7999H66.1Z" fill="white"/>
<path d="M71.22 39.13V37.2H72.01V39.13C72.01 39.32 72.06 39.47 72.15 39.58C72.25 39.68 72.39 39.74 72.57 39.74C72.75 39.74 72.9 39.69 72.99 39.58C73.09 39.48 73.14 39.33 73.14 39.13V37.2H73.93V39.13C73.93 39.42 73.86 39.6599 73.73 39.8699C73.6 40.0799 73.43 40.23 73.22 40.32C73.02 40.42 72.79 40.4599 72.55 40.4599C72.17 40.4599 71.86 40.34 71.6 40.11C71.35 39.89 71.22 39.56 71.22 39.13Z" fill="white"/>
<path d="M77.86 37.2C78.38 37.2 78.8 37.35 79.13 37.65C79.46 37.95 79.63 38.34 79.63 38.82C79.63 39.3 79.46 39.69 79.13 39.99C78.8 40.29 78.37 40.4399 77.86 40.4399H76.72V37.2H77.86ZM77.51 39.84H77.86C78.16 39.84 78.4 39.75 78.57 39.56C78.74 39.38 78.83 39.13 78.83 38.82C78.83 38.51 78.74 38.26 78.57 38.08C78.4 37.9 78.16 37.7999 77.86 37.7999H77.51V39.84Z" fill="white"/>
<path d="M82.24 40.4399V37.2H83.03V40.4399H82.24Z" fill="white"/>
<path d="M86.12 39.9999C85.8 39.6899 85.64 39.2899 85.64 38.8099C85.64 38.3299 85.8 37.9399 86.12 37.6199C86.44 37.3099 86.83 37.1499 87.3 37.1499C87.77 37.1499 88.16 37.3099 88.48 37.6199C88.8 37.9299 88.96 38.3299 88.96 38.8099C88.96 39.2899 88.8 39.6899 88.48 39.9999C88.16 40.3099 87.77 40.4699 87.3 40.4699C86.83 40.4699 86.44 40.3099 86.12 39.9999ZM87.92 39.4899C88.08 39.3199 88.15 39.0899 88.15 38.8099C88.15 38.5299 88.07 38.2999 87.92 38.1299C87.76 37.9599 87.56 37.8799 87.3 37.8799C87.04 37.8799 86.83 37.9599 86.68 38.1299C86.52 38.2999 86.45 38.5299 86.45 38.8099C86.45 39.0899 86.53 39.3199 86.68 39.4899C86.84 39.6599 87.04 39.7399 87.3 39.7399C87.55 39.7399 87.76 39.6599 87.92 39.4899Z" fill="white"/>
</g>
<defs>
<clipPath id="clip0_2_1038">
<rect width="121.78" height="40.47" fill="white"/>
</clipPath>
</defs>
</svg>
