<svg width="96" height="50" viewBox="0 0 96 50" fill="none" xmlns="http://www.w3.org/2000/svg">
<g clip-path="url(#clip0_2_1222)">
<path d="M1.33 17.3199V4.6299C1.33 2.5999 1.47 1.6999 0 1.6999V1.3999H9.53V1.6999C8.1 1.6999 8.16 2.2299 8.16 4.6299V17.5499C8.16 21.4799 10.23 23.1499 13.39 23.1499C16.95 23.1499 18.75 20.6799 18.75 17.5499V8.8899C18.75 6.1599 17.88 1.6999 14.72 1.6999V1.3999H23.45L23.48 1.6999C19.75 1.6999 19.05 6.1599 19.05 8.8899V17.5499C19.05 21.9499 16.12 25.1399 10.26 25.1399C5.73 25.1499 1.33 22.7499 1.33 17.3199Z" fill="white"/>
<path d="M38.43 14.3199C37.3 15.6199 35.37 15.7499 34.03 14.6499C33.4 14.0499 32.96 13.3499 32.96 12.5799C32.96 12.1499 31.89 12.3799 30.53 14.4499V21.0799C30.53 22.9099 30.7 24.2399 31.9 24.5799V24.8499H23.57V24.5799C24.84 24.2099 24.87 22.7799 24.87 21.0799V12.9499C24.87 11.7799 24.47 11.3199 23.1 10.8199V10.5499L30.53 9.1499V13.8099C32.89 10.2499 33.89 9.8499 34.89 9.3799C35.82 8.9499 37.22 9.1499 38.09 9.9099C39.4 11.0599 39.57 13.0599 38.43 14.3199Z" fill="white"/>
<path d="M58.88 16.89C58.88 23.48 54.48 25.15 50.22 25.15C47.59 25.15 46.02 24.52 45.12 23.68C44.05 24.38 40.49 25.21 40.49 24.68V3.8C40.49 2.67 40.16 2.17 38.79 1.67V1.4L46.13 0V11.69C47.1 10.02 48.76 9.16 51.86 9.16C56.45 9.16 58.88 12.76 58.88 16.89ZM52.19 17.35C52.19 13.45 51.26 10.16 48.86 10.16C46.63 10.16 46.13 12.89 46.13 15.46V18.99C46.13 22.79 46.9 24.85 48.89 24.85C50.76 24.85 52.19 22.68 52.19 17.35Z" fill="white"/>
<path d="M77.33 22.72C76.86 24.19 75.13 25.15 73.03 25.15C73.03 25.15 69.33 25.15 69.03 22.15C68.6 23.88 66.9 25.15 64.53 25.15C63.26 25.15 60.37 24.58 60.37 21.75C60.37 18.42 63.07 17.79 69 16.39V14.26C69 10.8 67.04 8.93002 64.74 10.13C64.74 10.13 64.01 10.56 65.14 10.96C65.71 11.16 66.07 11.63 66.34 12.23C66.84 13.46 66.27 14.79 65.04 15.33C63.84 15.8 62.48 15.23 61.98 14.03C61.65 13.16 61.81 12.16 62.38 11.57C62.78 11.14 63.38 10.54 64.61 9.87002C66.11 9.07002 67.74 9.17002 67.74 9.17002C72.1 9.17002 74.53 11.9 74.53 15.83V20.79C74.53 20.79 74.53 23.19 76.13 23.12C76.13 23.12 76.96 23.12 77.13 22.55L77.33 22.72ZM69.01 16.72C66.28 17.32 66.31 19.35 66.31 20.92C66.31 20.92 66.28 23.12 67.61 23.12C68.18 23.12 68.64 22.65 69.01 21.85V16.72Z" fill="white"/>
<path d="M95.42 24.5799V24.8499H87.09V24.5799C88.36 24.2099 88.42 22.7499 88.42 21.0499V14.3599C88.42 12.4599 87.72 11.5599 86.12 11.5599C85.39 11.5599 84.62 12.1599 84.16 12.8599V21.0899C84.16 22.9199 84.33 24.2499 85.53 24.5899V24.8599H77.2V24.5899C78.47 24.2199 78.5 22.8199 78.5 21.0899V12.9599C78.5 11.7899 78.13 11.3299 76.77 10.8299V10.5599L84.16 9.15991V12.3899C85.03 10.6299 86.79 9.15991 88.59 9.15991C91.25 9.15991 94.05 10.2299 94.05 14.2199V21.0499C94.05 22.8799 94.25 24.2799 95.42 24.5799Z" fill="white"/>
<path d="M15.81 46.6801C16 47.0601 16.34 47.1101 16.66 47.1801C16.42 46.8101 16.16 46.6501 15.81 46.6801Z" fill="#D8A788"/>
<path d="M79.45 31.76C79.37 31.77 79.28 31.77 79.18 31.78C79.27 31.79 79.36 31.79 79.45 31.76Z" fill="#D8A788"/>
<path d="M79 32.0599L78.95 32.5499C78.45 32.7099 78.84 32.2599 78.35 32.2799C78.33 31.8799 78.78 31.8099 79.18 31.7799C78.83 31.7199 78.48 31.4299 78.32 31.8599C77.99 31.6899 78.37 31.3699 77.97 31.1899C77.68 31.2999 77.29 31.6799 76.97 31.4399L76.98 31.3699C76.19 30.9399 75.74 31.9499 75.02 31.5199L75.1 31.3899C74.85 31.1499 74.33 31.4499 73.87 31.1899C74 31.2699 74.11 31.5699 73.83 31.6099C73.3 31.3499 72.93 31.5899 72.54 31.2699L72.15 31.6499C70.29 31.5299 62.9 31.8999 61.02 31.9199L61.1 31.8599C58.24 31.9899 52.37 31.8099 49.41 32.2799C48.96 31.8799 48.33 31.9599 47.86 31.8399C48.12 32.0099 48.02 32.2799 47.82 32.2599C46.37 32.1799 47.72 32.5199 46.24 32.6499C44.54 32.9699 38.08 32.3999 36.59 32.0399C35.77 32.5899 34.77 32.1299 33.98 32.4699L34.06 32.3399C33.21 32.5299 28.42 31.8899 27.43 32.0699L27.56 32.1499C26.69 32.4799 26.82 31.8599 26.15 31.6499C26.22 32.2899 25.48 32.6299 25.2 32.6699L25.21 32.5299C24.78 32.6299 23.81 33.1599 23.11 33.2199L23.15 32.8699C22.56 33.2299 21.46 33.0499 21.04 33.0699C20.08 32.8999 18.62 32.2599 17.33 32.6899L16.53 31.6799L16.41 31.7799C16.41 31.7799 14.78 43.7399 16.41 46.3299L16.37 46.6799L16.71 46.6399C17.11 46.8199 17.3 46.4199 17.27 46.7699L16.72 46.7099C17.12 46.8199 16.83 46.9999 16.68 47.1899C16.85 47.2299 17.01 47.2699 17.14 47.3799C17.22 47.2499 17.08 47.2299 17.02 47.1599C17.24 47.0399 17.55 46.7199 17.81 46.8899C18.22 46.9299 17.82 47.4499 18.3 47.4999C20.84 47.8299 23.29 48.2899 25.87 48.2799C25.92 48.4299 25.86 48.4199 25.78 48.4799C26.56 48.3499 27.25 48.4199 27.95 48.2799C28.14 48.4399 28.19 48.6599 28.24 48.7999C28.13 48.5099 32.14 48.5799 32.2 48.6599L32.26 48.0299C33.02 48.0399 32.46 48.7499 33.17 48.6199C33.47 47.7399 34.34 48.7399 34.59 48.2699C34.58 48.3399 34.93 48.3799 34.9 48.6499C35.02 48.1699 35.26 48.5499 35.48 48.4299C35.56 48.2999 35.43 48.2799 35.37 48.1399L35.87 47.9799C36.06 48.1399 36.1 48.4199 35.89 48.4699C37.19 48.6699 43.44 49.2899 44.85 49.0799C44.68 48.7099 44.24 48.9499 44.09 48.3699C44.47 48.0599 44.63 48.4999 44.81 48.1599C44.93 49.0099 45.62 48.3799 45.88 49.2499L46 48.7699L46.18 49.0699C47.83 48.6099 46.56 48.8299 48 48.9799C48.84 48.9299 49.25 48.2699 49.71 48.5199C49.64 48.5099 49.46 48.2099 49.68 48.0999C49.71 48.5199 50.27 47.8099 50.36 48.2399C50.57 48.1899 51.26 48.2599 51.04 47.6799C51.15 47.9699 51.76 48.1099 51.39 48.3499C51.6 48.3699 51.8 48.4599 51.95 48.3399L51.69 48.1699C52.39 48.0999 52.76 48.5599 53.23 48.0499L52.98 47.8099C53.4 47.7799 53.75 47.7499 53.9 48.3299L53.47 48.4999C54.16 48.4999 54.58 48.4699 55.17 48.1799L54.96 48.1599C55.71 47.6099 59.58 47.2299 60.27 46.5299L59.97 46.0799L60.56 45.7199C60.49 45.7099 60.24 47.1599 60.19 47.0099C61.44 46.9999 67.96 46.8099 69.11 47.1399C69.57 47.3999 69.18 47.8499 69.17 47.9199C69.74 47.7699 69.43 47.4499 69.91 47.4999C70.04 47.5799 69.87 47.8499 69.8 47.9099C70.01 47.8599 70.21 48.0199 70.23 47.8099C69.97 47.6399 70.09 47.0899 69.99 46.7299L70.61 46.7899L70.57 47.1399C70.71 47.1499 70.94 46.1999 71.55 46.3999C72.57 46.5799 73.7 46.4799 74.73 46.5899C74.71 46.7999 74.49 46.9199 74.27 47.0299C74.41 47.0399 74.62 46.9999 74.75 47.1499C74.51 46.7699 75.19 46.9099 75 46.7499C75.78 45.9199 76.74 46.7199 77.42 46.1599C77.5 45.3999 79.17 33.0399 79.2 32.1299C79.41 32.1499 79.61 32.1699 79.68 32.2499C79.63 32.0599 79.22 31.9399 79 32.0599Z" fill="#D8A788"/>
<path d="M27.64 36.9499V37.9199H25.74V39.0499H27.42V40.0199H25.74V41.2399H27.64V42.2099H24.46V36.9399H27.64V36.9499Z" fill="white"/>
<path d="M35.5001 42.22L35.2101 41.34H33.3301L33.0401 42.22H31.6801L33.5001 36.95H35.0601L36.8801 42.22H35.5001ZM33.6401 40.3699H34.8801L34.2601 38.5L33.6401 40.3699Z" fill="white"/>
<path d="M40.56 37.94V36.97H44.7V37.94H43.26V42.22H41.98V37.94H40.56Z" fill="white"/>
<path d="M52.07 36.9499V37.9199H50.17V39.0499H51.85V40.0199H50.17V41.2399H52.07V42.2099H48.89V36.9399H52.07V36.9499Z" fill="white"/>
<path d="M57.88 40.18V42.22H56.6V36.97H58.67C59.28 36.97 59.75 37.13 60.09 37.44C60.43 37.75 60.6 38.13 60.6 38.58C60.6 38.88 60.51 39.18 60.32 39.47C60.14 39.76 59.83 39.96 59.41 40.08L60.7 42.22H59.2L58.02 40.18H57.88ZM57.88 37.94V39.2H58.67C58.86 39.2 59.02 39.14 59.13 39.03C59.24 38.92 59.3 38.77 59.3 38.58C59.3 38.39 59.24 38.24 59.13 38.12C59.02 38 58.86 37.94 58.67 37.94H57.88Z" fill="white"/>
<path d="M67.67 42.22H66.39V40.53L64.57 36.97H66.02L67.03 39.34L68.03 36.97H69.48L67.66 40.53V42.22H67.67Z" fill="white"/>
</g>
<defs>
<clipPath id="clip0_2_1222">
<rect width="95.42" height="49.27" fill="white"/>
</clipPath>
</defs>
</svg>
