<svg width="97" height="38" viewBox="0 0 97 38" fill="none" xmlns="http://www.w3.org/2000/svg">
<g clip-path="url(#clip0_2_1258)">
<path d="M0 25.0201V2.87012H5.39V25.0201H0Z" fill="white"/>
<path d="M10.96 22.78C9.32999 21.14 8.51999 18.95 8.51999 16.22C8.51999 13.49 9.32999 11.3 10.96 9.66998C12.59 8.03998 14.7 7.22998 17.29 7.22998C19.43 7.22998 21.25 7.75998 22.75 8.81998C24.24 9.87998 25.23 11.4 25.72 13.38H19.88C19.38 12.33 18.55 11.8 17.4 11.8C16.25 11.8 15.4 12.21 14.84 13.01C14.28 13.82 14 14.89 14 16.21C14 17.54 14.28 18.6 14.84 19.41C15.4 20.22 16.21 20.62 17.28 20.62C17.95 20.62 18.48 20.5 18.86 20.27C19.24 20.04 19.57 19.63 19.87 19.04H25.71C25.23 20.93 24.23 22.44 22.71 23.55C21.2 24.67 19.39 25.22 17.28 25.22C14.7 25.24 12.59 24.42 10.96 22.78Z" fill="white"/>
<path d="M29.83 22.74C28.05 21.08 27.16 18.89 27.16 16.18C27.16 13.47 28.04 11.3 29.81 9.66998C31.58 8.03998 33.76 7.22998 36.37 7.22998C38.98 7.22998 41.16 8.03998 42.92 9.66998C44.68 11.3 45.55 13.47 45.55 16.18C45.55 18.89 44.68 21.08 42.93 22.74C41.18 24.4 39.01 25.23 36.4 25.23C33.8 25.24 31.6 24.41 29.83 22.74ZM38.99 19.5C39.7 18.74 40.06 17.65 40.06 16.22C40.06 14.79 39.69 13.7 38.96 12.96C38.22 12.21 37.35 11.84 36.34 11.84C35.33 11.84 34.46 12.21 33.74 12.96C33.01 13.71 32.65 14.8 32.65 16.22C32.65 17.65 33.02 18.74 33.77 19.5C34.52 20.26 35.39 20.64 36.4 20.64C37.41 20.63 38.28 20.25 38.99 19.5Z" fill="white"/>
<path d="M54.1 7.40997V9.99997C55.21 8.14997 56.99 7.21997 59.43 7.21997C61.45 7.21997 63.08 7.88997 64.34 9.23997C65.59 10.59 66.22 12.42 66.22 14.73V25.01H60.86V15.45C60.86 14.31 60.56 13.44 59.96 12.82C59.36 12.2 58.53 11.89 57.48 11.89C56.43 11.89 55.6 12.2 55 12.82C54.4 13.44 54.1 14.32 54.1 15.45V25.01H48.71V7.40997H54.1Z" fill="white"/>
<path d="M75.39 5.43C74.78 6.04 74.03 6.34 73.15 6.34C72.27 6.34 71.52 6.04 70.91 5.43C70.3 4.82 70 4.06 70 3.17C70 2.28 70.3 1.52 70.91 0.91C71.52 0.31 72.27 0 73.15 0C74.03 0 74.78 0.31 75.39 0.91C76 1.52 76.31 2.27 76.31 3.17C76.31 4.06 76 4.82 75.39 5.43ZM70.47 25.02V7.41H75.86V25.01H70.47V25.02Z" fill="white"/>
<path d="M81.44 22.78C79.81 21.14 79 18.95 79 16.22C79 13.49 79.81 11.3 81.44 9.66998C83.07 8.03998 85.18 7.22998 87.77 7.22998C89.91 7.22998 91.73 7.75998 93.23 8.81998C94.72 9.87998 95.71 11.4 96.2 13.38H90.36C89.86 12.33 89.03 11.8 87.88 11.8C86.73 11.8 85.88 12.21 85.32 13.01C84.76 13.82 84.48 14.89 84.48 16.21C84.48 17.54 84.76 18.6 85.32 19.41C85.88 20.22 86.69 20.62 87.76 20.62C88.43 20.62 88.96 20.5 89.34 20.27C89.72 20.04 90.05 19.63 90.35 19.04H96.19C95.71 20.93 94.71 22.44 93.19 23.55C91.68 24.67 89.87 25.22 87.76 25.22C85.17 25.24 83.06 24.42 81.44 22.78Z" fill="white"/>
<path d="M22.7 32.8101V37.2901H21.61V34.7601L20.57 37.2901H19.76L18.72 34.7601V37.2901H17.63V32.8101H18.88L20.17 35.9001L21.45 32.8101H22.7Z" fill="white"/>
<path d="M29.3 32.8V33.63H27.68V34.59H29.11V35.42H27.68V36.46H29.3V37.29H26.59V32.79H29.3V32.8Z" fill="white"/>
<path d="M36.08 32.8H37.17V37.3H36.08L34.25 34.4701V37.3H33.16V32.8H34.25L36.08 35.6301V32.8Z" fill="white"/>
<path d="M42.57 33.61C42.43 33.61 42.32 33.65 42.23 33.72C42.14 33.79 42.1 33.9 42.1 34.03C42.1 34.16 42.14 34.28 42.22 34.36C42.3 34.44 42.41 34.51 42.54 34.55C42.67 34.6 42.81 34.64 42.97 34.68C43.13 34.72 43.29 34.77 43.45 34.83C43.61 34.89 43.75 34.96 43.88 35.04C44.01 35.13 44.12 35.25 44.2 35.4C44.28 35.56 44.32 35.74 44.32 35.96C44.32 36.34 44.17 36.66 43.86 36.93C43.55 37.2 43.14 37.34 42.64 37.34C42.14 37.34 41.73 37.22 41.42 36.98C41.11 36.74 40.96 36.39 40.96 35.95H42.12C42.15 36.31 42.33 36.49 42.67 36.49C42.83 36.49 42.95 36.45 43.04 36.37C43.13 36.29 43.17 36.18 43.17 36.05C43.17 35.92 43.13 35.82 43.05 35.74C42.97 35.66 42.86 35.6 42.73 35.55C42.6 35.5 42.46 35.46 42.3 35.42C42.14 35.38 41.98 35.33 41.82 35.27C41.66 35.21 41.52 35.14 41.39 35.06C41.26 34.98 41.15 34.86 41.07 34.7C40.99 34.54 40.95 34.36 40.95 34.15C40.95 33.73 41.11 33.4 41.42 33.15C41.73 32.9 42.13 32.77 42.61 32.77C43.09 32.77 43.48 32.88 43.78 33.1C44.08 33.32 44.23 33.67 44.25 34.14H43.06C43.04 33.98 42.99 33.85 42.9 33.77C42.82 33.65 42.71 33.61 42.57 33.61Z" fill="white"/>
<path d="M53.08 32.8101H54.26L53 37.2901H51.75L50.96 34.4501L50.18 37.2901H48.93L47.66 32.8101H48.83L49.61 36.0301L50.41 32.8101H51.65L52.42 35.9801L53.08 32.8101Z" fill="white"/>
<path d="M60.42 32.8V33.63H58.8V34.59H60.23V35.42H58.8V36.46H60.42V37.29H57.7V32.79H60.42V32.8Z" fill="white"/>
<path d="M67.13 37.29L66.88 36.54H65.27L65.02 37.29H63.86L65.42 32.79H66.75L68.3 37.29H67.13ZM65.55 35.71H66.61L66.08 34.11L65.55 35.71Z" fill="white"/>
<path d="M72.85 35.5501V37.2901H71.76V32.8101H73.53C74.05 32.8101 74.45 32.9401 74.74 33.2101C75.03 33.4801 75.17 33.8001 75.17 34.1801C75.17 34.4401 75.09 34.6901 74.93 34.9401C74.77 35.1901 74.51 35.3601 74.16 35.4601L75.26 37.2901H73.98L72.97 35.5501H72.85ZM72.85 33.6401V34.7201H73.53C73.7 34.7201 73.83 34.6701 73.92 34.5701C74.02 34.4701 74.06 34.3401 74.06 34.1801C74.06 34.0201 74.01 33.8901 73.91 33.7901C73.81 33.6901 73.68 33.6401 73.52 33.6401H72.85Z" fill="white"/>
</g>
<defs>
<clipPath id="clip0_2_1258">
<rect width="96.18" height="37.34" fill="white"/>
</clipPath>
</defs>
</svg>
