<svg width="106" height="65" viewBox="0 0 106 65" fill="none" xmlns="http://www.w3.org/2000/svg">
<g clip-path="url(#clip0_2_1291)">
<path d="M38.86 49.8999C44.74 49.1299 51.85 50.7399 57.78 50.0599C64.9 49.1199 72.58 49.4399 79.67 49.7299C79.65 50.3399 79.04 51.2399 79.62 51.5799C81.96 52.5999 81.93 53.8299 81.9 55.0599C81.88 55.6799 80.13 54.9899 80.7 55.6299C78.93 55.5599 75.97 55.7399 77.72 56.4299C78.3 57.0699 80.67 56.5499 81.24 57.4999C81.81 58.4499 80.6 59.3199 81.17 60.2699C81.76 60.2899 82.94 60.3399 83.53 60.3699C84.1 61.0099 82.89 62.1899 83.48 62.2199C85.24 62.9099 87.61 62.6999 89.97 62.7999C89.95 63.4199 90.53 64.0498 89.34 64.3098C68.65 64.0698 47.36 64.4299 26.71 62.6499C24.36 62.2499 26.16 61.0899 27.95 60.2399C27.35 60.5199 27.38 59.5999 26.78 59.8799C26.8 58.9599 28.02 57.4698 30.39 57.2598C29.8 57.2398 29.21 57.2098 28.62 57.1898C28.04 56.8598 28.64 56.2699 28.66 55.6499C29.25 55.6699 29.84 55.6999 29.85 55.3899C29.86 55.0799 29.87 54.4699 29.88 54.1599C29.29 54.1399 28.11 54.0899 27.52 54.0599C28.11 54.0799 28.7 54.1098 28.71 53.7998C28.72 53.4899 28.73 52.8799 28.74 52.5699C29.93 52.3099 31.69 52.9999 32.88 52.7399L32.9 51.8199C31.73 51.4599 29.95 51.6999 28.76 51.6499C29.36 51.3699 29.37 51.0598 29.38 50.4398C31.16 50.2098 32.91 51.1998 34.7 50.3498C34.11 50.3298 33.52 50.2998 32.93 50.2798C34.16 48.7798 37.08 50.1299 38.86 49.8999Z" fill="#D8A788"/>
<path d="M36.01 55.2999C35.88 55.2999 35.77 55.34 35.69 55.4C35.6 55.47 35.56 55.57 35.56 55.7C35.56 55.83 35.6 55.94 35.68 56.02C35.76 56.1 35.86 56.1599 35.99 56.2099C36.12 56.2499 36.26 56.29 36.41 56.33C36.56 56.37 36.72 56.42 36.87 56.47C37.02 56.53 37.16 56.59 37.29 56.68C37.42 56.76 37.52 56.8799 37.6 57.0299C37.68 57.1799 37.72 57.36 37.72 57.57C37.72 57.9399 37.57 58.2499 37.27 58.5099C36.97 58.7699 36.58 58.9 36.09 58.9C35.6 58.9 35.21 58.7799 34.91 58.5499C34.61 58.3099 34.46 57.9799 34.46 57.5499H35.58C35.61 57.8999 35.79 58.07 36.11 58.07C36.26 58.07 36.38 58.03 36.47 57.95C36.56 57.87 36.6 57.7699 36.6 57.6399C36.6 57.5099 36.56 57.42 36.48 57.34C36.4 57.26 36.3 57.2 36.17 57.15C36.04 57.1 35.9 57.06 35.75 57.02C35.6 56.98 35.44 56.9299 35.29 56.8699C35.14 56.8099 35 56.74 34.87 56.66C34.74 56.58 34.64 56.46 34.56 56.31C34.48 56.16 34.44 55.9799 34.44 55.7799C34.44 55.3799 34.59 55.05 34.89 54.81C35.19 54.57 35.57 54.45 36.04 54.45C36.51 54.45 36.89 54.56 37.17 54.77C37.46 54.98 37.61 55.32 37.62 55.77H36.47C36.45 55.61 36.4 55.49 36.32 55.41C36.25 55.34 36.14 55.2999 36.01 55.2999Z" fill="white"/>
<path d="M41.33 55.33V54.53H44.75V55.33H43.56V58.87H42.5V55.33H41.33Z" fill="white"/>
<path d="M48.45 57.11V54.52H49.51V57.11C49.51 57.37 49.57 57.57 49.7 57.71C49.83 57.85 50.02 57.92 50.26 57.92C50.51 57.92 50.7 57.85 50.83 57.71C50.96 57.57 51.03 57.37 51.03 57.11V54.52H52.09V57.11C52.09 57.49 52 57.82 51.82 58.1C51.64 58.38 51.41 58.58 51.14 58.71C50.87 58.84 50.57 58.9 50.25 58.9C49.75 58.9 49.32 58.74 48.98 58.43C48.64 58.12 48.45 57.68 48.45 57.11Z" fill="white"/>
<path d="M57.61 54.52C58.3 54.52 58.87 54.72 59.32 55.12C59.76 55.52 59.99 56.04 59.99 56.68C59.99 57.32 59.77 57.84 59.32 58.25C58.88 58.65 58.31 58.86 57.61 58.86H56.08V54.52H57.61ZM57.14 58.06H57.61C58.01 58.06 58.33 57.94 58.56 57.69C58.79 57.44 58.91 57.11 58.91 56.69C58.91 56.27 58.8 55.94 58.56 55.7C58.33 55.45 58.01 55.33 57.61 55.33H57.14V58.06Z" fill="white"/>
<path d="M63.74 58.86V54.52H64.8V58.86H63.74Z" fill="white"/>
<path d="M69.2 58.27C68.77 57.85 68.55 57.32 68.55 56.68C68.55 56.04 68.77 55.51 69.2 55.09C69.63 54.67 70.16 54.46 70.78 54.46C71.4 54.46 71.93 54.67 72.36 55.09C72.79 55.51 73 56.04 73 56.68C73 57.32 72.79 57.85 72.36 58.27C71.93 58.69 71.41 58.9 70.78 58.9C70.16 58.9 69.63 58.69 69.2 58.27ZM71.61 57.59C71.82 57.36 71.92 57.06 71.92 56.68C71.92 56.3 71.82 56 71.61 55.77C71.4 55.54 71.12 55.43 70.78 55.43C70.43 55.43 70.15 55.54 69.95 55.77C69.74 56 69.64 56.3 69.64 56.68C69.64 57.06 69.74 57.36 69.95 57.59C70.16 57.82 70.44 57.93 70.78 57.93C71.13 57.93 71.41 57.82 71.61 57.59Z" fill="white"/>
<path d="M5.80999 27.5701C5.83999 27.6201 5.87999 27.6501 5.92999 27.6601C5.97999 27.6701 6.02999 27.6801 6.08999 27.7001C6.50999 27.8701 6.91999 28.0701 7.30999 28.3001C7.69999 28.5201 8.04999 28.7901 8.37999 29.1101C8.65999 29.3901 8.90999 29.7001 9.12999 30.0301C9.34999 30.3601 9.52999 30.7201 9.67999 31.1001C9.83999 31.4801 9.96999 31.8601 10.05 32.2501C10.13 32.6401 10.21 33.0401 10.27 33.4501C10.34 33.9201 10.39 34.3801 10.43 34.8501C10.47 35.3101 10.49 35.7801 10.48 36.2601C10.48 36.6501 10.43 37.0301 10.33 37.3901C10.23 37.7501 10.1 38.1001 9.91999 38.4301C9.45999 39.3201 8.82999 40.0601 8.00999 40.6501C7.22999 41.2101 6.37999 41.5001 5.45999 41.5501C4.63999 41.5801 3.86999 41.4701 3.12999 41.2201C2.61999 41.0501 2.15999 40.7601 1.75999 40.3601C1.69999 40.3101 1.65999 40.2501 1.60999 40.2001C1.56999 40.1501 1.49999 40.1001 1.40999 40.0701C1.38999 40.1601 1.36999 40.2401 1.36999 40.3101C1.35999 40.3801 1.34999 40.4501 1.32999 40.5301C1.31999 40.5901 1.29999 40.6301 1.27999 40.6701C1.25999 40.7101 1.21999 40.7301 1.16999 40.7301C1.11999 40.7301 1.02999 40.7301 0.899993 40.7301C0.779993 40.7301 0.699993 40.7101 0.679993 40.6601C0.589993 40.4601 0.529993 40.2601 0.489993 40.0501C0.449993 39.8401 0.429993 39.6201 0.419993 39.4001C0.409993 39.1801 0.419993 38.9601 0.429993 38.7501C0.439993 38.5301 0.449993 38.3201 0.449993 38.1001C0.439993 37.1601 0.429993 36.2301 0.429993 35.3101C0.429993 34.3901 0.419993 33.4601 0.409993 32.5301C0.409993 32.0101 0.399993 31.4901 0.379993 30.9701C0.359993 30.4501 0.349993 29.9301 0.359993 29.4101C0.359993 29.0301 0.349993 28.6501 0.339993 28.2701C0.319993 27.8901 0.309993 27.5101 0.299993 27.1301C0.269993 26.1701 0.199993 25.2301 0.0999933 24.3101C0.0499933 23.8501 0.00999331 23.4101 -0.0100067 22.9701C-0.0300067 22.5401 -0.0100067 22.0901 0.0299933 21.6301C0.0499933 21.4801 0.0599933 21.3301 0.0499933 21.1801C0.0399933 21.0301 0.0399933 20.8801 0.0399933 20.7301C0.0499933 20.6201 0.0699933 20.5201 0.0899933 20.4201C0.109993 20.3201 0.129993 20.2201 0.159993 20.1301C0.179993 20.0001 0.229993 19.9001 0.309993 19.8401C0.389993 19.7801 0.489993 19.7401 0.609993 19.7201C0.719993 19.7001 0.809993 19.7101 0.879993 19.7601C0.949993 19.8101 1.00999 19.8801 1.06999 19.9601C1.15999 20.0801 1.22999 20.2001 1.27999 20.3101C1.32999 20.4201 1.40999 20.5401 1.48999 20.6401C1.52999 20.6801 1.55999 20.7301 1.55999 20.7901C1.55999 20.8401 1.55999 20.9001 1.55999 20.9501C1.57999 21.3201 1.59999 21.6901 1.62999 22.0501C1.64999 22.4101 1.66999 22.7801 1.69999 23.1501C1.71999 23.5301 1.74999 23.9101 1.76999 24.2801C1.79999 24.6601 1.83999 25.0301 1.88999 25.4101C1.97999 25.2601 2.05999 25.1101 2.13999 24.9501C2.21999 24.8001 2.29999 24.6501 2.37999 24.4901C2.62999 24.0001 2.91999 23.5401 3.23999 23.1101C3.55999 22.6801 3.89999 22.2601 4.25999 21.8601C4.52999 21.5401 4.81999 21.2501 5.11999 20.9701C5.41999 20.6901 5.73999 20.4501 6.08999 20.2301C6.58999 19.9001 7.13999 19.7001 7.73999 19.6301C8.12999 19.5801 8.45999 19.7001 8.73999 20.0101C8.95999 20.2701 9.09999 20.5801 9.15999 20.9201C9.18999 21.0801 9.22999 21.2501 9.25999 21.4101C9.28999 21.5701 9.31999 21.7401 9.33999 21.9001C9.36999 22.2201 9.35999 22.5301 9.30999 22.8301C9.24999 23.1301 9.16999 23.4301 9.05999 23.7301C8.83999 24.3501 8.53999 24.9001 8.14999 25.3901C7.75999 25.8701 7.30999 26.3201 6.79999 26.7201C6.66999 26.8301 6.53999 26.9401 6.40999 27.0501C6.27999 27.1601 6.13999 27.2601 5.98999 27.3401C5.94999 27.3601 5.90999 27.3901 5.86999 27.4201C5.84999 27.4601 5.81999 27.5001 5.80999 27.5701ZM8.10999 34.4901C8.11999 33.6301 8.03999 32.7501 7.87999 31.8601C7.80999 31.4901 7.70999 31.1401 7.55999 30.8101C7.40999 30.4801 7.19999 30.1801 6.91999 29.9201C6.30999 29.3801 5.62999 29.0201 4.87999 28.8401C4.68999 28.8001 4.49999 28.7701 4.30999 28.7701C4.10999 28.7601 3.91999 28.7901 3.73999 28.8601C3.53999 28.9401 3.34999 28.9901 3.13999 29.0301C2.93999 29.0701 2.72999 29.1001 2.52999 29.1201C2.37999 29.1401 2.27999 29.1701 2.24999 29.1901C2.21999 29.2201 2.17999 29.3101 2.14999 29.4601C2.08999 29.7101 2.06999 29.9601 2.06999 30.2001C2.06999 30.4401 2.06999 30.6901 2.06999 30.9401C2.06999 31.1801 2.06999 31.4201 2.06999 31.6501C2.06999 31.8801 2.05999 32.1201 2.04999 32.3601C2.04999 32.7301 2.02999 33.0901 1.99999 33.4401C1.96999 33.7901 1.95999 34.1401 1.95999 34.4901C1.95999 34.7701 1.94999 35.0601 1.92999 35.3401C1.90999 35.6201 1.87999 35.9101 1.84999 36.1901C1.81999 36.5501 1.85999 36.8801 1.95999 37.1801C2.06999 37.4801 2.26999 37.7401 2.55999 37.9701C3.05999 38.3601 3.57999 38.6201 4.11999 38.7501C4.65999 38.8701 5.22999 38.8301 5.83999 38.6101C6.45999 38.3901 6.95999 38.0701 7.32999 37.6301C7.69999 37.1901 7.93999 36.6401 8.04999 35.9801C8.07999 35.7301 8.09999 35.4801 8.09999 35.2401C8.09999 34.9901 8.09999 34.7401 8.10999 34.4901ZM7.61999 20.9201C7.00999 21.1801 6.48999 21.5401 6.04999 21.9801C5.39999 22.7001 4.80999 23.4501 4.27999 24.2401C3.74999 25.0301 3.27999 25.8601 2.86999 26.7501C2.84999 26.8001 2.81999 26.8701 2.79999 26.9401C2.76999 27.0101 2.74999 27.1001 2.73999 27.2101C2.87999 27.0601 3.01999 26.9301 3.15999 26.8301C3.29999 26.7301 3.43999 26.6301 3.56999 26.5401C3.78999 26.3901 4.00999 26.2301 4.21999 26.0801C4.43999 25.9201 4.63999 25.7501 4.83999 25.5701C5.04999 25.3701 5.23999 25.1801 5.42999 24.9701C5.60999 24.7701 5.79999 24.5601 5.98999 24.3401C6.83999 23.3801 7.37999 22.2401 7.61999 20.9201Z" fill="white"/>
<path d="M25.83 40.8401C25.83 40.9601 25.77 41.0701 25.64 41.1601C25.52 41.2501 25.4 41.3301 25.29 41.3801C25.2 41.4201 25.12 41.4701 25.04 41.5101C24.96 41.5501 24.87 41.5701 24.79 41.5601C24.54 41.5401 24.29 41.5301 24.04 41.5401C23.79 41.5501 23.55 41.4901 23.32 41.3601C23.08 41.2401 22.87 41.0901 22.7 40.8901C22.53 40.7001 22.38 40.4801 22.26 40.2301C22.06 39.8501 21.9 39.4601 21.77 39.0701C21.64 38.6801 21.53 38.2801 21.44 37.8601C21.34 37.3701 21.22 36.8901 21.09 36.4201C20.95 35.9501 20.82 35.4801 20.69 35.0001C20.55 34.4901 20.43 33.9701 20.32 33.4601C20.22 32.9401 20.11 32.4201 20 31.9001C20 31.8801 20 31.8601 19.99 31.8401C19.98 31.8201 19.98 31.8001 19.98 31.7801C19.96 31.6601 19.94 31.5701 19.91 31.5001C19.89 31.4301 19.86 31.3901 19.82 31.3501C19.78 31.3201 19.73 31.3001 19.67 31.2901C19.6 31.2801 19.51 31.2801 19.39 31.2801C18.37 31.2801 17.34 31.2301 16.32 31.1301C16.27 31.1201 16.21 31.1201 16.14 31.1201C16.07 31.1301 15.99 31.1301 15.89 31.1301C15.75 31.1401 15.64 31.1401 15.58 31.1401C15.51 31.1301 15.46 31.1401 15.42 31.1601C15.38 31.1801 15.35 31.2301 15.31 31.3101C15.28 31.3901 15.23 31.5101 15.16 31.6901C14.8 32.5701 14.44 33.4501 14.07 34.3301C13.71 35.2101 13.34 36.0901 12.98 36.9701C12.85 37.2901 12.73 37.6001 12.63 37.9301C12.53 38.2501 12.41 38.5801 12.3 38.9001C12.25 39.0701 12.17 39.2301 12.08 39.3701C11.99 39.5101 11.87 39.6401 11.71 39.7601C11.64 39.8201 11.58 39.8601 11.51 39.9001C11.44 39.9401 11.36 39.9301 11.27 39.8801C11.18 39.8301 11.13 39.7601 11.11 39.6801C11.09 39.6001 11.1 39.5101 11.12 39.4301C11.24 38.9601 11.36 38.5001 11.47 38.0301C11.58 37.5701 11.72 37.1101 11.87 36.6501C12.25 35.4601 12.67 34.3001 13.14 33.1501C13.6 32.0001 14.04 30.8301 14.45 29.6501C14.68 28.9801 14.93 28.3201 15.19 27.6801C15.46 27.0401 15.73 26.4001 16 25.7501C16.27 25.1101 16.54 24.4701 16.8 23.8401C17.06 23.2101 17.32 22.5801 17.58 21.9501L18 20.8101C18.04 20.7201 18.08 20.6401 18.1 20.5601C18.12 20.4801 18.18 20.4201 18.26 20.3601C18.41 20.2701 18.55 20.1801 18.68 20.0801C18.8 19.9801 18.93 19.8801 19.06 19.7901C19.17 19.7101 19.3 19.6501 19.45 19.5901C19.65 19.5501 19.84 19.5301 20.02 19.5501C20.21 19.5701 20.31 19.6701 20.35 19.8701C20.51 20.3501 20.7 20.9301 20.91 21.6001C21.09 22.1801 21.31 22.8901 21.55 23.7401C21.79 24.5901 22.07 25.5901 22.38 26.7301C22.53 27.5001 22.69 28.2701 22.85 29.0201C23.01 29.7801 23.2 30.5301 23.42 31.2801C23.55 31.7401 23.67 32.2001 23.76 32.6701C23.86 33.1401 23.96 33.6101 24.07 34.0701C24.39 35.2501 24.67 36.3101 24.94 37.2701C25.05 37.6801 25.15 38.0901 25.26 38.4901C25.36 38.8901 25.46 39.2501 25.54 39.5801C25.62 39.9101 25.68 40.1801 25.73 40.4101C25.81 40.6501 25.83 40.7901 25.83 40.8401ZM18.73 23.2401C18.47 23.8101 18.21 24.3501 17.96 24.8801C17.71 25.4101 17.46 25.9301 17.23 26.4601C16.73 27.5201 16.29 28.5701 15.92 29.6301C15.9 29.7001 15.88 29.7601 15.85 29.8201C15.83 29.8801 15.83 29.9501 15.85 30.0401C16.1 30.0201 16.35 30.0001 16.58 29.9701C16.82 29.9501 17.06 29.9401 17.3 29.9401C17.62 29.9301 17.93 29.9301 18.25 29.9301C18.57 29.9401 18.88 29.9401 19.2 29.9401C19.4 29.9401 19.51 29.9201 19.54 29.8801C19.57 29.8401 19.58 29.7301 19.56 29.5501C19.46 28.7701 19.36 27.9901 19.27 27.2101C19.17 26.4301 19.07 25.6501 18.98 24.8701C18.95 24.6201 18.91 24.3601 18.88 24.0901C18.84 23.8201 18.79 23.5401 18.73 23.2401Z" fill="white"/>
<path d="M33.4 19.7C34.21 19.77 34.95 19.99 35.62 20.36C36.29 20.73 36.86 21.32 37.3 22.11C37.6 22.65 37.74 23.25 37.71 23.91C37.71 23.98 37.7 24.0199 37.69 24.0599C37.67 24.15 37.63 24.2299 37.59 24.3099C37.55 24.3899 37.48 24.4299 37.38 24.4599C37.19 24.4999 37.04 24.4299 36.91 24.2299C36.79 24.0199 36.66 23.8199 36.53 23.6299C36.39 23.4299 36.25 23.23 36.11 23.03C35.91 22.75 35.68 22.52 35.41 22.34C35.14 22.17 34.84 22.04 34.51 21.95C34.32 21.9 34.15 21.9 33.98 21.95C33.81 22 33.64 22.0599 33.47 22.1299C33.01 22.3199 32.64 22.58 32.35 22.93C32.06 23.28 31.8 23.6499 31.57 24.0599C31.34 24.4599 31.16 24.8799 31.02 25.2999C30.88 25.7199 30.77 26.16 30.69 26.62C30.6 27.08 30.53 27.53 30.48 27.9799C30.43 28.4299 30.37 28.89 30.32 29.34C30.29 29.62 30.26 29.9 30.25 30.17C30.23 30.44 30.21 30.72 30.19 31C30.18 31.28 30.17 31.56 30.16 31.84C30.15 32.12 30.14 32.4 30.14 32.68C30.13 33.26 30.15 33.8299 30.19 34.3899C30.23 34.9599 30.3 35.52 30.4 36.09C30.44 36.35 30.49 36.61 30.53 36.88C30.57 37.15 30.64 37.4 30.73 37.66C30.83 37.9599 30.95 38.25 31.1 38.52C31.25 38.79 31.45 39.0199 31.71 39.2099C31.8 39.2599 31.88 39.31 31.96 39.36C32.04 39.4 32.13 39.4399 32.21 39.4599C32.36 39.5 32.51 39.51 32.64 39.4799C32.78 39.4499 32.91 39.36 33.04 39.22C33.39 38.85 33.67 38.45 33.89 38.02C34.11 37.59 34.28 37.1299 34.4 36.6399C34.53 36.1199 34.63 35.5699 34.69 35.0099C34.71 34.8699 34.75 34.74 34.8 34.63C34.85 34.52 34.92 34.4 35 34.2999C35.11 34.1799 35.24 34.13 35.38 34.16C35.53 34.1899 35.63 34.2699 35.7 34.41C35.7 34.43 35.7 34.45 35.71 34.45C35.72 34.46 35.72 34.47 35.72 34.49C35.73 34.75 35.77 35.01 35.83 35.27C35.9 35.53 35.91 35.79 35.86 36.06C35.81 36.44 35.73 36.8199 35.64 37.1899C35.55 37.5699 35.42 37.9299 35.27 38.2799C35.13 38.6199 34.96 38.93 34.76 39.22C34.56 39.51 34.35 39.79 34.12 40.06C34 40.2 33.88 40.33 33.75 40.4599C33.63 40.58 33.5 40.71 33.38 40.84C33.16 41.07 32.92 41.2299 32.65 41.32C32.38 41.41 32.1 41.49 31.8 41.54C31.26 41.63 30.75 41.6 30.27 41.47C29.8 41.33 29.33 41.12 28.87 40.84C28.26 40.4699 27.8 39.9999 27.5 39.4399C27.2 38.8699 26.97 38.26 26.81 37.59C26.72 37.18 26.64 36.7599 26.56 36.3499C26.48 35.9399 26.44 35.52 26.41 35.09C26.36 34.44 26.33 33.7899 26.32 33.1399C26.31 32.49 26.33 31.84 26.38 31.19C26.42 30.47 26.48 29.7599 26.56 29.07C26.64 28.37 26.75 27.6799 26.89 26.9799C27 26.38 27.12 25.7899 27.24 25.2099C27.36 24.6299 27.56 24.06 27.82 23.5C28.1 22.91 28.43 22.38 28.82 21.9C29.2 21.42 29.66 20.9999 30.19 20.6299C30.65 20.3099 31.14 20.09 31.66 19.95C32.21 19.8 32.78 19.72 33.4 19.7Z" fill="white"/>
<path d="M42.22 29.82C42.27 29.86 42.32 29.9 42.37 29.93C42.41 29.96 42.46 29.99 42.5 30.01C43.32 30.48 44.13 30.95 44.94 31.41C45.75 31.88 46.56 32.34 47.38 32.8C47.93 33.11 48.49 33.4 49.05 33.68C49.6 33.96 50.16 34.26 50.72 34.56C50.98 34.71 51.23 34.87 51.48 35.03C51.72 35.19 51.97 35.35 52.22 35.51C52.38 35.62 52.54 35.72 52.69 35.82C52.84 35.92 52.99 36.03 53.15 36.15C53.31 36.28 53.47 36.41 53.62 36.54C53.77 36.67 53.92 36.81 54.07 36.95C54.19 37.06 54.31 37.17 54.43 37.28C54.55 37.39 54.67 37.51 54.79 37.63C54.91 37.75 54.94 37.88 54.87 38.02C54.84 38.11 54.79 38.17 54.74 38.22C54.69 38.26 54.61 38.28 54.51 38.27C54.24 38.25 53.97 38.22 53.69 38.17C53.42 38.13 53.16 38.04 52.91 37.91C52.55 37.73 52.19 37.53 51.82 37.34C51.46 37.14 51.1 36.94 50.75 36.74C50.22 36.42 49.69 36.1 49.17 35.78C48.65 35.45 48.12 35.13 47.59 34.82C47.03 34.49 46.48 34.18 45.92 33.87C45.36 33.56 44.81 33.25 44.25 32.93C43.79 32.68 43.34 32.43 42.89 32.19C42.44 31.94 41.99 31.7 41.53 31.45C41.48 31.43 41.38 31.38 41.25 31.32C41.25 31.41 41.25 31.48 41.24 31.53C41.23 31.58 41.24 31.64 41.25 31.69C41.29 32.15 41.33 32.61 41.37 33.07C41.41 33.53 41.45 33.99 41.51 34.45C41.56 34.91 41.62 35.36 41.66 35.82C41.71 36.28 41.76 36.74 41.82 37.21C41.84 37.43 41.86 37.64 41.87 37.86C41.88 38.07 41.9 38.29 41.92 38.51C41.94 38.84 41.96 39.16 41.98 39.49C42 39.82 42 40.14 42 40.45C42 40.59 41.98 40.73 41.95 40.88C41.92 41.02 41.87 41.16 41.82 41.29C41.78 41.42 41.7 41.49 41.59 41.51C41.48 41.53 41.37 41.54 41.25 41.55C41.04 41.57 40.88 41.49 40.76 41.31C40.53 40.92 40.36 40.51 40.24 40.09C40.12 39.67 40.02 39.23 39.95 38.78C39.85 38.18 39.75 37.59 39.65 36.99C39.55 36.4 39.45 35.8 39.35 35.2C39.27 34.75 39.21 34.31 39.15 33.88C39.1 33.44 39.04 33 38.99 32.56C38.92 32.06 38.87 31.56 38.81 31.06C38.76 30.56 38.71 30.06 38.66 29.56C38.62 29.18 38.58 28.79 38.56 28.4C38.54 28.01 38.52 27.62 38.49 27.24C38.44 26.59 38.39 25.94 38.36 25.31C38.33 24.67 38.29 24.03 38.25 23.38C38.23 22.97 38.22 22.55 38.22 22.13C38.22 21.71 38.24 21.29 38.29 20.88C38.31 20.67 38.35 20.48 38.41 20.3C38.47 20.12 38.54 19.94 38.63 19.77C38.76 19.5 38.95 19.45 39.2 19.62C39.32 19.69 39.42 19.77 39.5 19.87C39.58 19.97 39.66 20.08 39.72 20.2C39.86 20.48 39.98 20.77 40.07 21.07C40.16 21.36 40.25 21.67 40.32 21.98C40.4 22.26 40.46 22.55 40.52 22.84C40.58 23.13 40.63 23.42 40.67 23.71C40.74 24.25 40.79 24.79 40.84 25.33C40.89 25.86 40.94 26.4 40.98 26.95C41 27.23 41.02 27.51 41.02 27.79C41.03 28.07 41.04 28.35 41.06 28.63C41.08 28.62 41.1 28.61 41.13 28.61C41.15 28.61 41.17 28.6 41.2 28.59C41.66 28.27 42.13 27.97 42.61 27.69C43.09 27.41 43.58 27.13 44.07 26.86C44.58 26.58 45.08 26.3 45.57 26.02C46.06 25.74 46.56 25.47 47.07 25.2C47.34 25.05 47.62 24.9 47.9 24.77C48.18 24.63 48.47 24.5 48.75 24.35C48.84 24.31 48.93 24.27 49.04 24.24C49.14 24.21 49.24 24.19 49.34 24.17C49.39 24.15 49.45 24.14 49.51 24.15C49.57 24.16 49.63 24.16 49.68 24.17C49.88 24.22 49.99 24.3 50.03 24.39C50.07 24.48 50.04 24.62 49.96 24.81C49.86 25.01 49.74 25.17 49.59 25.3C49.44 25.43 49.28 25.55 49.09 25.66C48 26.32 46.92 26.98 45.83 27.64C44.75 28.29 43.66 28.95 42.57 29.62C42.52 29.65 42.46 29.69 42.41 29.73C42.38 29.72 42.31 29.77 42.22 29.82Z" fill="white"/>
<path d="M64.28 28.2401L64.08 28.6801C63.92 29.1001 63.75 29.5301 63.59 29.9501C63.43 30.3701 63.26 30.7901 63.1 31.2001C62.88 31.7901 62.55 32.3301 62.1 32.8201C61.92 33.0301 61.7 33.1801 61.46 33.2801C61.22 33.3801 60.97 33.4501 60.71 33.4901C60.66 33.5101 60.6 33.5201 60.53 33.5201C60.46 33.5201 60.4 33.5301 60.35 33.5401C59.94 33.5901 59.57 33.5401 59.26 33.3801C58.95 33.2201 58.66 32.9901 58.4 32.7101C58.17 32.4601 57.99 32.1901 57.84 31.9001C57.7 31.6101 57.58 31.3001 57.48 30.9801C57.39 30.7201 57.33 30.4601 57.3 30.1901C57.27 29.9201 57.23 29.6501 57.2 29.3701C57.13 28.8301 57.12 28.2901 57.16 27.7701C57.2 27.2501 57.23 26.7201 57.27 26.1901C57.3 25.8001 57.35 25.4101 57.4 25.0101C57.45 24.6201 57.52 24.2301 57.6 23.8501C57.64 23.6301 57.7 23.4201 57.78 23.2101C57.86 23.0001 57.94 22.8001 58.04 22.5901C58.08 22.5201 58.11 22.4801 58.12 22.4401C58.14 22.3501 58.17 22.2801 58.22 22.2101C58.26 22.1401 58.33 22.1101 58.43 22.1101C58.55 22.1001 58.66 22.1001 58.76 22.1301C58.86 22.1501 58.95 22.2101 59.04 22.2901C59.17 22.4301 59.27 22.5801 59.35 22.7201C59.43 22.8701 59.45 23.0401 59.43 23.2301C59.43 23.3201 59.44 23.3801 59.45 23.4301C59.54 23.9001 59.59 24.3701 59.6 24.8301C59.61 25.3001 59.62 25.7701 59.63 26.2301C59.64 26.9601 59.67 27.6801 59.71 28.3901C59.75 29.1001 59.85 29.8201 60 30.5401C60.05 30.7701 60.12 30.9901 60.2 31.2101C60.28 31.4301 60.38 31.6301 60.51 31.8101C60.56 31.8801 60.62 31.9401 60.68 32.0001C60.74 32.0601 60.8 32.1301 60.87 32.2001C61.01 32.0801 61.14 31.9601 61.26 31.8501C61.38 31.7401 61.48 31.6001 61.55 31.4501C61.69 31.1701 61.83 30.8801 61.96 30.6001C62.09 30.3201 62.21 30.0301 62.32 29.7401C62.51 29.2601 62.68 28.7901 62.83 28.3201C62.99 27.8501 63.15 27.3801 63.33 26.9001C63.77 25.7601 64.27 24.6201 64.85 23.5001C64.93 23.3501 64.99 23.1901 65.03 23.0301C65.07 22.8701 65.11 22.7001 65.14 22.5401C65.25 22.0801 65.38 21.6401 65.55 21.2201C65.71 20.8001 65.9 20.3801 66.11 19.9601C66.15 19.8701 66.2 19.8101 66.26 19.7701C66.32 19.7301 66.39 19.7001 66.48 19.6801C66.61 19.6501 66.74 19.6201 66.86 19.6001C66.98 19.5801 67.12 19.5901 67.26 19.6301C67.41 19.6901 67.53 19.7601 67.62 19.8601C67.71 19.9601 67.78 20.0701 67.83 20.2001C67.94 20.4401 68 20.6801 68.01 20.9201C68.02 21.1601 68.02 21.4001 67.99 21.6501C67.92 22.3801 67.86 23.1001 67.79 23.8201C67.72 24.5401 67.66 25.2601 67.61 25.9901C67.57 26.5901 67.51 27.1901 67.44 27.7901C67.37 28.3901 67.29 28.9801 67.2 29.5701C67.17 29.8101 67.13 30.0401 67.09 30.2701C67.05 30.5001 67.01 30.7301 66.97 30.9701C66.95 31.1401 66.93 31.3201 66.9 31.4901C66.88 31.6601 66.86 31.8401 66.83 32.0101C66.75 32.4801 66.68 32.9401 66.61 33.4101C66.54 33.8701 66.46 34.3401 66.37 34.8101C66.32 35.1001 66.26 35.4001 66.19 35.6901C66.12 35.9801 66.06 36.2801 65.99 36.5901C65.84 37.2401 65.61 37.8401 65.3 38.3901C65 38.9301 64.59 39.4301 64.09 39.8801C63.42 40.4701 62.66 40.9101 61.84 41.2201C61.57 41.3201 61.3 41.4001 61.02 41.4701C60.75 41.5401 60.46 41.5701 60.17 41.5801C59.73 41.6001 59.32 41.5701 58.91 41.4801C58.51 41.3901 58.12 41.2201 57.75 40.9701C57.7 40.9401 57.64 40.9101 57.57 40.8801C57.5 40.8501 57.44 40.8201 57.39 40.7901C57.17 40.6601 56.97 40.5101 56.79 40.3501C56.6 40.1901 56.44 40.0001 56.3 39.7801C56.05 39.4301 55.84 39.0701 55.66 38.6901C55.49 38.3101 55.38 37.9101 55.35 37.4901C55.33 37.2601 55.31 37.0401 55.31 36.8101C55.3 36.5901 55.33 36.3701 55.38 36.1501C55.43 35.8801 55.53 35.6201 55.67 35.3801C55.81 35.1401 56.02 34.9601 56.3 34.8201C56.42 34.7701 56.53 34.7801 56.64 34.8501C56.86 35.0101 56.97 35.2301 56.98 35.4901C56.98 35.8401 57.04 36.1601 57.15 36.4701C57.26 36.7701 57.4 37.0701 57.55 37.3501C57.72 37.6801 57.95 37.9401 58.24 38.1401C58.52 38.3401 58.83 38.4801 59.15 38.5601C59.48 38.6401 59.81 38.6501 60.16 38.6001C60.51 38.5501 60.83 38.4301 61.12 38.2501C61.82 37.8101 62.32 37.2201 62.64 36.4701C62.73 36.3001 62.79 36.1101 62.84 35.9201C62.88 35.7301 62.93 35.5401 62.97 35.3601C63.07 34.9501 63.16 34.5301 63.24 34.1201C63.32 33.7101 63.41 33.2901 63.49 32.8801C63.59 32.3401 63.68 31.8001 63.77 31.2601C63.86 30.7301 63.95 30.1801 64.05 29.6301L64.25 28.5001C64.26 28.4501 64.27 28.4001 64.27 28.3501C64.28 28.3101 64.28 28.2601 64.29 28.2201H64.28V28.2401Z" fill="white"/>
<path d="M83.22 40.8401C83.22 40.9601 83.16 41.0701 83.03 41.1601C82.91 41.2501 82.79 41.3301 82.68 41.3801C82.59 41.4201 82.51 41.4701 82.43 41.5101C82.35 41.5501 82.26 41.5701 82.18 41.5601C81.93 41.5401 81.68 41.5301 81.43 41.5401C81.18 41.5501 80.94 41.4901 80.71 41.3601C80.47 41.2401 80.26 41.0901 80.09 40.8901C79.92 40.7001 79.77 40.4801 79.65 40.2301C79.45 39.8501 79.29 39.4601 79.16 39.0701C79.03 38.6801 78.92 38.2801 78.83 37.8601C78.73 37.3701 78.61 36.8901 78.48 36.4201C78.34 35.9501 78.21 35.4801 78.08 35.0001C77.94 34.4901 77.82 33.9701 77.71 33.4601C77.61 32.9401 77.5 32.4201 77.39 31.9001C77.39 31.8801 77.39 31.8601 77.38 31.8401C77.37 31.8201 77.37 31.8001 77.37 31.7801C77.35 31.6601 77.33 31.5701 77.3 31.5001C77.28 31.4301 77.25 31.3901 77.21 31.3501C77.17 31.3201 77.12 31.3001 77.06 31.2901C76.99 31.2801 76.9 31.2801 76.78 31.2801C75.76 31.2801 74.73 31.2301 73.71 31.1301C73.66 31.1201 73.6 31.1201 73.53 31.1201C73.46 31.1301 73.38 31.1301 73.28 31.1301C73.14 31.1401 73.03 31.1401 72.97 31.1401C72.9 31.1301 72.85 31.1401 72.81 31.1601C72.77 31.1801 72.74 31.2301 72.7 31.3101C72.67 31.3901 72.62 31.5101 72.55 31.6901C72.19 32.5701 71.83 33.4501 71.46 34.3301C71.1 35.2101 70.73 36.0901 70.37 36.9701C70.24 37.2901 70.12 37.6001 70.02 37.9301C69.92 38.2501 69.8 38.5801 69.69 38.9001C69.64 39.0701 69.56 39.2301 69.47 39.3701C69.38 39.5101 69.26 39.6401 69.1 39.7601C69.03 39.8201 68.97 39.8601 68.9 39.9001C68.83 39.9401 68.75 39.9301 68.66 39.8801C68.57 39.8301 68.52 39.7601 68.5 39.6801C68.48 39.6001 68.49 39.5101 68.51 39.4301C68.63 38.9601 68.75 38.5001 68.86 38.0301C68.97 37.5701 69.11 37.1101 69.26 36.6501C69.64 35.4601 70.06 34.3001 70.53 33.1501C70.99 32.0001 71.43 30.8301 71.84 29.6501C72.07 28.9801 72.32 28.3201 72.58 27.6801C72.85 27.0401 73.12 26.4001 73.39 25.7501C73.66 25.1101 73.93 24.4701 74.19 23.8401C74.45 23.2101 74.71 22.5801 74.97 21.9501L75.39 20.8101C75.43 20.7201 75.47 20.6401 75.49 20.5601C75.51 20.4801 75.57 20.4201 75.65 20.3601C75.8 20.2701 75.94 20.1801 76.07 20.0801C76.19 19.9801 76.32 19.8801 76.45 19.7901C76.56 19.7101 76.69 19.6501 76.84 19.5901C77.04 19.5501 77.23 19.5301 77.41 19.5501C77.6 19.5701 77.7 19.6701 77.74 19.8701C77.9 20.3501 78.09 20.9301 78.3 21.6001C78.48 22.1801 78.7 22.8901 78.94 23.7401C79.18 24.5901 79.46 25.5901 79.77 26.7301C79.92 27.5001 80.08 28.2701 80.24 29.0201C80.4 29.7801 80.59 30.5301 80.81 31.2801C80.94 31.7401 81.06 32.2001 81.15 32.6701C81.25 33.1401 81.35 33.6101 81.46 34.0701C81.78 35.2501 82.06 36.3101 82.33 37.2701C82.44 37.6801 82.54 38.0901 82.65 38.4901C82.75 38.8901 82.85 39.2501 82.93 39.5801C83.01 39.9101 83.07 40.1801 83.12 40.4101C83.19 40.6501 83.22 40.7901 83.22 40.8401ZM76.11 23.2401C75.85 23.8101 75.59 24.3501 75.34 24.8801C75.09 25.4101 74.84 25.9301 74.61 26.4601C74.11 27.5201 73.67 28.5701 73.3 29.6301C73.28 29.7001 73.26 29.7601 73.23 29.8201C73.21 29.8801 73.21 29.9501 73.23 30.0401C73.48 30.0201 73.73 30.0001 73.96 29.9701C74.2 29.9501 74.44 29.9401 74.68 29.9401C75 29.9301 75.31 29.9301 75.63 29.9301C75.95 29.9401 76.26 29.9401 76.58 29.9401C76.78 29.9401 76.89 29.9201 76.92 29.8801C76.95 29.8401 76.96 29.7301 76.94 29.5501C76.84 28.7701 76.74 27.9901 76.65 27.2101C76.55 26.4301 76.45 25.6501 76.36 24.8701C76.33 24.6201 76.29 24.3601 76.26 24.0901C76.23 23.8201 76.18 23.5401 76.11 23.2401Z" fill="white"/>
<path d="M85.84 41.4C85.72 41.3 85.63 41.19 85.57 41.07C85.51 40.95 85.46 40.82 85.41 40.69C85.39 40.6 85.37 40.52 85.34 40.43C85.32 40.34 85.3 40.26 85.27 40.17C85.16 39.88 85.09 39.58 85.05 39.28C85.01 38.98 84.97 38.67 84.93 38.36C84.88 37.84 84.82 37.32 84.76 36.8C84.7 36.28 84.64 35.76 84.59 35.24C84.54 34.75 84.48 34.27 84.44 33.8C84.39 33.33 84.34 32.85 84.28 32.36C84.17 31.51 84.09 30.67 84.05 29.83C84.01 28.99 83.96 28.15 83.92 27.3C83.84 27.16 83.82 27.02 83.85 26.88C83.88 26.74 83.89 26.6 83.88 26.45C83.87 26.17 83.86 25.89 83.84 25.61C83.82 25.33 83.81 25.05 83.8 24.77C83.78 24.48 83.77 24.18 83.77 23.88C83.77 23.58 83.76 23.28 83.75 22.99C83.75 22.96 83.76 22.92 83.77 22.88C83.78 22.84 83.78 22.81 83.77 22.77C83.7 22.52 83.73 22.3 83.85 22.12C83.97 21.94 84.11 21.76 84.26 21.58C84.29 21.54 84.34 21.51 84.41 21.51C84.54 21.5 84.67 21.49 84.79 21.49C84.91 21.48 85.04 21.49 85.16 21.51C85.33 21.53 85.49 21.6 85.62 21.72C85.75 21.84 85.83 21.99 85.86 22.18C85.89 22.42 85.92 22.66 85.95 22.89C85.98 23.12 86.01 23.36 86.04 23.6C86.04 23.63 86.04 23.67 86.05 23.71C86.06 23.75 86.06 23.79 86.07 23.85C86.32 23.53 86.56 23.23 86.8 22.94C87.03 22.65 87.28 22.36 87.53 22.08C87.88 21.69 88.25 21.32 88.65 20.99C89.05 20.65 89.48 20.36 89.95 20.11C90.6 19.76 91.28 19.59 91.97 19.6C92.22 19.61 92.44 19.67 92.61 19.77C92.79 19.87 92.93 20.05 93.03 20.3C93.08 20.43 93.12 20.56 93.14 20.68C93.16 20.81 93.16 20.94 93.14 21.08C93.11 21.59 92.99 22.06 92.78 22.48C92.57 22.9 92.3 23.3 91.96 23.67C91.39 24.29 90.78 24.85 90.11 25.34C89.45 25.83 88.74 26.27 88 26.66C87.91 26.71 87.83 26.77 87.74 26.82C87.65 26.87 87.56 26.92 87.45 26.97C87.48 27.01 87.51 27.05 87.54 27.09C87.57 27.13 87.6 27.16 87.65 27.2C88.38 27.92 89.07 28.7 89.72 29.55C90.02 29.95 90.31 30.37 90.57 30.79C90.83 31.21 91.08 31.65 91.3 32.1C91.58 32.63 91.81 33.18 91.99 33.74C92.16 34.3 92.32 34.87 92.46 35.45C92.57 35.89 92.67 36.32 92.76 36.75C92.85 37.18 92.94 37.61 93.03 38.05C93.11 38.43 93.15 38.82 93.18 39.2C93.2 39.59 93.18 39.98 93.11 40.37C93.09 40.49 93.07 40.61 93.05 40.72C93.03 40.83 93.01 40.95 92.99 41.07C92.93 41.19 92.88 41.29 92.81 41.36C92.74 41.44 92.67 41.5 92.57 41.54C92.48 41.58 92.36 41.59 92.22 41.56C91.89 41.23 91.68 40.87 91.57 40.47C91.48 40.11 91.4 39.75 91.32 39.38C91.24 39.02 91.17 38.65 91.1 38.29C90.95 37.46 90.77 36.64 90.58 35.83C90.38 35.02 90.13 34.22 89.83 33.44C89.53 32.63 89.16 31.86 88.74 31.13C88.32 30.4 87.81 29.71 87.21 29.08C87.07 28.93 86.93 28.77 86.79 28.61C86.65 28.45 86.5 28.28 86.34 28.1C86.34 28.17 86.34 28.22 86.33 28.26C86.32 28.3 86.32 28.33 86.32 28.35C86.34 28.6 86.36 28.85 86.39 29.11C86.41 29.37 86.44 29.62 86.47 29.87C86.52 30.36 86.59 30.84 86.66 31.31C86.73 31.78 86.8 32.26 86.86 32.75C86.95 33.32 87.03 33.88 87.12 34.44C87.21 35 87.28 35.56 87.35 36.13C87.4 36.53 87.44 36.93 87.47 37.33C87.5 37.73 87.51 38.13 87.51 38.53C87.52 38.81 87.5 39.09 87.46 39.35C87.42 39.61 87.37 39.88 87.33 40.15C87.31 40.3 87.28 40.46 87.26 40.62C87.23 40.78 87.19 40.93 87.14 41.09C87.08 41.23 86.97 41.36 86.8 41.47C86.63 41.58 86.46 41.63 86.31 41.61C86.24 41.59 86.18 41.57 86.13 41.55C86.07 41.53 86.02 41.51 85.97 41.49C85.95 41.44 85.9 41.42 85.84 41.4ZM86.19 25.72C86.2 25.74 86.22 25.76 86.24 25.79C86.35 25.74 86.45 25.68 86.56 25.61C86.66 25.54 86.77 25.49 86.88 25.43C87.41 25.11 87.94 24.8 88.47 24.48C89 24.16 89.51 23.82 90 23.44C90.23 23.26 90.46 23.07 90.69 22.89C90.92 22.71 91.13 22.51 91.31 22.28C91.48 22.06 91.62 21.83 91.73 21.59C91.83 21.35 91.88 21.09 91.87 20.81C91.86 20.69 91.83 20.61 91.8 20.57C91.76 20.53 91.68 20.53 91.56 20.58C91.19 20.7 90.86 20.84 90.58 20.99C90.09 21.24 89.65 21.55 89.25 21.9C88.85 22.26 88.49 22.65 88.15 23.08C87.83 23.48 87.53 23.89 87.23 24.29C86.93 24.69 86.63 25.1 86.34 25.51C86.31 25.54 86.28 25.58 86.27 25.62C86.23 25.66 86.21 25.69 86.19 25.72Z" fill="white"/>
<path d="M97.21 23.8C97.34 23.6 97.46 23.42 97.58 23.25C97.69 23.08 97.81 22.92 97.93 22.75C98.28 22.24 98.68 21.79 99.12 21.41C99.57 21.03 100.05 20.68 100.57 20.37C101.06 20.05 101.61 19.82 102.24 19.67C102.9 19.52 103.47 19.57 103.93 19.83C104.39 20.09 104.78 20.48 105.1 21.01C105.3 21.36 105.43 21.72 105.51 22.09C105.59 22.46 105.63 22.84 105.66 23.22C105.68 23.76 105.64 24.29 105.53 24.81C105.42 25.33 105.29 25.85 105.14 26.37C104.87 27.26 104.56 28.14 104.22 29C103.88 29.86 103.52 30.71 103.13 31.56C102.83 32.25 102.52 32.92 102.22 33.59C101.92 34.26 101.59 34.92 101.26 35.57C100.97 36.15 100.67 36.71 100.37 37.27C100.07 37.83 99.76 38.39 99.45 38.95C99.35 39.14 99.26 39.32 99.17 39.51C99.08 39.7 99 39.89 98.91 40.09C98.79 40.36 98.63 40.6 98.44 40.79C98.24 40.99 98.02 41.16 97.77 41.31C97.57 41.43 97.38 41.5 97.17 41.51C96.97 41.52 96.76 41.54 96.56 41.58C96.48 41.58 96.43 41.56 96.4 41.53C96.28 41.41 96.16 41.29 96.05 41.18C95.94 41.07 95.85 40.92 95.78 40.75C95.6 40.26 95.46 39.76 95.39 39.26C95.31 38.75 95.25 38.24 95.19 37.72C95.13 37.15 95.07 36.59 95 36.04C94.93 35.49 94.86 34.92 94.8 34.36C94.72 33.78 94.66 33.21 94.6 32.64C94.54 32.07 94.51 31.49 94.5 30.9C94.48 30.28 94.45 29.67 94.41 29.07C94.37 28.47 94.35 27.86 94.35 27.24C94.35 26.74 94.36 26.24 94.37 25.74C94.38 25.24 94.41 24.74 94.47 24.24C94.49 24.02 94.51 23.8 94.51 23.57C94.52 23.34 94.53 23.11 94.55 22.88C94.57 22.6 94.65 22.35 94.78 22.15C94.91 21.94 95.08 21.76 95.3 21.61C95.57 21.41 95.84 21.36 96.11 21.46C96.38 21.56 96.58 21.75 96.72 22.03C96.81 22.23 96.89 22.43 96.96 22.65C97.03 22.87 97.08 23.08 97.12 23.3C97.12 23.4 97.15 23.57 97.21 23.8ZM97.94 37.27C98.05 37.15 98.13 37.03 98.19 36.91C98.24 36.79 98.3 36.68 98.34 36.58C98.39 36.48 98.44 36.37 98.5 36.26C98.86 35.64 99.2 35.01 99.53 34.37C99.86 33.73 100.18 33.09 100.49 32.43C100.68 32.06 100.85 31.69 101.02 31.33C101.19 30.97 101.37 30.59 101.55 30.21C101.77 29.77 101.98 29.34 102.19 28.91C102.4 28.48 102.59 28.04 102.78 27.58C102.98 27.12 103.16 26.67 103.34 26.22C103.51 25.77 103.66 25.31 103.78 24.82C103.85 24.57 103.91 24.32 103.98 24.08C104.05 23.83 104.09 23.58 104.11 23.32C104.13 23.08 104.13 22.84 104.09 22.61C104.06 22.38 103.98 22.15 103.86 21.93C103.77 21.75 103.68 21.62 103.57 21.56C103.46 21.5 103.3 21.48 103.1 21.5C103.05 21.51 103 21.52 102.95 21.52C102.91 21.53 102.86 21.54 102.8 21.56C102.41 21.67 102.05 21.83 101.72 22.04C101.39 22.25 101.08 22.48 100.77 22.73C100.14 23.26 99.58 23.85 99.09 24.48C98.6 25.11 98.15 25.78 97.73 26.49C97.58 26.76 97.46 27.04 97.38 27.33C97.3 27.62 97.27 27.93 97.31 28.25C97.34 28.61 97.36 28.97 97.38 29.33C97.39 29.69 97.41 30.05 97.43 30.41C97.47 31.19 97.52 31.97 97.56 32.74C97.6 33.51 97.66 34.29 97.72 35.07C97.75 35.39 97.78 35.71 97.8 36.03C97.82 36.36 97.84 36.68 97.87 37.01C97.87 37.04 97.87 37.08 97.88 37.12C97.87 37.2 97.9 37.23 97.94 37.27Z" fill="white"/>
<path d="M44.86 2.93992C44.64 2.92992 44.43 2.91992 44.23 2.91992C44.02 2.91992 43.81 2.90992 43.6 2.89992C43.25 2.88992 42.89 2.87992 42.53 2.86992C42.17 2.85992 41.81 2.84992 41.45 2.83992C41.42 2.83992 41.39 2.83992 41.36 2.82992C41.33 2.81992 41.3 2.82992 41.27 2.83992C41.12 2.86992 40.98 2.86992 40.85 2.81992C40.72 2.77992 40.59 2.71992 40.46 2.63992C40.32 2.54992 40.23 2.42992 40.18 2.25992C40.15 2.16992 40.15 2.08992 40.17 2.02992C40.19 1.96992 40.25 1.91992 40.34 1.88992C40.45 1.83992 40.56 1.80992 40.67 1.77992C40.78 1.74992 40.89 1.72992 41 1.71992C41.33 1.68992 41.67 1.66992 42.01 1.65992C42.35 1.64992 42.69 1.62992 43.03 1.61992C43.37 1.60992 43.71 1.58992 44.05 1.57992C44.39 1.56992 44.73 1.54992 45.07 1.53992C45.24 1.52992 45.41 1.52992 45.58 1.53992C45.75 1.53992 45.92 1.53992 46.09 1.52992C46.62 1.49992 47.15 1.48992 47.67 1.50992C48.19 1.52992 48.72 1.55992 49.25 1.58992C49.45 1.59992 49.66 1.60992 49.89 1.59992C50.12 1.58992 50.33 1.61992 50.52 1.68992C50.57 1.69992 50.61 1.71992 50.63 1.74992C50.65 1.77992 50.7 1.79992 50.76 1.79992C50.75 1.82992 50.75 1.85992 50.75 1.86992C50.75 1.88992 50.75 1.89992 50.74 1.90992L50.36 2.55992C50.28 2.69992 50.17 2.78992 50.02 2.80992C49.79 2.83992 49.56 2.85992 49.34 2.88992C49.12 2.91992 48.89 2.93992 48.67 2.94992C48.32 2.95992 47.97 2.96992 47.63 2.96992C47.29 2.96992 46.94 2.97992 46.59 2.97992C46.57 2.97992 46.55 2.97992 46.53 2.98992C46.51 2.98992 46.49 2.99992 46.46 2.99992C46.46 3.02992 46.46 3.05992 46.46 3.08992C46.46 3.11992 46.46 3.13992 46.46 3.16992C46.53 3.55992 46.58 3.95992 46.6 4.35992C46.62 4.75992 46.64 5.15992 46.65 5.56992C46.66 5.91992 46.68 6.26992 46.69 6.61992C46.71 6.95992 46.72 7.30992 46.73 7.66992C46.75 8.17992 46.77 8.67992 46.79 9.17992C46.81 9.67992 46.83 10.1799 46.84 10.6999C46.85 11.0499 46.86 11.3899 46.87 11.7299C46.88 12.0699 46.88 12.4199 46.88 12.7699C46.88 12.9099 46.87 13.0599 46.87 13.1999C46.86 13.3399 46.85 13.4899 46.84 13.6399C46.83 13.6899 46.83 13.7499 46.83 13.8099C46.83 13.8699 46.83 13.9299 46.83 13.9899C46.83 14.0799 46.82 14.1599 46.81 14.2299C46.8 14.3099 46.77 14.3799 46.72 14.4499C46.66 14.5499 46.59 14.6199 46.52 14.6599C46.44 14.6999 46.35 14.7099 46.23 14.6899C46.02 14.6599 45.85 14.5799 45.71 14.4499C45.58 14.3299 45.46 14.1699 45.37 13.9999C45.28 13.8299 45.21 13.6599 45.17 13.4799C45.13 13.2999 45.09 13.1199 45.06 12.9399C45.01 12.6099 44.97 12.2899 44.96 11.9599C44.94 11.6399 44.94 11.3099 44.95 10.9799C44.95 10.8699 44.95 10.7599 44.94 10.6599C44.93 10.5599 44.93 10.4499 44.92 10.3399L44.86 8.97992C44.83 8.36992 44.8 7.75992 44.77 7.15992C44.74 6.55992 44.72 5.94992 44.7 5.33992C44.68 4.57992 44.73 3.83992 44.85 3.08992C44.86 3.06992 44.86 3.04992 44.86 3.02992C44.86 2.99992 44.86 2.96992 44.86 2.93992Z" fill="white"/>
<path d="M53.04 11.4999C53.05 11.3699 53.07 11.2399 53.09 11.1099C53.11 10.9799 53.13 10.8499 53.14 10.7199C53.17 10.4599 53.2 10.2099 53.22 9.94993C53.24 9.68993 53.27 9.43993 53.31 9.17993C53.36 8.90993 53.4 8.63993 53.45 8.37993C53.5 8.10993 53.56 7.84993 53.62 7.57993C53.69 7.28993 53.78 7.00993 53.88 6.72993C53.98 6.44993 54.11 6.18993 54.26 5.92993C54.36 5.76993 54.46 5.60993 54.56 5.44993C54.66 5.29993 54.79 5.15993 54.94 5.02993C54.99 4.97993 55.05 4.93993 55.1 4.89993C55.16 4.85993 55.21 4.81993 55.27 4.78993C55.34 4.73993 55.42 4.71993 55.5 4.71993C55.58 4.71993 55.66 4.71993 55.75 4.73993C55.89 4.76993 56.03 4.81993 56.16 4.88993C56.29 4.95993 56.41 5.03993 56.53 5.11993C56.58 5.14993 56.61 5.16993 56.62 5.18993C56.69 5.30993 56.76 5.43993 56.83 5.54993C56.9 5.66993 56.95 5.78993 56.99 5.91993C57.04 6.08993 57.08 6.25993 57.11 6.42993C57.14 6.59993 57.17 6.76993 57.2 6.94993C57.22 7.04993 57.23 7.14993 57.23 7.25993C57.23 7.35993 57.25 7.46993 57.27 7.55993C57.32 7.77993 57.34 7.98993 57.31 8.20993C57.29 8.42993 57.29 8.64993 57.33 8.86993C57.34 8.90993 57.34 8.94993 57.33 8.98993C57.32 9.02993 57.32 9.07993 57.32 9.11993C57.33 9.26993 57.33 9.42993 57.33 9.57993C57.33 9.73993 57.34 9.88993 57.35 10.0399C57.37 10.2899 57.39 10.5399 57.42 10.7999C57.45 11.0599 57.47 11.3099 57.5 11.5599C57.52 11.8099 57.54 12.0599 57.55 12.3099C57.57 12.5599 57.59 12.8099 57.62 13.0599C57.63 13.1499 57.66 13.2399 57.69 13.3299C57.72 13.4199 57.75 13.4999 57.78 13.5999C57.8 13.6699 57.81 13.7499 57.81 13.8399C57.81 13.9199 57.8 13.9999 57.79 14.0699C57.77 14.1399 57.75 14.2199 57.72 14.2899C57.66 14.4499 57.55 14.5199 57.39 14.4799C56.89 14.3499 56.53 14.0599 56.32 13.6199C56.12 13.2299 55.97 12.8199 55.86 12.3999C55.75 11.9799 55.68 11.5599 55.64 11.1199C55.59 10.5899 55.55 10.0599 55.54 9.51993C55.52 8.98993 55.53 8.45993 55.56 7.91993C55.58 7.60993 55.58 7.29993 55.57 6.99993C55.55 6.69993 55.54 6.38993 55.53 6.07993C55.53 6.04993 55.53 6.02993 55.52 6.00993C55.51 5.98993 55.5 5.94993 55.49 5.89993C55.43 5.98993 55.38 6.07993 55.33 6.15993C55.28 6.23993 55.24 6.30993 55.21 6.38993C55.07 6.67993 54.95 6.96993 54.84 7.25993C54.73 7.54993 54.64 7.85993 54.58 8.16993C54.56 8.27993 54.53 8.38993 54.5 8.49993C54.47 8.60993 54.44 8.71993 54.41 8.82993C54.38 8.95993 54.35 9.09993 54.33 9.22993C54.31 9.36993 54.28 9.49993 54.26 9.62993C54.19 9.95993 54.13 10.2999 54.08 10.6299C54.03 10.9399 53.98 11.2499 53.95 11.5499C53.91 11.8599 53.87 12.1599 53.83 12.4699C53.8 12.6499 53.77 12.8199 53.74 12.9899C53.7 13.1599 53.65 13.3299 53.59 13.4999C53.53 13.6599 53.45 13.7899 53.33 13.9099C53.22 14.0199 53.1 14.1399 52.99 14.2399C52.92 14.3099 52.84 14.3599 52.75 14.4099C52.66 14.4599 52.57 14.5099 52.48 14.5499C52.36 14.6099 52.25 14.6199 52.17 14.5899C52.09 14.5599 52.01 14.4899 51.93 14.3799C51.84 14.2399 51.76 14.0999 51.69 13.9499C51.62 13.7999 51.58 13.6399 51.55 13.4799C51.52 13.2699 51.49 13.0599 51.47 12.8599C51.45 12.6599 51.43 12.4499 51.4 12.2399C51.39 12.0999 51.37 11.9499 51.35 11.8099C51.33 11.6699 51.31 11.5199 51.29 11.3799C51.23 10.8899 51.18 10.4099 51.14 9.92993C51.1 9.44993 51.07 8.95993 51.07 8.46993C51.06 7.68993 51.05 6.90993 51.04 6.13993C51.02 5.40993 51.01 4.62993 51 3.84993C51 3.28993 51 2.72993 51 2.17993C51.01 1.62993 51.01 1.06993 51.01 0.519931C51.01 0.399931 51.05 0.279931 51.12 0.189931C51.2 0.0899306 51.3 0.0299306 51.44 0.00993056C51.64 -0.0100694 51.81 0.0399306 51.96 0.149931C52.08 0.229931 52.17 0.319931 52.22 0.439931C52.28 0.549931 52.32 0.669931 52.35 0.799931C52.41 1.03993 52.44 1.28993 52.45 1.52993C52.46 1.76993 52.47 2.01993 52.48 2.25993C52.49 2.47993 52.5 2.69993 52.51 2.91993C52.52 3.13993 52.54 3.34993 52.55 3.56993C52.56 3.68993 52.56 3.81993 52.56 3.93993C52.56 4.05993 52.56 4.18993 52.57 4.30993C52.58 4.42993 52.58 4.54993 52.59 4.65993C52.59 4.77993 52.6 4.89993 52.61 5.00993C52.62 5.20993 52.64 5.41993 52.65 5.61993C52.67 5.81993 52.68 6.01993 52.7 6.22993C52.73 6.50993 52.74 6.77993 52.73 7.04993C52.72 7.31993 52.71 7.58993 52.7 7.86993C52.69 7.97993 52.7 8.08993 52.71 8.20993C52.72 8.31993 52.74 8.42993 52.75 8.53993C52.76 8.65993 52.76 8.78993 52.77 8.90993C52.78 9.02993 52.79 9.15993 52.8 9.28993C52.81 9.46993 52.82 9.63993 52.83 9.81993C52.84 9.99993 52.85 10.1799 52.86 10.3599C52.87 10.5199 52.88 10.6799 52.89 10.8399C52.9 10.9999 52.91 11.1599 52.92 11.3199C52.93 11.3499 52.93 11.3799 52.94 11.4099C52.95 11.4399 52.95 11.4699 52.96 11.4999C53.01 11.5099 53.03 11.5099 53.04 11.4999Z" fill="white"/>
<path d="M65.34 10.6699C65.22 10.9499 65.09 11.2199 64.96 11.4899C64.83 11.7599 64.7 12.0299 64.55 12.2999C64.42 12.5599 64.27 12.7999 64.1 13.0299C63.93 13.2599 63.75 13.4899 63.56 13.6999C63.27 14.0399 62.94 14.2999 62.58 14.4699C62.22 14.6399 61.8 14.6999 61.32 14.6499C60.83 14.5999 60.41 14.4399 60.06 14.1899C59.71 13.9299 59.42 13.5899 59.19 13.1599C59.03 12.8499 58.91 12.5199 58.82 12.1999C58.73 11.8799 58.67 11.5399 58.64 11.1899C58.61 10.9199 58.59 10.6599 58.6 10.3899C58.6 10.1299 58.61 9.85994 58.62 9.58994C58.63 9.30994 58.66 9.03995 58.71 8.76995C58.76 8.49995 58.82 8.22994 58.9 7.95994C59.01 7.56994 59.15 7.18994 59.31 6.81994C59.47 6.44994 59.68 6.10994 59.95 5.78994C60.11 5.58994 60.28 5.41994 60.47 5.25994C60.66 5.10994 60.87 4.96994 61.09 4.84994C61.28 4.74994 61.48 4.66994 61.68 4.60994C61.88 4.54994 62.09 4.50994 62.3 4.49994C62.54 4.48994 62.77 4.49994 63 4.53994C63.23 4.57994 63.45 4.66994 63.66 4.82994C63.71 4.86994 63.77 4.90994 63.82 4.93994C63.88 4.97994 63.93 5.00994 63.99 5.03994C64.19 5.16994 64.37 5.32994 64.52 5.50994C64.67 5.68994 64.8 5.88994 64.93 6.09994C65.05 6.30994 65.13 6.52994 65.17 6.76994C65.2 7.00994 65.2 7.24994 65.15 7.49994C64.99 8.30994 64.61 9.00994 64 9.59995C63.82 9.76995 63.64 9.93995 63.46 10.0999C63.28 10.2599 63.08 10.4099 62.88 10.5499C62.59 10.7399 62.29 10.8899 61.98 11.0099C61.67 11.1299 61.33 11.1899 60.98 11.2099C60.97 11.2099 60.94 11.2199 60.89 11.2299C60.94 11.5099 61 11.7799 61.1 12.0299C61.19 12.2799 61.33 12.5099 61.5 12.7199C61.65 12.8899 61.82 13.0199 62.01 13.0999C62.2 13.1899 62.4 13.2299 62.63 13.2499C62.72 13.2599 62.8 13.2399 62.87 13.1999C62.94 13.1599 63.01 13.1099 63.08 13.0599C63.23 12.9299 63.37 12.7899 63.49 12.6299C63.61 12.4799 63.73 12.3099 63.83 12.1399C63.98 11.9099 64.12 11.6799 64.24 11.4399C64.36 11.1999 64.48 10.9599 64.57 10.7099C64.62 10.5899 64.68 10.4899 64.75 10.4099C64.82 10.3299 64.92 10.2799 65.05 10.2599C65.13 10.2699 65.2 10.2899 65.26 10.3199C65.31 10.3499 65.34 10.3999 65.37 10.4499C65.39 10.5099 65.38 10.5799 65.34 10.6699ZM60.78 10.6599C60.87 10.6499 60.94 10.6399 61.01 10.6299C61.08 10.6199 61.15 10.6099 61.21 10.5899C61.44 10.5399 61.66 10.4599 61.86 10.3599C62.07 10.2599 62.26 10.1399 62.45 9.99994C62.6 9.88994 62.75 9.77994 62.88 9.65994C63.02 9.54994 63.15 9.41994 63.28 9.29994C63.56 9.04994 63.77 8.76994 63.93 8.44994C64.09 8.12994 64.2 7.79994 64.26 7.43994C64.29 7.27994 64.29 7.11994 64.26 6.96994C64.23 6.81994 64.15 6.67994 64.04 6.54994C63.83 6.29994 63.58 6.13994 63.3 6.05994C63.01 5.97994 62.72 6.01994 62.43 6.15994C62.17 6.27994 61.95 6.44994 61.76 6.64994C61.57 6.84994 61.42 7.07994 61.29 7.31994C61.08 7.73994 60.93 8.18994 60.84 8.66994C60.79 8.92994 60.75 9.17994 60.73 9.43994C60.71 9.69994 60.7 9.95994 60.72 10.2199C60.73 10.2899 60.73 10.3599 60.74 10.4299C60.76 10.5099 60.77 10.5799 60.78 10.6599Z" fill="white"/>
</g>
<defs>
<clipPath id="clip0_2_1291">
<rect width="105.65" height="64.3" fill="white"/>
</clipPath>
</defs>
</svg>
