<svg width="41" height="40" viewBox="0 0 41 40" fill="none" xmlns="http://www.w3.org/2000/svg">
<path d="M35.0027 0H5.00039C2.24184 0 0 2.24146 0 4.99953V34.9967C0 37.7532 2.24184 39.9963 5.00039 39.9963H35.0027C37.7596 39.9963 40.0031 37.7532 40.0031 34.9967V4.99953C40.0031 2.24146 37.7596 0 35.0027 0Z" fill="#3B5999"/>
<path d="M27.5016 19.9982V14.9987C27.5016 13.6189 28.6216 13.7489 30.0017 13.7489H32.5019V7.49951H27.5016C23.3579 7.49951 20.001 10.8558 20.001 14.9987V19.9982H15.0006V26.2476H20.001V39.9962H27.5016V26.2476H31.2518L33.752 19.9982H27.5016Z" fill="white"/>
</svg>
