<svg width="41" height="40" viewBox="0 0 41 40" fill="none" xmlns="http://www.w3.org/2000/svg">
<path d="M20.0221 39.9963C31.0686 39.9963 40.0236 31.0428 40.0236 19.9981C40.0236 8.95347 31.0686 0 20.0221 0C8.97551 0 0.0205078 8.95347 0.0205078 19.9981C0.0205078 31.0428 8.97551 39.9963 20.0221 39.9963Z" fill="#273B7A"/>
<path d="M39.5732 24.229L27.344 12.002L17.1485 12.8156L11.9405 17.569L12.6088 27.909L24.188 39.5598C31.8688 37.9326 37.9205 31.8988 39.5732 24.229Z" fill="#121149"/>
<path d="M20.4588 18.1588V21.9907H26.4528C25.6027 24.7338 23.0456 26.7263 20.0227 26.7263C16.3054 26.7263 13.2919 23.7135 13.2919 19.9968C13.2917 16.2804 16.3051 13.2675 20.0224 13.2675C21.7597 13.2675 23.338 13.9312 24.5322 15.0114L27.3446 12.0011C25.4153 10.2342 22.8452 9.15527 20.0224 9.15527C14.0335 9.15527 9.17849 14.0092 9.17849 19.9969C9.17849 25.9847 14.0335 30.8386 20.0225 30.8386C26.0115 30.8386 30.8665 25.9846 30.8665 19.9969C30.8665 19.3697 30.8086 18.7566 30.7055 18.1588H20.4588Z" fill="#4285F4"/>
<path d="M20.022 13.2685C21.7592 13.2685 23.3375 13.9324 24.5317 15.0128L27.3442 12.0018C25.4149 10.2344 22.8447 9.15527 20.022 9.15527C15.8688 9.15527 12.2627 11.4911 10.4411 14.9196L13.7505 17.5699C14.7257 15.0549 17.1625 13.2685 20.022 13.2685Z" fill="#EA4335"/>
<path d="M13.2918 19.9995C13.2918 19.1417 13.4584 18.3246 13.751 17.5702L10.4416 14.9199C9.6365 16.4354 9.17849 18.1637 9.17849 19.9995C9.17849 21.8438 9.64033 23.5799 10.4524 25.1004L13.7421 22.4046C13.4555 21.6565 13.2918 20.848 13.2918 19.9995Z" fill="#FBBC05"/>
<path d="M23.7648 25.5884C22.6943 26.3066 21.409 26.7292 20.023 26.7292C17.1541 26.7292 14.7112 24.9313 13.7423 22.4033L10.4526 25.0992C12.2779 28.5162 15.8781 30.8423 20.0227 30.8423C22.7144 30.8423 25.1749 29.8594 27.0707 28.236L23.7648 25.5884Z" fill="#34A853"/>
<path d="M30.8662 19.9972C30.8662 19.3698 30.8083 18.7566 30.7052 18.1587H20.4585V21.9914H26.4525C25.9922 23.4772 25.0286 24.739 23.7643 25.5872L27.0702 28.2349C29.3926 26.2459 30.8662 23.2946 30.8662 19.9972Z" fill="#4285F4"/>
</svg>
