<svg width="41" height="40" viewBox="0 0 41 40" fill="none" xmlns="http://www.w3.org/2000/svg">
<path d="M39.325 7.15353C38.9609 3.74275 36.2666 1.04844 32.8548 0.684717C24.2988 -0.228239 15.7178 -0.228239 7.16218 0.684717C3.75035 1.04874 1.05575 3.74275 0.691643 7.15353C-0.221514 15.7073 -0.221514 24.2867 0.691643 32.8405C1.05575 36.2516 3.75035 38.9456 7.16187 39.3096C15.7175 40.2226 24.2988 40.2226 32.8548 39.3096C36.2666 38.9456 38.9609 36.2516 39.325 32.8405C40.2382 24.2867 40.2382 15.7076 39.325 7.15353Z" fill="url(#paint0_radial_2_1617)"/>
<path d="M37.1494 8.59969C36.8265 5.57312 34.4356 3.18244 31.408 2.85931C23.8158 2.0495 16.2011 2.0495 8.60896 2.85931C5.58168 3.18244 3.19044 5.57312 2.86723 8.59969C2.05724 16.1901 2.05724 23.803 2.86723 31.3931C3.19044 34.4199 5.58168 36.8106 8.60896 37.1335C16.2011 37.9436 23.8158 37.9436 31.4077 37.1335C34.4353 36.8106 36.8265 34.4199 37.1494 31.3931C37.9597 23.803 37.9597 16.1901 37.1494 8.59969Z" fill="url(#paint1_linear_2_1617)"/>
<path d="M0.605301 32.0083C0.632769 32.2848 0.661152 32.5613 0.690757 32.8378C1.05486 36.2492 3.74947 38.9437 7.16129 39.3078C15.7169 40.2209 24.2982 40.2209 32.8539 39.3078C36.2657 38.9437 38.96 36.2492 39.3241 32.8378C39.3537 32.5613 39.3821 32.2848 39.4099 32.0083H0.605301Z" fill="url(#paint2_linear_2_1617)"/>
<path d="M39.3243 32.8425C39.815 28.2463 40.0415 23.6428 40.0049 19.0399L30.8611 9.89822C29.7188 8.5944 28.0502 7.78062 26.0896 7.71013C22.0577 7.56489 18.0129 7.57221 13.9803 7.71074C10.631 7.82608 8.28893 10.0767 7.6883 13.3846C7.58239 13.9687 7.51891 14.5603 7.43559 15.1486V24.8462C7.48168 25.1605 7.54943 25.4733 7.57049 25.7894C7.70478 27.8014 8.53187 29.5248 9.85612 30.6907L19.161 39.9932C23.7274 40.0252 28.2941 39.7982 32.8541 39.3115C36.2659 38.9475 38.9602 36.2535 39.3243 32.8425Z" fill="url(#paint3_linear_2_1617)"/>
<path d="M39.3247 32.8391C38.9609 36.2496 36.2657 38.9442 32.8544 39.3079C28.295 39.7943 23.7274 40.0216 19.1616 39.9896L9.87071 30.7007C10.9478 31.6433 12.3517 32.2172 13.9808 32.2786C18.0125 32.4299 22.0583 32.426 26.09 32.2807C29.7365 32.1489 32.3753 29.4506 32.4891 25.8049C32.6106 21.9339 32.6106 18.0529 32.4891 14.182C32.4372 12.5001 31.8467 11.0202 30.8676 9.90039L40.0056 19.0364C40.0416 23.6387 39.8151 28.2429 39.3247 32.8391Z" fill="url(#paint4_linear_2_1617)"/>
<path d="M24.7288 15.667C23.5574 14.3919 21.8767 13.5918 20.0086 13.5918C16.4701 13.5918 13.6012 16.46 13.6012 19.9978C13.6012 21.8655 14.4015 23.5458 15.6769 24.7169L30.5013 39.5382C31.286 39.4698 32.0706 39.3938 32.8547 39.3102C36.2665 38.9462 38.9611 36.2522 39.3252 32.8411C39.4088 32.0572 39.4848 31.2727 39.5532 30.4882L24.7288 15.667Z" fill="url(#paint5_linear_2_1617)"/>
<path d="M39.9325 24.3052L28.0017 12.3777C27.7233 12.0125 27.2848 11.7754 26.79 11.7754C25.9483 11.7754 25.2656 12.4576 25.2656 13.2995C25.2656 13.7941 25.5027 14.2325 25.868 14.5108L39.7191 28.3587C39.8131 27.0079 39.8843 25.6566 39.9325 24.3052Z" fill="url(#paint6_linear_2_1617)"/>
<path d="M7.43559 15.1485C7.51891 14.5602 7.58239 13.9686 7.6883 13.3846C8.28862 10.0767 10.631 7.82608 13.9803 7.71074C18.0129 7.57222 22.0577 7.56489 26.0897 7.71013C29.735 7.84134 32.3749 10.5399 32.4888 14.1855C32.6099 18.0566 32.6099 21.9372 32.4888 25.8084C32.3749 29.454 29.7359 32.1522 26.09 32.2838C22.058 32.4293 18.0123 32.433 13.9806 32.2816C10.3347 32.1446 7.81434 29.44 7.57049 25.7888C7.54943 25.473 7.48168 25.16 7.43559 24.8457C7.43559 21.6132 7.43559 18.3807 7.43559 15.1485ZM20.011 30.1232C21.8562 30.1232 23.7033 30.1784 25.5461 30.1103C28.4354 30.0032 30.2126 28.2793 30.28 25.3934C30.3637 21.7975 30.3637 18.1967 30.28 14.6005C30.2126 11.7152 28.4342 9.95098 25.5461 9.88965C21.8804 9.81214 18.2106 9.81276 14.5449 9.88965C11.6788 9.94976 9.89641 11.6783 9.81859 14.5318C9.7197 18.1732 9.7197 21.821 9.81859 25.4624C9.89641 28.3156 11.6788 30.0042 14.5452 30.1103C16.3648 30.1781 18.189 30.1232 20.011 30.1232Z" fill="url(#paint7_linear_2_1617)"/>
<path d="M7.43559 15.1485C7.51891 14.5602 7.58239 13.9686 7.6883 13.3846C8.28862 10.0767 10.631 7.82608 13.9803 7.71074C18.0129 7.57222 22.0577 7.56489 26.0897 7.71013C29.735 7.84134 32.3749 10.5399 32.4888 14.1855C32.6099 18.0566 32.6099 21.9372 32.4888 25.8084C32.3749 29.454 29.7359 32.1522 26.09 32.2838C22.058 32.4293 18.0123 32.433 13.9806 32.2816C10.3347 32.1446 7.81434 29.44 7.57049 25.7888C7.54943 25.473 7.48168 25.16 7.43559 24.8457C7.43559 21.6132 7.43559 18.3807 7.43559 15.1485ZM20.011 30.1232C21.8562 30.1232 23.7033 30.1784 25.5461 30.1103C28.4354 30.0032 30.2126 28.2793 30.28 25.3934C30.3637 21.7975 30.3637 18.1967 30.28 14.6005C30.2126 11.7152 28.4342 9.95098 25.5461 9.88965C21.8804 9.81214 18.2106 9.81276 14.5449 9.88965C11.6788 9.94976 9.89641 11.6783 9.81859 14.5318C9.7197 18.1732 9.7197 21.821 9.81859 25.4624C9.89641 28.3156 11.6788 30.0042 14.5452 30.1103C16.3648 30.1781 18.189 30.1232 20.011 30.1232Z" fill="white"/>
<path d="M20.0087 13.5928C16.4702 13.5928 13.6013 16.4607 13.6013 19.9984C13.6013 23.5364 16.4702 26.4043 20.0087 26.4043C23.5475 26.4043 26.4161 23.5364 26.4161 19.9984C26.4161 16.4607 23.5475 13.5928 20.0087 13.5928ZM20.0087 24.1988C17.6883 24.1988 15.8073 22.3183 15.8073 19.9984C15.8073 17.6785 17.6883 15.798 20.0087 15.798C22.3291 15.798 24.2101 17.6785 24.2101 19.9984C24.2101 22.3183 22.3291 24.1988 20.0087 24.1988Z" fill="white"/>
<path d="M28.3143 13.2969C28.3143 14.1386 27.6319 14.821 26.7901 14.821C25.9484 14.821 25.2657 14.1386 25.2657 13.2969C25.2657 12.4549 25.9484 11.7725 26.7901 11.7725C27.6319 11.7725 28.3143 12.4549 28.3143 13.2969Z" fill="white"/>
<defs>
<radialGradient id="paint0_radial_2_1617" cx="0" cy="0" r="1" gradientUnits="userSpaceOnUse" gradientTransform="translate(8.20719 34.9519) scale(44.1164 44.1067)">
<stop stop-color="#FAE100"/>
<stop offset="0.0544" stop-color="#FADC04"/>
<stop offset="0.1167" stop-color="#FBCE0E"/>
<stop offset="0.1829" stop-color="#FCB720"/>
<stop offset="0.2514" stop-color="#FE9838"/>
<stop offset="0.3054" stop-color="#FF7950"/>
<stop offset="0.4922" stop-color="#FF1C74"/>
<stop offset="1" stop-color="#6C1CD1"/>
</radialGradient>
<linearGradient id="paint1_linear_2_1617" x1="15.3497" y1="17.3766" x2="-52.4127" y2="-20.7487" gradientUnits="userSpaceOnUse">
<stop stop-color="#A1B5D8" stop-opacity="0"/>
<stop offset="0.3094" stop-color="#90A2BD" stop-opacity="0.309804"/>
<stop offset="0.7554" stop-color="#7C8B9C" stop-opacity="0.756863"/>
<stop offset="1" stop-color="#748290"/>
</linearGradient>
<linearGradient id="paint2_linear_2_1617" x1="20.0075" y1="35.3023" x2="20.0075" y2="41.5375" gradientUnits="userSpaceOnUse">
<stop stop-color="#FAE100" stop-opacity="0"/>
<stop offset="0.3068" stop-color="#FCA800" stop-opacity="0.305882"/>
<stop offset="0.6275" stop-color="#FE7300" stop-opacity="0.627451"/>
<stop offset="0.8685" stop-color="#FF5200" stop-opacity="0.866667"/>
<stop offset="1" stop-color="#FF4500"/>
</linearGradient>
<linearGradient id="paint3_linear_2_1617" x1="17.7319" y1="17.6674" x2="7.834" y2="7.76731" gradientUnits="userSpaceOnUse">
<stop stop-color="#833AB4" stop-opacity="0"/>
<stop offset="1" stop-color="#833AB4"/>
</linearGradient>
<linearGradient id="paint4_linear_2_1617" x1="27.4226" y1="36.5781" x2="22.4833" y2="13.2879" gradientUnits="userSpaceOnUse">
<stop stop-color="#833AB4" stop-opacity="0"/>
<stop offset="1" stop-color="#833AB4"/>
</linearGradient>
<linearGradient id="paint5_linear_2_1617" x1="29.3034" y1="29.2906" x2="9.46059" y2="9.44345" gradientUnits="userSpaceOnUse">
<stop stop-color="#833AB4" stop-opacity="0"/>
<stop offset="1" stop-color="#833AB4"/>
</linearGradient>
<linearGradient id="paint6_linear_2_1617" x1="30.7755" y1="17.2838" x2="24.2141" y2="10.7208" gradientUnits="userSpaceOnUse">
<stop stop-color="#833AB4" stop-opacity="0"/>
<stop offset="1" stop-color="#833AB4"/>
</linearGradient>
<linearGradient id="paint7_linear_2_1617" x1="27.9503" y1="12.1136" x2="11.772" y2="28.2958" gradientUnits="userSpaceOnUse">
<stop stop-color="#833AB4"/>
<stop offset="0.0922" stop-color="#9C3495"/>
<stop offset="0.2927" stop-color="#DC2546"/>
<stop offset="0.392" stop-color="#FD1D1D"/>
<stop offset="0.5589" stop-color="#FC6831"/>
<stop offset="0.6887" stop-color="#FC9B40"/>
<stop offset="0.7521" stop-color="#FCAF45"/>
<stop offset="0.7806" stop-color="#FDB750"/>
<stop offset="0.8656" stop-color="#FECB6A"/>
<stop offset="0.9415" stop-color="#FFD87A"/>
<stop offset="1" stop-color="#FFDC80"/>
</linearGradient>
</defs>
</svg>
