<svg width="168" height="41" viewBox="0 0 168 41" fill="none" xmlns="http://www.w3.org/2000/svg">
<path d="M71.376 20.776L66.768 10.36L62.208 20.776L58.896 11.2H54.096L61.368 28.984L66.768 18.856L72.192 28.984L79.464 11.2H74.64L71.376 20.776ZM81.4037 24.544C81.4037 24.272 81.4677 24.048 81.5957 23.872C81.7237 23.68 81.9157 23.536 82.1717 23.44C82.4277 23.344 82.7717 23.296 83.2037 23.296C83.7637 23.296 84.2917 23.376 84.7877 23.536C85.2997 23.68 85.7477 23.896 86.1317 24.184V22.576C85.9397 22.368 85.6517 22.168 85.2677 21.976C84.8837 21.784 84.4197 21.624 83.8757 21.496C83.3477 21.368 82.7477 21.304 82.0757 21.304C80.6997 21.304 79.6357 21.616 78.8837 22.24C78.1317 22.848 77.7557 23.68 77.7557 24.736C77.7557 25.488 77.9317 26.128 78.2837 26.656C78.6517 27.184 79.1317 27.584 79.7237 27.856C80.3317 28.112 80.9877 28.24 81.6917 28.24C82.3957 28.24 83.0517 28.12 83.6597 27.88C84.2677 27.624 84.7637 27.256 85.1477 26.776C85.5317 26.28 85.7237 25.68 85.7237 24.976L85.3397 23.536C85.3397 24.048 85.2277 24.48 85.0037 24.832C84.7797 25.184 84.4917 25.448 84.1397 25.624C83.7877 25.8 83.4037 25.888 82.9877 25.888C82.6997 25.888 82.4357 25.84 82.1957 25.744C81.9557 25.632 81.7637 25.48 81.6197 25.288C81.4757 25.08 81.4037 24.832 81.4037 24.544ZM79.7957 20.344C79.9557 20.248 80.2117 20.128 80.5637 19.984C80.9157 19.824 81.3237 19.688 81.7877 19.576C82.2677 19.464 82.7557 19.408 83.2517 19.408C83.5877 19.408 83.8837 19.44 84.1397 19.504C84.4117 19.568 84.6357 19.672 84.8117 19.816C84.9877 19.96 85.1157 20.136 85.1957 20.344C85.2917 20.536 85.3397 20.768 85.3397 21.04V28H88.8197V20.224C88.8197 19.456 88.5957 18.808 88.1477 18.28C87.6997 17.752 87.0917 17.352 86.3237 17.08C85.5557 16.792 84.6837 16.648 83.7077 16.648C82.6677 16.648 81.7077 16.784 80.8277 17.056C79.9477 17.328 79.1957 17.616 78.5717 17.92L79.7957 20.344ZM90.2372 16.96V19.96H97.6292V16.96H90.2372ZM92.1812 13.12V28H95.6612V13.12H92.1812ZM102.222 22.48C102.222 21.936 102.35 21.448 102.606 21.016C102.862 20.584 103.214 20.24 103.662 19.984C104.126 19.728 104.622 19.6 105.15 19.6C105.55 19.6 105.958 19.664 106.374 19.792C106.79 19.92 107.174 20.104 107.526 20.344C107.894 20.584 108.19 20.88 108.414 21.232V17.68C108.03 17.408 107.55 17.184 106.974 17.008C106.398 16.816 105.694 16.72 104.862 16.72C103.646 16.72 102.55 16.96 101.574 17.44C100.614 17.92 99.8538 18.592 99.2938 19.456C98.7498 20.304 98.4778 21.312 98.4778 22.48C98.4778 23.632 98.7498 24.64 99.2938 25.504C99.8538 26.368 100.614 27.04 101.574 27.52C102.55 28 103.646 28.24 104.862 28.24C105.694 28.24 106.398 28.152 106.974 27.976C107.55 27.784 108.03 27.536 108.414 27.232V23.704C108.19 24.056 107.902 24.352 107.55 24.592C107.214 24.832 106.838 25.024 106.422 25.168C106.022 25.296 105.598 25.36 105.15 25.36C104.622 25.36 104.126 25.24 103.662 25C103.214 24.76 102.862 24.432 102.606 24.016C102.35 23.584 102.222 23.072 102.222 22.48ZM114.681 9.28H111.033V28H114.681V9.28ZM118.209 21.28V28H121.833V20.752C121.833 19.84 121.705 19.072 121.449 18.448C121.193 17.824 120.785 17.352 120.225 17.032C119.681 16.712 118.953 16.552 118.041 16.552C117.129 16.552 116.377 16.768 115.785 17.2C115.209 17.616 114.777 18.184 114.489 18.904C114.201 19.608 114.057 20.4 114.057 21.28H114.681C114.681 20.848 114.761 20.488 114.921 20.2C115.081 19.896 115.305 19.664 115.593 19.504C115.881 19.328 116.217 19.24 116.601 19.24C117.193 19.24 117.609 19.416 117.849 19.768C118.089 20.12 118.209 20.624 118.209 21.28ZM124.65 9.28V28H128.13V9.28H124.65ZM132.138 16.96L127.41 21.52L132.69 28H136.938L131.754 21.52L136.458 16.96H132.138ZM141.333 24.544C141.333 24.272 141.397 24.048 141.525 23.872C141.653 23.68 141.845 23.536 142.101 23.44C142.357 23.344 142.701 23.296 143.133 23.296C143.693 23.296 144.221 23.376 144.717 23.536C145.229 23.68 145.677 23.896 146.061 24.184V22.576C145.869 22.368 145.581 22.168 145.197 21.976C144.813 21.784 144.349 21.624 143.805 21.496C143.277 21.368 142.677 21.304 142.005 21.304C140.629 21.304 139.565 21.616 138.813 22.24C138.061 22.848 137.685 23.68 137.685 24.736C137.685 25.488 137.861 26.128 138.213 26.656C138.581 27.184 139.061 27.584 139.653 27.856C140.261 28.112 140.917 28.24 141.621 28.24C142.325 28.24 142.981 28.12 143.589 27.88C144.197 27.624 144.693 27.256 145.077 26.776C145.461 26.28 145.653 25.68 145.653 24.976L145.269 23.536C145.269 24.048 145.157 24.48 144.933 24.832C144.709 25.184 144.421 25.448 144.069 25.624C143.717 25.8 143.333 25.888 142.917 25.888C142.629 25.888 142.365 25.84 142.125 25.744C141.885 25.632 141.693 25.48 141.549 25.288C141.405 25.08 141.333 24.832 141.333 24.544ZM139.725 20.344C139.885 20.248 140.141 20.128 140.493 19.984C140.845 19.824 141.253 19.688 141.717 19.576C142.197 19.464 142.685 19.408 143.181 19.408C143.517 19.408 143.813 19.44 144.069 19.504C144.341 19.568 144.565 19.672 144.741 19.816C144.917 19.96 145.045 20.136 145.125 20.344C145.221 20.536 145.269 20.768 145.269 21.04V28H148.749V20.224C148.749 19.456 148.525 18.808 148.077 18.28C147.629 17.752 147.021 17.352 146.253 17.08C145.485 16.792 144.613 16.648 143.637 16.648C142.597 16.648 141.637 16.784 140.757 17.056C139.877 17.328 139.125 17.616 138.501 17.92L139.725 20.344ZM155.039 16.96H151.463V28H155.039V16.96ZM158.231 20.704L159.791 17.608C159.599 17.32 159.319 17.096 158.951 16.936C158.583 16.776 158.199 16.696 157.799 16.696C157.191 16.696 156.607 16.896 156.047 17.296C155.487 17.696 155.031 18.24 154.679 18.928C154.343 19.616 154.175 20.4 154.175 21.28L155.039 22.552C155.039 22.024 155.111 21.576 155.255 21.208C155.399 20.84 155.607 20.56 155.879 20.368C156.151 20.176 156.463 20.08 156.815 20.08C157.135 20.08 157.399 20.136 157.607 20.248C157.831 20.36 158.039 20.512 158.231 20.704ZM160.034 16.96V19.96H167.426V16.96H160.034ZM161.978 13.12V28H165.458V13.12H161.978Z" fill="white"/>
<g clip-path="url(#clip0_2_1665)">
<path d="M32.7566 6.1014V3.34167" stroke="#D8A688" stroke-width="3" stroke-miterlimit="10" stroke-linecap="round" stroke-linejoin="round"/>
<path d="M15.7012 19.5121L5.67065 17.9283L15.7012 16.3445C16.5763 16.206 17.396 16.8038 17.5346 17.6789C17.6732 18.5539 17.0753 19.3735 16.2001 19.5121C16.0338 19.5398 15.8596 19.5359 15.7012 19.5121Z" fill="#D8A688"/>
<path d="M14.9092 24.2952L0 22.7114L14.9092 21.1276C15.7843 21.0365 16.5684 21.67 16.6594 22.5451C16.7505 23.4201 16.1169 24.2041 15.2458 24.2952C15.1349 24.307 15.0161 24.307 14.9092 24.2952Z" fill="#D8A688"/>
<path d="M15.7011 29.2127L7.53174 27.6289L15.7011 26.0452C16.5762 25.8749 17.4237 26.449 17.5939 27.3201C17.7642 28.1951 17.19 29.0425 16.3188 29.2127C16.109 29.2523 15.8951 29.2484 15.7011 29.2127Z" fill="#D8A688"/>
<path d="M49.4161 22.7588C49.4161 31.9566 41.9595 39.4162 32.7566 39.4162C23.5537 39.4162 16.0972 31.9566 16.0972 22.7588C16.0972 13.561 23.5537 6.10144 32.7566 6.10144C41.9595 6.10144 49.4161 13.5571 49.4161 22.7588Z" stroke="#D8A688" stroke-width="3" stroke-miterlimit="10" stroke-linecap="round" stroke-linejoin="round"/>
<path d="M42.6604 22.7589C42.6604 28.2269 38.2253 32.6614 32.7566 32.6614C27.2879 32.6614 22.8528 28.2269 22.8528 22.7589C22.8528 17.2909 27.2879 12.8563 32.7566 12.8563C38.2253 12.8524 42.6604 17.2869 42.6604 22.7589Z" fill="#FFE0AE"/>
<path d="M37.0412 1.58374H28.4719" stroke="#D8A688" stroke-width="3" stroke-miterlimit="10" stroke-linecap="round" stroke-linejoin="round"/>
<path d="M37.2075 15.6279L37.9045 14.5114" stroke="#090909" stroke-width="2" stroke-miterlimit="10" stroke-linecap="round" stroke-linejoin="round"/>
<path d="M28.4957 29.9888L27.7433 31.2083" stroke="#090909" stroke-width="2" stroke-miterlimit="10" stroke-linecap="round" stroke-linejoin="round"/>
<path d="M32.7567 14.4083C32.7567 14.4083 32.7369 14.3964 32.7052 14.3766C32.6735 14.3568 32.6141 14.3252 32.5626 14.2856C32.4517 14.2064 32.3131 14.0955 32.1864 13.9649C31.9369 13.6996 31.7627 13.3432 31.7667 12.9869C31.7627 12.6305 31.933 12.2742 32.1825 12.0089C32.3092 11.8743 32.4478 11.7634 32.5587 11.6882C32.6101 11.6486 32.6695 11.6169 32.7012 11.5971C32.7369 11.5773 32.7567 11.5654 32.7567 11.5654C32.7567 11.5654 32.7765 11.5773 32.8121 11.5971C32.8438 11.6169 32.9071 11.6486 32.9546 11.6882C33.0695 11.7674 33.2041 11.8782 33.3308 12.0089C33.5803 12.2742 33.7506 12.6305 33.7466 12.9869C33.7506 13.3432 33.5764 13.6996 33.3269 13.9649C33.2002 14.0995 33.0655 14.2103 32.9507 14.2856C32.9032 14.3252 32.8398 14.3568 32.8081 14.3766C32.7765 14.4004 32.7567 14.4083 32.7567 14.4083Z" fill="#090909"/>
<path d="M32.9507 31.2083C32.9507 31.2083 32.9705 31.2201 33.0022 31.2399C33.0339 31.2597 33.0933 31.2914 33.1448 31.331C33.2557 31.4102 33.3943 31.521 33.521 31.6517C33.7705 31.917 33.9447 32.2733 33.9407 32.6297C33.9447 32.986 33.7744 33.3424 33.5249 33.6077C33.3982 33.7423 33.2596 33.8532 33.1487 33.9284C33.0973 33.968 33.0379 33.9997 33.0062 34.0195C32.9705 34.0393 32.9507 34.0511 32.9507 34.0511C32.9507 34.0511 32.9309 34.0393 32.8953 34.0195C32.8636 33.9997 32.8003 33.968 32.7527 33.9284C32.6379 33.8492 32.5033 33.7383 32.3766 33.6077C32.1271 33.3424 31.9568 32.986 31.9608 32.6297C31.9568 32.2733 32.131 31.917 32.3805 31.6517C32.5072 31.5171 32.6419 31.4062 32.7567 31.331C32.8042 31.2914 32.8676 31.2597 32.8993 31.2399C32.9309 31.2162 32.9507 31.2083 32.9507 31.2083Z" fill="#090909"/>
<path d="M41.2506 22.7112C41.2506 22.7112 41.2625 22.6914 41.2823 22.6598C41.3021 22.6281 41.3338 22.5687 41.3734 22.5172C41.4526 22.4064 41.5634 22.2678 41.6941 22.1411C41.9594 21.8916 42.3158 21.7174 42.6722 21.7214C43.0286 21.7174 43.385 21.8877 43.6503 22.1371C43.785 22.2638 43.8958 22.4024 43.9711 22.5133C44.0107 22.5647 44.0424 22.6241 44.0622 22.6558C44.082 22.6914 44.0938 22.7112 44.0938 22.7112C44.0938 22.7112 44.082 22.731 44.0622 22.7667C44.0424 22.7983 44.0107 22.8617 43.9711 22.9092C43.8919 23.024 43.781 23.1587 43.6503 23.2854C43.385 23.5348 43.0286 23.7051 42.6722 23.7011C42.3158 23.7051 41.9594 23.5308 41.6941 23.2814C41.5595 23.1547 41.4486 23.0201 41.3734 22.9053C41.3338 22.8577 41.3021 22.7944 41.2823 22.7627C41.2625 22.731 41.2506 22.7112 41.2506 22.7112Z" fill="#090909"/>
<path d="M24.4526 22.9052C24.4526 22.9052 24.4407 22.925 24.4209 22.9567C24.4011 22.9884 24.3694 23.0478 24.3298 23.0992C24.2507 23.2101 24.1398 23.3487 24.0091 23.4754C23.7438 23.7248 23.3874 23.899 23.031 23.8951C22.6746 23.899 22.3182 23.7288 22.0529 23.4793C21.9182 23.3526 21.8074 23.214 21.7321 23.1032C21.6925 23.0517 21.6609 22.9923 21.6411 22.9606C21.6213 22.925 21.6094 22.9052 21.6094 22.9052C21.6094 22.9052 21.6213 22.8854 21.6411 22.8498C21.6609 22.8181 21.6925 22.7548 21.7321 22.7072C21.8113 22.5924 21.9222 22.4578 22.0529 22.3311C22.3182 22.0816 22.6746 21.9114 23.031 21.9154C23.3874 21.9114 23.7438 22.0856 24.0091 22.3351C24.1437 22.4618 24.2546 22.5964 24.3298 22.7112C24.3694 22.7587 24.4011 22.8221 24.4209 22.8537C24.4407 22.8854 24.4526 22.9052 24.4526 22.9052Z" fill="#090909"/>
<path d="M40.0547 27.2408C40.0547 27.2408 40.1933 27.1735 40.3477 27.1577C40.5061 27.1339 40.6804 27.1656 40.8229 27.2527C40.9615 27.3398 41.0684 27.4784 41.1199 27.6328C41.1753 27.7793 41.1753 27.9337 41.1753 27.9337C41.1753 27.9337 41.0367 28.005 40.8823 28.0169C40.72 28.0406 40.5497 28.0089 40.4111 27.9218C40.2725 27.8347 40.1656 27.6922 40.118 27.5378C40.0547 27.3992 40.0547 27.2408 40.0547 27.2408Z" fill="#090909"/>
<path d="M25.692 18.5301C25.692 18.5301 25.5455 18.5974 25.3831 18.6053C25.2129 18.6251 25.0267 18.5855 24.8763 18.4905C24.7258 18.3954 24.603 18.2489 24.5476 18.0866C24.4842 17.9361 24.4763 17.7738 24.4763 17.7738C24.4763 17.7738 24.6228 17.7065 24.7852 17.6986C24.9555 17.6788 25.1416 17.7184 25.2921 17.8134C25.4425 17.9084 25.5613 18.0549 25.6207 18.2173C25.6841 18.3717 25.692 18.5301 25.692 18.5301Z" fill="#090909"/>
<path d="M39.9082 18.241C39.9082 18.241 39.9082 18.0866 39.9597 17.9401C40.0072 17.7857 40.1141 17.6431 40.2488 17.556C40.3874 17.4689 40.5616 17.4333 40.72 17.457C40.8744 17.4689 41.017 17.5402 41.017 17.5402C41.017 17.5402 41.0209 17.6985 40.9655 17.8411C40.918 17.9955 40.8111 18.138 40.6725 18.2252C40.5339 18.3123 40.3596 18.3479 40.2012 18.3241C40.0508 18.3083 39.9082 18.241 39.9082 18.241Z" fill="#090909"/>
<path d="M25.8345 27.411C25.8345 27.411 25.8306 27.5694 25.7672 27.7238C25.7118 27.8861 25.593 28.0326 25.4425 28.1316C25.292 28.2266 25.1059 28.2702 24.9356 28.2544C24.7733 28.2464 24.6228 28.1831 24.6228 28.1831C24.6228 28.1831 24.6268 28.0208 24.6901 27.8703C24.7456 27.708 24.8644 27.5615 25.0148 27.4625C25.1653 27.3674 25.3514 27.3239 25.5217 27.3397C25.688 27.3477 25.8345 27.411 25.8345 27.411Z" fill="#090909"/>
<path d="M37.4411 29.9412C37.4411 29.9412 37.5955 29.9412 37.742 29.9926C37.8965 30.0401 38.039 30.1471 38.1261 30.2817C38.2132 30.4203 38.2489 30.5945 38.2251 30.7528C38.2132 30.9073 38.142 31.0498 38.142 31.0498C38.142 31.0498 37.9875 31.0538 37.841 30.9983C37.6866 30.9508 37.544 30.8439 37.4569 30.7053C37.3698 30.5668 37.3341 30.3925 37.3579 30.2342C37.3737 30.0837 37.4411 29.9412 37.4411 29.9412Z" fill="#090909"/>
<path d="M28.2699 15.8693C28.2699 15.8693 28.1115 15.8653 27.957 15.802C27.7947 15.7466 27.6482 15.6278 27.5492 15.4773C27.4541 15.3269 27.4106 15.1408 27.4264 14.9705C27.4343 14.8082 27.4977 14.6577 27.4977 14.6577C27.4977 14.6577 27.6561 14.6617 27.8105 14.725C27.9729 14.7805 28.1194 14.8992 28.2184 15.0497C28.3134 15.2002 28.357 15.3863 28.3411 15.5565C28.3332 15.7228 28.2699 15.8693 28.2699 15.8693Z" fill="#090909"/>
<path d="M38.146 14.1826L34.1148 22.9884C33.7941 23.6932 32.9625 24.002 32.2576 23.6774C31.5527 23.3566 31.2439 22.5252 31.5686 21.8204C31.624 21.6976 31.7032 21.5828 31.7864 21.4838L38.146 14.1826Z" fill="#D8A688"/>
<path d="M33.3991 25.1513C34.9941 24.7975 36.0002 23.2178 35.6464 21.6231C35.2925 20.0283 33.7127 19.0223 32.1177 19.3761C30.5227 19.7299 29.5166 21.3095 29.8705 22.9043C30.2243 24.4991 31.8042 25.5051 33.3991 25.1513Z" fill="#D8A688"/>
</g>
<defs>
<clipPath id="clip0_2_1665">
<rect width="51" height="41" fill="white"/>
</clipPath>
</defs>
</svg>
