<svg width="226" height="226" viewBox="0 0 226 226" fill="none" xmlns="http://www.w3.org/2000/svg">
<g clip-path="url(#clip0_2_1778)">
<path d="M113 226C50.698 226 0 175.306 0 112.991C0 50.6939 50.698 0 113 0C175.302 0 226 50.6939 226 112.991C226 175.306 175.32 226 113 226ZM113 1.11534C51.3097 1.11534 1.11543 51.3056 1.11543 112.991C1.11543 174.676 51.3097 224.867 113 224.867C174.69 224.867 224.885 174.676 224.885 112.991C224.885 51.3056 174.69 1.11534 113 1.11534Z" fill="#D8A688"/>
<path d="M61.7803 23.1523L57.2827 15.3629L56.3111 15.9206L60.8088 23.71C61.1327 23.5121 61.4565 23.3322 61.7803 23.1523ZM46.4702 22.3788L51.7595 29.6644C52.0653 29.4486 52.3712 29.2327 52.677 29.0168L47.3877 21.7311L46.4702 22.3788ZM37.3669 29.8263L43.3758 36.5004C43.6457 36.2485 43.9515 36.0147 44.2214 35.7628L38.1945 29.0708L37.3669 29.8263ZM81.5702 14.4275L78.7996 5.90053L77.7382 6.24232L80.5087 14.7873C80.8685 14.6793 81.2284 14.5534 81.5702 14.4275ZM92.0588 11.6931L90.1878 2.9143L89.0903 3.14816L90.9614 11.9449C91.3212 11.855 91.681 11.765 92.0588 11.6931ZM29.0911 38.1914L35.7837 44.2178C36.0356 43.93 36.2694 43.6422 36.5213 43.3723L29.8467 37.3639L29.0911 38.1914ZM71.4594 18.2772L67.8072 10.0741L66.7818 10.5238L70.4339 18.7269C70.7757 18.583 71.1176 18.4211 71.4594 18.2772ZM18.7464 70.4103L10.5426 66.7584L10.0929 67.7838L18.2967 71.4357C18.4406 71.0939 18.5845 70.7521 18.7464 70.4103ZM11.9459 90.9361L3.16643 89.0652L2.93255 90.1626L11.6941 92.0155C11.766 91.6557 11.856 91.2959 11.9459 90.9361ZM10.2008 101.622L1.2774 100.686L1.15146 101.802L10.0749 102.737C10.1109 102.359 10.1468 102 10.2008 101.622ZM14.8065 80.4843L6.27883 77.714L5.91902 78.7933L14.4466 81.5637C14.5546 81.2039 14.6805 80.8441 14.8065 80.4843ZM29.6668 51.7374L22.3986 46.4485L21.7329 47.3659L29.0192 52.6548C29.235 52.349 29.4509 52.0432 29.6668 51.7374ZM23.7119 60.786L15.9219 56.2887L15.3642 57.2601L23.1542 61.7574C23.3521 61.4336 23.532 61.1098 23.7119 60.786ZM102.745 10.0741L101.81 1.13335L100.694 1.25928L101.63 10.218C102.008 10.146 102.385 10.11 102.745 10.0741ZM196.981 38.1554L196.225 37.3279L189.497 43.3723C189.749 43.6422 189.983 43.93 190.234 44.2178L196.981 38.1554ZM202.864 61.7754L210.708 57.2421L210.15 56.2707L202.306 60.804C202.486 61.1278 202.684 61.4516 202.864 61.7754ZM207.739 71.4357L215.997 67.7658L215.547 66.7405L207.29 70.4283C207.434 70.7521 207.596 71.0939 207.739 71.4357ZM197.017 52.6728L204.357 47.348L203.691 46.4305L196.369 51.7553C196.585 52.0612 196.801 52.367 197.017 52.6728ZM214.324 92.0335L223.14 90.1626L222.906 89.0652L214.072 90.9361C214.144 91.3139 214.252 91.6737 214.324 92.0335ZM215.943 102.737L224.939 101.802L224.813 100.686L215.817 101.64C215.853 102 215.907 102.359 215.943 102.737ZM211.571 81.5637L220.153 78.7753L219.811 77.714L211.212 80.5023C211.338 80.8621 211.464 81.2039 211.571 81.5637ZM9.55315 112.991C9.55315 112.793 9.57114 112.613 9.57114 112.415H0.59375V113.531H9.57114C9.57114 113.369 9.55315 113.189 9.55315 112.991ZM173.359 29.0168C173.665 29.2327 173.971 29.4486 174.277 29.6644L179.602 22.3428L178.684 21.6772L173.359 29.0168ZM133.995 11.6931C134.373 11.765 134.733 11.873 135.093 11.9449L136.982 3.09419L135.884 2.86033L133.995 11.6931ZM181.797 35.7808C182.085 36.0327 182.372 36.2665 182.642 36.5184L188.705 29.7904L187.878 29.0348L181.797 35.7808ZM144.466 14.4455C144.826 14.5534 145.168 14.6973 145.527 14.8052L148.316 6.20635L147.254 5.86455L144.466 14.4455ZM123.291 10.0741C123.669 10.11 124.028 10.164 124.406 10.2L125.36 1.20531L124.226 1.07939L123.291 10.0741ZM112.442 9.57035C112.622 9.57035 112.82 9.55236 113 9.55236C113.18 9.55236 113.378 9.57035 113.558 9.57035V0.575684H112.442V9.57035ZM154.577 18.2772C154.919 18.4211 155.26 18.583 155.602 18.7449L159.29 10.4698L158.265 10.0201L154.577 18.2772ZM164.256 23.1523C164.58 23.3322 164.903 23.5301 165.227 23.71L169.761 15.8666L168.789 15.309L164.256 23.1523ZM23.1542 164.225L15.3822 168.704L15.9399 169.675L23.7119 165.196C23.514 164.872 23.3341 164.548 23.1542 164.225ZM181.797 190.219L187.842 196.929L188.669 196.174L182.642 189.482C182.372 189.734 182.085 189.967 181.797 190.219ZM173.359 196.983L178.666 204.287L179.584 203.621L174.277 196.318C173.971 196.569 173.647 196.767 173.359 196.983ZM189.515 182.628L196.225 188.672L196.981 187.845L190.27 181.8C190.001 182.052 189.767 182.34 189.515 182.628ZM196.369 174.245L203.674 179.552L204.339 178.634L197.035 173.327C196.801 173.633 196.585 173.939 196.369 174.245ZM164.238 202.848L168.753 210.655L169.725 210.097L165.209 202.29C164.885 202.47 164.562 202.668 164.238 202.848ZM144.448 211.555L147.218 220.1L148.28 219.758L145.491 211.195C145.15 211.321 144.808 211.447 144.448 211.555ZM154.577 207.723L158.247 215.944L159.272 215.494L155.602 207.255C155.26 207.417 154.919 207.561 154.577 207.723ZM211.212 145.48L219.793 148.268L220.135 147.207L211.553 144.418C211.464 144.778 211.338 145.138 211.212 145.48ZM202.306 165.196L210.132 169.711L210.69 168.74L202.864 164.225C202.684 164.53 202.504 164.872 202.306 165.196ZM214.072 135.046L222.906 136.917L223.14 135.82L214.324 133.949C214.252 134.308 214.162 134.668 214.072 135.046ZM216.429 112.433C216.429 112.631 216.447 112.811 216.447 113.009C216.447 113.189 216.429 113.387 216.429 113.567H225.478V112.433H216.429ZM215.817 124.36L224.813 125.314L224.939 124.198L215.943 123.263C215.907 123.623 215.853 123.983 215.817 124.36ZM207.272 155.572L215.511 159.242L215.961 158.216L207.721 154.546C207.595 154.888 207.434 155.23 207.272 155.572ZM133.977 214.307L135.848 223.086L136.946 222.852L135.075 214.037C134.697 214.145 134.337 214.235 133.977 214.307ZM112.442 216.43V225.442H113.558V216.43C113.378 216.43 113.18 216.448 113 216.448C112.82 216.448 112.64 216.43 112.442 216.43ZM29.1091 187.791L29.8647 188.618L36.5213 182.628C36.2694 182.358 36.0356 182.07 35.7837 181.782L29.1091 187.791ZM29.0012 173.327L21.7329 178.598L22.3986 179.516L29.6488 174.245C29.4329 173.957 29.2171 173.633 29.0012 173.327ZM37.3849 196.156L38.2124 196.911L44.2214 190.237C43.9335 189.985 43.6457 189.752 43.3758 189.5L37.3849 196.156ZM18.2787 154.564L10.0929 158.198L10.5426 159.224L18.7284 155.572C18.5845 155.248 18.4226 154.906 18.2787 154.564ZM11.6941 133.949L2.93255 135.82L3.16643 136.917L11.9279 135.046C11.856 134.686 11.766 134.326 11.6941 133.949ZM14.4466 144.436L5.93701 147.189L6.27883 148.25L14.8065 145.48C14.6805 145.138 14.5546 144.796 14.4466 144.436ZM46.4882 203.603L47.4057 204.269L52.677 197.001C52.3712 196.785 52.0653 196.569 51.7595 196.354L46.4882 203.603ZM123.255 215.926L124.19 224.867L125.306 224.741L124.37 215.782C124.01 215.836 123.633 215.89 123.255 215.926ZM100.712 224.723L101.828 224.849L102.763 215.926C102.385 215.89 102.026 215.836 101.648 215.8L100.712 224.723ZM10.0749 123.245L1.16945 124.18L1.29539 125.296L10.2188 124.36C10.1468 123.983 10.1109 123.623 10.0749 123.245ZM89.1083 222.834L90.2057 223.068L92.0588 214.325C91.699 214.253 91.3392 214.145 90.9614 214.073L89.1083 222.834ZM66.7818 215.458L67.8072 215.908L71.4594 207.723C71.1176 207.579 70.7757 207.417 70.4339 207.255L66.7818 215.458ZM56.3291 210.061L57.3006 210.619L61.7803 202.848C61.4565 202.668 61.1327 202.47 60.8088 202.29L56.3291 210.061ZM77.7561 219.722L78.8176 220.064L81.5882 211.555C81.2284 211.447 80.8865 211.303 80.5267 211.195L77.7561 219.722Z" fill="#D8A688"/>
<path d="M65.0007 26.4803L58.2542 14.7873L55.3396 16.4783L62.0862 28.1533C63.0397 27.5777 64.0292 27.02 65.0007 26.4803ZM14.8065 58.2495L26.4825 64.9955C27.0222 64.0061 27.5799 63.0347 28.1556 62.0632L16.4796 55.3172L14.8065 58.2495ZM197.844 62.0812C198.42 63.0526 198.978 64.0241 199.536 65.0135L211.284 58.2315L209.592 55.3172L197.844 62.0812ZM0.59375 111.3V114.682H14.1048C14.1048 114.124 14.0688 113.567 14.0688 113.009C14.0688 112.433 14.1048 111.876 14.1048 111.318H0.59375V111.3ZM161.017 26.4983C162.007 27.038 162.978 27.5957 163.95 28.1893L170.732 16.4603L167.8 14.7513L161.017 26.4983ZM111.327 14.1037C111.885 14.0857 112.442 14.0677 113.018 14.0677C113.576 14.0677 114.133 14.1037 114.709 14.1037V0.575684H111.327V14.1037ZM55.3576 209.504L58.2721 211.195L65.0007 199.538C64.0112 198.998 63.0397 198.44 62.0682 197.847L55.3576 209.504ZM14.8244 167.733L16.5156 170.647L28.1736 163.919C27.5979 162.947 27.0402 161.976 26.5005 160.987L14.8244 167.733ZM211.913 111.3C211.931 111.858 211.949 112.433 211.949 112.991C211.949 113.549 211.913 114.106 211.913 114.664H225.478V111.282H211.913V111.3ZM197.844 163.919L209.556 170.683L211.248 167.769L199.536 161.005C198.996 161.976 198.438 162.947 197.844 163.919ZM161.017 199.52L167.782 211.231L170.696 209.54L163.932 197.829C162.978 198.404 162.007 198.962 161.017 199.52ZM111.327 211.896V225.424H114.709V211.896C114.151 211.914 113.594 211.932 113.018 211.932C112.442 211.932 111.885 211.914 111.327 211.896Z" fill="#D8A688"/>
<path d="M24.9352 120.996C28.6593 119.485 31.196 117.435 32.0236 113.801C31.052 114.394 29.8467 114.808 28.4974 114.808C25.241 114.808 22.9922 112.793 22.9922 109.717C22.9922 106.407 25.367 104.086 28.8932 104.086C33.013 104.086 35.046 106.587 35.046 110.85C35.046 116.859 30.9801 120.457 25.385 122.04L24.9352 120.996ZM32.3654 110.814C32.3654 107.342 31.3399 105.4 28.9111 105.4C26.8602 105.4 25.7088 106.965 25.7088 109.663C25.7088 112.038 26.8242 113.441 28.7852 113.441C30.2605 113.441 31.3939 112.811 32.3474 111.786C32.3294 111.498 32.3654 111.174 32.3654 110.814Z" fill="#D8A688"/>
<path d="M34.956 150.625C34.956 147.962 37.1869 146.235 40.4252 146.235C43.7175 146.235 45.7145 147.854 45.7145 150.409C45.7145 151.92 44.5271 153.323 42.782 154.295C44.779 155.176 46.5601 156.417 46.5601 159.116C46.5601 162.138 44.1313 163.973 40.4792 163.973C36.6831 163.973 34.2544 162.39 34.2544 159.26C34.2544 157.209 35.8016 155.626 37.6726 154.546C36.1794 153.773 34.956 152.73 34.956 150.625ZM36.881 159.116C36.881 161.274 38.2304 162.624 40.4972 162.624C42.6741 162.624 43.9514 161.238 43.9514 159.116C43.9514 156.561 41.3428 155.968 38.932 155.05C37.4927 155.986 36.881 157.317 36.881 159.116ZM43.2498 150.373C43.2498 148.574 42.0084 147.531 40.4252 147.531C38.5542 147.531 37.4567 148.61 37.4567 150.427C37.4567 152.208 39.3458 152.909 41.3967 153.683C42.764 152.801 43.2498 151.812 43.2498 150.373Z" fill="#D8A688"/>
<path d="M65.8282 177.213C65.8282 177.213 68.3829 177.267 71.2794 177.267C74.1759 177.267 76.8385 177.213 76.8385 177.213L77.3423 178.472C77.3423 178.472 71.0095 187.809 71.0095 191.496C71.0095 192.36 71.2794 193.151 71.999 193.691C71.4053 194.393 70.7576 194.824 70.11 194.824C69.0845 194.824 68.203 193.709 68.203 192.162C68.203 189.194 70.038 186.945 75.3273 179.318H67.6093C67.2494 180.307 67.0695 181.368 66.9796 182.412C66.7817 182.466 66.6018 182.502 66.4219 182.502C66.224 182.502 66.0441 182.466 65.8642 182.412C65.7202 180.631 65.4324 178.4 65.4324 177.663L65.8282 177.213Z" fill="#D8A688"/>
<path d="M150.493 185.308L151.248 177.591L151.788 177.159C153.353 177.213 154.559 177.249 156.106 177.249C157.653 177.249 158.732 177.213 159.704 177.195L160.262 177.627C160.262 177.627 160.208 178.67 160.046 179.3H152.742L152.256 184.283C153.371 183.797 154.505 183.527 155.656 183.527C159.11 183.527 161.323 185.47 161.323 188.978C161.323 192.234 158.948 194.825 155.332 194.825C152.022 194.825 149.575 193.278 149.575 191.083C149.575 189.968 150.205 189.302 151.23 189.302C151.752 189.302 152.22 189.464 152.634 189.788C152.472 190.165 152.4 190.525 152.4 190.939C152.4 192.432 153.623 193.476 155.332 193.476C157.599 193.476 158.786 191.928 158.786 188.996C158.786 186.37 157.473 184.949 155.152 184.949C153.875 184.949 152.634 185.326 151.266 186.1L150.493 185.308Z" fill="#D8A688"/>
<path d="M179.476 158.45L185.431 146.469C186.456 146.469 187.32 146.667 187.86 147.153L181.761 157.803H187.824V153.107C188.705 153.071 189.533 152.64 189.731 151.884H190.378V157.767L192.879 158.306V159.422H190.252V163.757H187.806V159.422H179.656L179.476 158.45Z" fill="#D8A688"/>
<path d="M195.596 111.912C198.456 111.84 200.129 110.635 200.129 108.296C200.129 106.443 199.122 105.436 197.431 105.436C195.614 105.436 194.696 106.569 194.696 107.882C194.696 108.314 194.804 108.674 195.002 108.998C194.534 109.357 194.066 109.519 193.545 109.519C192.717 109.519 192.177 108.782 192.177 107.648C192.177 105.705 194.39 104.086 197.485 104.086C200.669 104.086 202.81 105.813 202.81 108.296C202.81 109.807 202.18 111.516 199.086 112.505C202 113.207 203.026 114.844 203.026 116.949C203.026 119.755 200.795 121.878 197.233 121.878C193.653 121.878 191.494 120.367 191.494 117.938C191.494 116.859 192.303 116.337 193.167 116.337C193.653 116.337 194.156 116.535 194.552 116.823C194.39 117.255 194.318 117.686 194.318 118.064C194.318 119.521 195.452 120.511 197.395 120.511C199.392 120.511 200.525 119.108 200.525 116.931C200.525 114.664 198.906 113.153 195.65 113.153V111.912H195.596Z" fill="#D8A688"/>
<path d="M180.375 77.984C186.87 72.4073 188.849 69.6729 188.849 66.7046C188.849 64.492 187.86 63.3946 185.917 63.3946C184.171 63.3946 183.056 64.5999 183.056 66.057C183.056 66.6147 183.254 67.1904 183.65 67.73C183.29 68.1078 182.732 68.3417 182.174 68.3417C181.293 68.3417 180.429 67.784 180.429 66.2189C180.429 64.0602 182.876 62.0454 185.935 62.0454C189.407 62.0454 191.566 63.9163 191.566 66.9745C191.566 69.8528 189.425 72.875 183.452 77.4982H192.267V79.639H180.393V77.984H180.375Z" fill="#D8A688"/>
<path d="M150.799 47.8335C152.382 47.6716 153.731 47.4018 154.685 47.006V34.1437H150.853V32.9024C153.065 32.6865 154.829 32.0749 156.25 31.3193L157.221 31.6971V47.024C158.049 47.4558 160.136 47.7796 160.801 47.8515L160.693 48.8409H150.709L150.799 47.8335Z" fill="#D8A688"/>
<path d="M101.54 36.5547C103.123 36.3928 104.472 36.1229 105.426 35.7271V22.8468H101.594V21.6055C103.807 21.3897 105.57 20.778 106.991 20.0225L107.963 20.4002V35.7271C108.79 36.1589 110.877 36.4827 111.543 36.5547L111.435 37.5441H101.45L101.54 36.5547Z" fill="#D8A688"/>
<path d="M113.27 35.9068C119.765 30.3301 121.744 27.5957 121.744 24.6275C121.744 22.4148 120.754 21.3175 118.811 21.3175C117.066 21.3175 115.951 22.5227 115.951 23.9799C115.951 24.5376 116.13 25.1132 116.544 25.6529C116.202 26.0307 115.627 26.2825 115.069 26.2825C114.187 26.2825 113.324 25.7248 113.324 24.1418C113.324 21.9831 115.771 19.9683 118.829 19.9683C122.301 19.9683 124.46 21.8212 124.46 24.8973C124.46 27.7936 122.337 30.8158 116.346 35.4211H125.162V37.5438H113.288V35.9068H113.27Z" fill="#D8A688"/>
<path d="M65.5044 47.8335C67.0876 47.6716 68.4369 47.4018 69.3904 47.006V34.1437H65.5584V32.9024C67.7712 32.6865 69.5343 32.0749 70.9556 31.3193L71.9271 31.6971V47.024C72.7547 47.4558 74.8416 47.7796 75.5072 47.8515L75.3993 48.8409H65.4144L65.5044 47.8335Z" fill="#D8A688"/>
<path d="M77.0725 47.8335C78.6557 47.6716 80.005 47.4018 80.9585 47.006V34.1437H77.1265V32.9024C79.3393 32.6865 81.1024 32.0749 82.5237 31.3193L83.4952 31.6971V47.024C84.3228 47.4558 86.4097 47.7796 87.0754 47.8515L86.9674 48.8409H76.9825L77.0725 47.8335Z" fill="#D8A688"/>
<path d="M34.3443 78.6314C35.9275 78.4695 37.2768 78.1997 38.2304 77.8039V64.9415H34.3983V63.7003C36.6112 63.4844 38.3563 62.8727 39.7956 62.1172L40.767 62.495V77.8219C41.5946 78.2536 43.6816 78.5774 44.3472 78.6494L44.2393 79.6388H34.2544L34.3443 78.6314Z" fill="#D8A688"/>
<path d="M46.0564 70.8962C46.0564 65.4454 48.1793 62.0454 52.713 62.0454C57.2467 62.0454 59.3696 65.4454 59.3696 70.8962C59.3696 76.3109 57.2467 79.8009 52.713 79.8009C48.1793 79.8009 46.0564 76.3289 46.0564 70.8962ZM56.7249 70.8962C56.7249 66.3988 56.0413 63.4846 52.713 63.4846C49.3667 63.4846 48.701 66.3988 48.701 70.8962C48.701 75.4295 49.3667 78.3617 52.713 78.3617C56.0593 78.3617 56.7249 75.4295 56.7249 70.8962Z" fill="#D8A688"/>
<path d="M100.389 143.969L97.7619 139.417L96.7903 139.975L99.435 144.544C99.7408 144.364 100.047 144.166 100.389 143.969ZM85.4562 151.704L90.0078 154.33C90.1877 154.007 90.4036 153.683 90.5835 153.377L86.0139 150.733L85.4562 151.704ZM112.442 140.766C112.622 140.766 112.82 140.731 113 140.731C113.18 140.731 113.378 140.748 113.558 140.766V135.496H112.442V140.766ZM140.544 151.704L139.986 150.733L135.417 153.377C135.614 153.701 135.812 154.007 135.992 154.33L140.544 151.704ZM86.7695 166.959C86.7695 166.761 86.7875 166.581 86.8055 166.401H81.5342V167.517H86.8055C86.8055 167.337 86.7695 167.157 86.7695 166.959ZM125.63 143.969C125.953 144.148 126.277 144.364 126.583 144.544L129.228 139.975L128.256 139.417L125.63 143.969ZM135.417 180.559L139.986 183.203L140.544 182.232L135.992 179.605C135.83 179.929 135.614 180.235 135.417 180.559ZM125.63 189.967L128.256 194.519L129.228 193.961L126.583 189.392C126.277 189.572 125.971 189.787 125.63 189.967ZM139.213 166.401C139.213 166.599 139.249 166.779 139.249 166.959C139.249 167.139 139.231 167.337 139.213 167.517H144.484V166.401H139.213ZM112.442 193.169V198.44H113.558V193.169C113.378 193.169 113.18 193.205 113 193.205C112.82 193.205 112.64 193.169 112.442 193.169ZM85.4562 182.214L86.0139 183.185L90.5835 180.541C90.3856 180.217 90.1877 179.911 90.0078 179.587L85.4562 182.214ZM96.7724 193.943L97.7439 194.501L100.371 189.949C100.047 189.769 99.7228 189.554 99.417 189.374L96.7724 193.943Z" fill="#D8A688"/>
<path d="M104.311 136.701L106.254 143.969C106.613 143.861 106.973 143.771 107.351 143.681L105.408 136.413L104.311 136.701ZM96.4666 149.635L91.1413 144.31L90.3497 145.102L95.675 150.427C95.9269 150.157 96.1967 149.905 96.4666 149.635ZM82.4518 159.367L89.72 161.31C89.81 160.951 89.9 160.573 90.0079 160.213L82.7396 158.27L82.4518 159.367ZM118.667 143.681C119.027 143.771 119.405 143.861 119.747 143.969L121.69 136.701L120.61 136.413L118.667 143.681ZM129.552 149.635C129.821 149.887 130.091 150.157 130.343 150.427L135.668 145.102L134.877 144.31L129.552 149.635ZM143.566 159.367L143.279 158.288L136.028 160.231C136.136 160.591 136.226 160.951 136.316 161.328L143.566 159.367ZM129.552 184.301L134.877 189.626L135.668 188.834L130.343 183.509C130.073 183.779 129.821 184.031 129.552 184.301ZM118.667 190.255L120.61 197.523L121.69 197.235L119.747 189.967C119.387 190.075 119.027 190.165 118.667 190.255ZM136.01 173.723L143.261 175.666L143.548 174.586L136.28 172.644C136.208 172.985 136.118 173.363 136.01 173.723ZM90.3497 188.834L91.1413 189.626L96.4666 184.301C96.1967 184.049 95.9269 183.779 95.675 183.509L90.3497 188.834ZM104.311 197.235L105.39 197.523L107.333 190.255C106.973 190.165 106.595 190.075 106.236 189.967L104.311 197.235ZM82.4518 174.568L82.7396 175.648L90.0079 173.705C89.9 173.345 89.81 172.985 89.72 172.626L82.4518 174.568Z" fill="#D8A688"/>
<path d="M113 199.016C95.3331 199.016 80.9585 184.642 80.9585 166.977C80.9585 149.311 95.3331 134.92 113 134.92C130.667 134.92 145.042 149.293 145.042 166.959C145.042 184.624 130.685 199.016 113 199.016ZM113 136.053C95.9448 136.053 82.0739 149.923 82.0739 166.977C82.0739 184.031 95.9448 197.901 113 197.901C130.055 197.883 143.926 184.013 143.926 166.959C143.926 149.923 130.055 136.053 113 136.053Z" fill="#D8A688"/>
<path d="M135.273 144.706L133.042 145.659L115.213 163.055C114.565 162.677 113.81 162.462 113 162.462C110.517 162.462 108.502 164.476 108.502 166.959C108.502 167.732 108.718 168.434 109.06 169.082L106.973 171.114C106.29 171.006 105.552 171.186 105.03 171.708C104.149 172.59 104.149 174.011 105.03 174.892C105.912 175.774 107.333 175.774 108.215 174.892C108.718 174.37 108.898 173.687 108.826 173.021L110.895 170.899C111.525 171.24 112.244 171.456 113.018 171.456C115.501 171.456 117.516 169.441 117.516 166.959C117.516 166.149 117.282 165.412 116.922 164.746L134.337 146.919L135.273 144.706ZM113 169.208C111.759 169.208 110.751 168.2 110.751 166.959C110.751 165.718 111.759 164.71 113 164.71C114.241 164.71 115.249 165.718 115.249 166.959C115.249 168.2 114.241 169.208 113 169.208Z" fill="#D8A688"/>
<path d="M194.066 56.2346L191.188 56.0547L172.1 68.7731C169.833 67.2081 166.774 67.1181 164.4 68.7731C162.115 70.3742 161.125 73.1446 161.665 75.717L117.408 105.202C116.094 104.464 114.619 103.996 113 103.996C111.039 103.996 109.258 104.626 107.783 105.687L84.6465 93.5804C84.9703 90.972 83.747 88.2916 81.3182 86.9064C78.8175 85.4493 75.7591 85.827 73.6541 87.572L53.5225 76.5625L50.6799 76.9943L51.7234 79.6747L71.3153 91.6016C70.8656 94.3 72.071 97.1243 74.5717 98.5815C76.9824 99.9846 79.9149 99.6968 82.0198 98.1138L104.095 112.109C104.059 112.397 104.005 112.667 104.005 112.973C104.005 117.938 108.034 121.968 113 121.968C117.965 121.968 121.995 117.938 121.995 112.973C121.995 112.469 121.923 111.984 121.851 111.498L164.687 79.9985C166.918 81.3837 169.869 81.4196 172.136 79.8006C174.51 78.1456 175.464 75.2133 174.762 72.5689L193.239 58.987L194.066 56.2346ZM81.8399 95.0016C80.5986 97.1423 77.846 97.8799 75.6871 96.6566C73.5462 95.4153 72.8086 92.663 74.0499 90.5043C75.2913 88.3635 78.0439 87.626 80.1848 88.8492C82.3437 90.1085 83.0813 92.8609 81.8399 95.0016ZM113 118.298C110.067 118.298 107.693 115.923 107.693 112.991C107.693 110.059 110.067 107.684 113 107.684C115.932 107.684 118.307 110.059 118.307 112.991C118.307 115.923 115.932 118.298 113 118.298ZM170.84 77.9837C168.807 79.4048 166.001 78.9011 164.579 76.8683C163.158 74.8356 163.644 72.0292 165.677 70.6081C167.71 69.1869 170.516 69.6726 171.938 71.7234C173.377 73.7562 172.873 76.5625 170.84 77.9837Z" fill="#D8A688"/>
<path d="M119.117 90.1985C118.523 90.0366 117.893 90.3964 117.732 90.99L112.406 110.868C111.453 111.138 110.751 111.966 110.751 112.991C110.751 113.603 111.003 114.178 111.417 114.574L95.8728 172.572C95.7648 172.572 95.6569 172.536 95.5309 172.536C92.9942 172.536 90.7634 174.245 90.1157 176.709C89.7199 178.166 89.9178 179.677 90.6734 180.973C91.2311 181.944 92.0587 182.7 93.0302 183.185L83.9809 216.951C83.8189 217.545 84.1788 218.175 84.7724 218.337C84.8624 218.355 84.9703 218.373 85.0603 218.373C85.564 218.373 86.0138 218.049 86.1397 217.545L95.2071 183.743C95.315 183.743 95.423 183.779 95.5489 183.779C98.0856 183.779 100.316 182.07 100.982 179.605C101.378 178.148 101.18 176.637 100.424 175.324C99.8667 174.353 99.0391 173.597 98.0676 173.111L113.594 115.132C114.547 114.862 115.249 114.034 115.249 113.009C115.249 112.397 114.997 111.822 114.583 111.426L119.908 91.5837C120.07 90.972 119.729 90.3604 119.117 90.1985ZM98.4634 176.475C98.9132 177.249 99.0391 178.166 98.8052 179.03C98.3375 180.793 96.4664 181.89 94.6674 181.404C93.8038 181.171 93.0662 180.613 92.6164 179.839C92.1667 179.066 92.0407 178.148 92.2746 177.285C92.6704 175.81 94.0017 174.784 95.5309 174.784C95.8188 174.784 96.1246 174.82 96.4125 174.91C97.294 175.144 98.0137 175.702 98.4634 176.475Z" fill="#E53935"/>
</g>
<defs>
<clipPath id="clip0_2_1778">
<rect width="226" height="226" fill="white"/>
</clipPath>
</defs>
</svg>
