<svg width="226" height="226" viewBox="0 0 226 226" fill="none" xmlns="http://www.w3.org/2000/svg">
<g clip-path="url(#clip0_2_1925)">
<path d="M112.991 226C50.6939 226 0 175.306 0 112.991C0 50.6939 50.6939 0 112.991 0C175.288 0 225.982 50.6939 225.982 112.991C225.982 175.306 175.306 226 112.991 226ZM112.991 1.11534C51.3056 1.11534 1.11534 51.3056 1.11534 112.991C1.11534 174.676 51.3056 224.867 112.991 224.867C174.676 224.867 224.867 174.676 224.867 112.991C224.867 51.3056 174.676 1.11534 112.991 1.11534Z" fill="#D8A688"/>
<path d="M46.4665 22.3788L51.7554 29.6644C52.0612 29.4486 52.367 29.2327 52.6728 29.0168L47.3839 21.7311L46.4665 22.3788ZM61.7754 23.1523L57.2781 15.3629L56.3067 15.9206L60.804 23.71C61.1278 23.5121 61.4516 23.3322 61.7754 23.1523ZM37.3639 29.8263L43.3723 36.5004C43.6422 36.2485 43.93 36.0147 44.2178 35.7628L38.1914 29.0708L37.3639 29.8263ZM81.5637 14.4275L78.7933 5.90053L77.732 6.24232L80.5023 14.7873C80.8621 14.6793 81.2219 14.5534 81.5637 14.4275ZM92.0515 11.6931L90.1806 2.9143L89.0832 3.14816L90.9541 11.9449C91.3139 11.855 91.6737 11.765 92.0515 11.6931ZM71.4537 18.2772L67.8018 10.0741L66.7765 10.5238L70.4283 18.7269C70.7701 18.583 71.1119 18.4211 71.4537 18.2772ZM29.0888 38.1914L35.7808 44.2178C36.0327 43.93 36.2665 43.6422 36.5184 43.3723L29.8443 37.3639L29.0888 38.1914ZM29.6645 51.7374L22.3968 46.4485L21.7312 47.3659L29.0168 52.6548C29.2327 52.349 29.4486 52.0432 29.6645 51.7374ZM102.737 10.0741L101.802 1.13335L100.686 1.25928L101.622 10.218C102 10.146 102.377 10.11 102.737 10.0741ZM10.2 101.622L1.27728 100.686L1.15136 101.802L10.0741 102.737C10.11 102.359 10.164 102 10.2 101.622ZM11.945 90.9361L3.16616 89.0652L2.9323 90.1626L11.6931 92.0155C11.7651 91.6557 11.855 91.2959 11.945 90.9361ZM18.7449 70.4103L10.5418 66.7584L10.0921 67.7838L18.2952 71.4357C18.4391 71.0939 18.583 70.7521 18.7449 70.4103ZM14.8053 80.4843L6.27832 77.714L5.91853 78.7933L14.4455 81.5637C14.5534 81.2039 14.6793 80.8441 14.8053 80.4843ZM23.71 60.786L15.9206 56.2887L15.3629 57.2601L23.1523 61.7574C23.3502 61.4336 23.5301 61.1098 23.71 60.786ZM164.243 23.1523C164.566 23.3322 164.89 23.5301 165.214 23.71L169.747 15.8666L168.776 15.309L164.243 23.1523ZM202.848 61.7754L210.691 57.2421L210.133 56.2707L202.29 60.804C202.47 61.1278 202.668 61.4516 202.848 61.7754ZM196.965 38.1554L196.21 37.3279L189.482 43.3723C189.734 43.6422 189.967 43.93 190.219 44.2178L196.965 38.1554ZM207.723 71.4357L215.98 67.7658L215.53 66.7405L207.273 70.4283C207.417 70.7521 207.579 71.0939 207.723 71.4357ZM197.001 52.6728L204.341 47.348L203.675 46.4305L196.354 51.7553C196.57 52.0612 196.785 52.367 197.001 52.6728ZM211.555 81.5637L220.136 78.7753L219.794 77.714L211.195 80.5023C211.321 80.8621 211.447 81.2039 211.555 81.5637ZM215.926 102.737L224.921 101.802L224.813 100.686L215.818 101.64C215.836 102 215.89 102.359 215.926 102.737ZM214.307 92.0335L223.122 90.1626L222.888 89.0652L214.055 90.9361C214.127 91.3139 214.235 91.6737 214.307 92.0335ZM112.433 9.57035C112.613 9.57035 112.811 9.55236 112.991 9.55236C113.171 9.55236 113.369 9.57035 113.549 9.57035V0.575684H112.433V9.57035ZM181.782 35.7808C182.07 36.0327 182.358 36.2665 182.628 36.5184L188.69 29.7904L187.863 29.0348L181.782 35.7808ZM123.281 10.0741C123.659 10.11 124.019 10.164 124.396 10.2L125.35 1.20531L124.216 1.07939L123.281 10.0741ZM144.454 14.4455C144.814 14.5534 145.156 14.6793 145.516 14.8052L148.304 6.20635L147.243 5.86455L144.454 14.4455ZM133.985 11.6931C134.362 11.765 134.722 11.873 135.082 11.9449L136.953 3.09419L135.855 2.86033L133.985 11.6931ZM154.564 18.2772C154.906 18.4211 155.248 18.583 155.59 18.7449L159.278 10.4698L158.252 10.0201L154.564 18.2772ZM173.345 29.0168C173.651 29.2327 173.957 29.4486 174.263 29.6644L179.588 22.3428L178.67 21.6772L173.345 29.0168ZM9.55238 112.991C9.55238 112.793 9.57037 112.613 9.57037 112.415H0.593689V113.531H9.57037C9.57037 113.369 9.55238 113.189 9.55238 112.991ZM11.6931 133.949L2.9323 135.82L3.16616 136.917L11.927 135.046C11.855 134.686 11.7651 134.326 11.6931 133.949ZM196.354 174.245L203.657 179.552L204.323 178.634L197.019 173.327C196.785 173.633 196.57 173.939 196.354 174.245ZM181.782 190.219L187.827 196.929L188.654 196.174L182.628 189.482C182.358 189.734 182.07 189.967 181.782 190.219ZM189.5 182.628L196.21 188.672L196.965 187.845L190.255 181.8C189.985 182.052 189.752 182.34 189.5 182.628ZM173.345 196.983L178.652 204.287L179.57 203.621L174.263 196.318C173.957 196.569 173.633 196.767 173.345 196.983ZM144.436 211.555L147.207 220.1L148.268 219.758L145.48 211.195C145.138 211.321 144.796 211.447 144.436 211.555ZM154.564 207.723L158.234 215.944L159.26 215.494L155.59 207.255C155.248 207.417 154.906 207.561 154.564 207.723ZM133.967 214.307L135.838 223.086L136.935 222.852L135.064 214.037C134.686 214.145 134.326 214.235 133.967 214.307ZM164.225 202.848L168.74 210.655L169.711 210.097L165.196 202.29C164.872 202.47 164.548 202.668 164.225 202.848ZM214.055 135.046L222.888 136.917L223.122 135.82L214.307 133.949C214.235 134.308 214.145 134.668 214.055 135.046ZM215.8 124.36L224.795 125.314L224.903 124.198L215.908 123.263C215.89 123.623 215.836 123.983 215.8 124.36ZM216.412 112.433C216.412 112.631 216.43 112.811 216.43 113.009C216.43 113.189 216.412 113.387 216.412 113.567H225.46V112.433H216.412ZM211.195 145.48L219.776 148.268L220.118 147.207L211.537 144.418C211.447 144.778 211.321 145.138 211.195 145.48ZM207.255 155.572L215.494 159.242L215.944 158.216L207.705 154.546C207.579 154.888 207.417 155.23 207.255 155.572ZM10.0741 123.245L1.16935 124.18L1.29527 125.296L10.218 124.36C10.146 123.983 10.11 123.623 10.0741 123.245ZM202.29 165.196L210.115 169.711L210.673 168.74L202.848 164.225C202.668 164.53 202.488 164.872 202.29 165.196ZM29.1068 187.791L29.8623 188.618L36.5184 182.628C36.2665 182.358 36.0327 182.07 35.7808 181.782L29.1068 187.791ZM46.4845 203.603L47.4019 204.269L52.6728 197.001C52.367 196.785 52.0612 196.569 51.7554 196.354L46.4845 203.603ZM37.3819 196.156L38.2094 196.911L44.2178 190.237C43.93 189.985 43.6422 189.752 43.3723 189.5L37.3819 196.156ZM28.9988 173.327L21.7312 178.598L22.3968 179.516L29.6465 174.245C29.4306 173.957 29.2147 173.633 28.9988 173.327ZM14.4455 144.436L5.93652 147.189L6.27832 148.25L14.8053 145.48C14.6793 145.138 14.5534 144.796 14.4455 144.436ZM18.2772 154.564L10.0921 158.198L10.5418 159.224L18.7269 155.572C18.583 155.248 18.4211 154.906 18.2772 154.564ZM123.245 215.926L124.18 224.867L125.296 224.741L124.36 215.782C124.001 215.836 123.623 215.89 123.245 215.926ZM23.1523 164.225L15.3809 168.704L15.9386 169.675L23.71 165.196C23.5121 164.872 23.3322 164.548 23.1523 164.225ZM100.704 224.723L101.82 224.849L102.755 215.926C102.377 215.89 102.018 215.836 101.64 215.8L100.704 224.723ZM112.433 216.43V225.442H113.549V216.43C113.369 216.43 113.171 216.448 112.991 216.448C112.811 216.448 112.631 216.43 112.433 216.43ZM89.1012 222.834L90.1986 223.068L92.0515 214.325C91.6917 214.253 91.3319 214.145 90.9541 214.073L89.1012 222.834ZM66.7765 215.458L67.8018 215.908L71.4537 207.723C71.1119 207.579 70.7701 207.417 70.4283 207.255L66.7765 215.458ZM77.7499 219.722L78.8113 220.064L81.5817 211.555C81.2219 211.447 80.8801 211.303 80.5203 211.195L77.7499 219.722ZM56.3246 210.061L57.2961 210.619L61.7754 202.848C61.4516 202.668 61.1278 202.47 60.804 202.29L56.3246 210.061Z" fill="#D8A688"/>
<path d="M68.3955 32.3448L58.2675 14.7873L55.3532 16.4783L65.4812 34.0358C66.4347 33.4422 67.4061 32.9025 68.3955 32.3448ZM20.7957 112.991C20.7957 112.415 20.8317 111.858 20.8317 111.3H0.593689V114.682H20.8497C20.8317 114.124 20.7957 113.567 20.7957 112.991ZM14.8053 58.2495L32.3629 68.3775C32.9025 67.3881 33.4602 66.4166 34.0539 65.4452L16.5143 55.3172L14.8053 58.2495ZM211.249 58.2135L209.558 55.2992L191.946 65.4632C192.522 66.4166 193.08 67.4061 193.637 68.3955L211.249 58.2135ZM111.318 20.8497C111.876 20.8317 112.433 20.8137 113.009 20.8137C113.567 20.8137 114.124 20.8497 114.7 20.8497V0.575684H111.318V20.8497ZM157.623 32.3628C158.612 32.9025 159.583 33.4602 160.537 34.0538L170.701 16.4423L167.787 14.7513L157.623 32.3628ZM191.964 160.519L209.54 170.665L211.231 167.751L193.637 157.605C193.098 158.576 192.54 159.565 191.964 160.519ZM157.623 193.637L167.769 211.213L170.683 209.522L160.537 191.946C159.583 192.54 158.594 193.098 157.623 193.637ZM205.15 111.3C205.15 111.858 205.186 112.433 205.186 112.991C205.186 113.549 205.15 114.106 205.15 114.664H225.46V111.282H205.15V111.3ZM55.3532 209.504L58.2675 211.195L68.3955 193.655C67.4061 193.116 66.4347 192.558 65.4812 191.964L55.3532 209.504ZM14.8233 167.733L16.5143 170.647L34.0359 160.519C33.4602 159.565 32.9025 158.576 32.3449 157.605L14.8233 167.733ZM111.318 205.15V225.424H114.7V205.15C114.142 205.168 113.585 205.186 113.009 205.186C112.433 205.186 111.876 205.168 111.318 205.15Z" fill="#D8A688"/>
<path d="M58.4654 86.7987C58.6453 86.7987 58.8431 86.7627 59.023 86.7627C59.2029 86.7627 59.4008 86.7807 59.5807 86.7987V81.5278H58.4654V86.7987ZM46.3945 90.0008L43.7681 85.4495L42.7967 86.0072L45.4411 90.5765C45.7649 90.3966 46.0707 90.1987 46.3945 90.0008ZM32.7946 112.991C32.7946 112.793 32.8126 112.613 32.8306 112.434H27.5597V113.549H32.8306C32.8306 113.369 32.7946 113.189 32.7946 112.991ZM71.6516 90.0008C71.9754 90.1807 72.2992 90.3966 72.605 90.5765L75.2494 86.0072L74.278 85.4495L71.6516 90.0008ZM86.5647 97.7362L86.007 96.7648L81.4378 99.4092C81.6356 99.733 81.8335 100.039 82.0134 100.363L86.5647 97.7362ZM36.6263 99.4092L32.057 96.7648L31.4994 97.7362L36.0507 100.363C36.2126 100.039 36.4284 99.733 36.6263 99.4092ZM81.4378 126.591L86.007 129.236L86.5647 128.264L82.0134 125.638C81.8335 125.961 81.6356 126.267 81.4378 126.591ZM85.2335 112.434C85.2335 112.613 85.2695 112.811 85.2695 112.991C85.2695 113.171 85.2515 113.369 85.2335 113.549H90.5044V112.434H85.2335ZM71.6516 136L74.278 140.551L75.2494 139.993L72.605 135.424C72.2992 135.604 71.9934 135.802 71.6516 136ZM42.7967 139.975L43.7681 140.533L46.3945 135.982C46.0707 135.802 45.7469 135.586 45.4411 135.406L42.7967 139.975ZM58.4654 139.202V144.473H59.5807V139.202C59.4008 139.202 59.2029 139.238 59.023 139.238C58.8431 139.238 58.6633 139.202 58.4654 139.202ZM31.4814 128.246L32.039 129.218L36.6083 126.573C36.4104 126.249 36.2126 125.944 36.0327 125.62L31.4814 128.246Z" fill="#D8A688"/>
<path d="M50.3343 82.7331L52.2771 90.0008C52.6369 89.8929 52.9967 89.8029 53.3745 89.713L51.4316 82.4453L50.3343 82.7331ZM42.4909 95.6675L37.1661 90.3426L36.3746 91.1342L41.6994 96.459C41.9512 96.1892 42.2211 95.9373 42.4909 95.6675ZM28.4772 105.4L35.7449 107.343C35.8349 106.983 35.9248 106.605 36.0328 106.263L28.7651 104.32L28.4772 105.4ZM64.6898 89.713C65.0495 89.8029 65.4273 89.8929 65.7691 90.0008L67.712 82.7331L66.6326 82.4453L64.6898 89.713ZM75.5553 95.6675C75.8252 95.9193 76.095 96.1892 76.3469 96.459L81.6717 91.1342L80.8802 90.3426L75.5553 95.6675ZM89.587 105.4L89.2992 104.32L82.0495 106.263C82.1574 106.623 82.2474 106.983 82.3373 107.343L89.587 105.4ZM64.6898 136.287L66.6326 143.555L67.712 143.267L65.7691 136C65.4093 136.107 65.0495 136.197 64.6898 136.287ZM82.0315 119.755L89.2812 121.698L89.569 120.619L82.3013 118.676C82.2294 119.018 82.1394 119.395 82.0315 119.755ZM75.5733 130.333L80.8982 135.658L81.6897 134.866L76.3648 129.541C76.095 129.811 75.8432 130.063 75.5733 130.333ZM50.3343 143.267L51.4136 143.555L53.3565 136.287C52.9967 136.197 52.6189 136.107 52.2591 136L50.3343 143.267ZM28.4772 120.601L28.7651 121.68L36.0328 119.737C35.9248 119.377 35.8349 119.018 35.7449 118.658L28.4772 120.601ZM36.3746 134.866L37.1661 135.658L42.4909 130.333C42.2211 130.081 41.9512 129.811 41.6994 129.541L36.3746 134.866Z" fill="#D8A688"/>
<path d="M59.023 145.048C41.3575 145.048 26.984 130.675 26.984 112.991C26.984 95.3076 41.3575 80.9521 59.023 80.9521C76.6885 80.9521 91.062 95.3256 91.062 112.991C91.062 130.657 76.7065 145.048 59.023 145.048ZM59.023 82.0855C41.9691 82.0855 28.0993 95.9553 28.0993 113.009C28.0993 130.063 41.9691 143.933 59.023 143.933C76.0769 143.915 89.9467 130.045 89.9467 112.991C89.9467 95.9553 76.0769 82.0855 59.023 82.0855Z" fill="#D8A688"/>
<path d="M63.3045 114.304C63.4304 113.891 63.5203 113.459 63.5203 112.991C63.5203 110.509 61.5055 108.494 59.023 108.494C58.4653 108.494 57.9436 108.602 57.4579 108.782L39.1628 91.5298L36.7702 90.7383L37.5617 93.1309L54.8135 111.444C54.6336 111.93 54.5257 112.451 54.5257 113.009C54.5257 115.492 56.5405 117.506 59.023 117.506C59.4907 117.506 59.9225 117.416 60.3362 117.291L63.7902 120.96L66.9743 117.776L63.3045 114.304ZM59.023 115.24C57.7817 115.24 56.7743 114.232 56.7743 112.991C56.7743 111.75 57.7817 110.742 59.023 110.742C60.2643 110.742 61.2717 111.75 61.2717 112.991C61.2717 114.232 60.2643 115.24 59.023 115.24Z" fill="#D8A688"/>
<path d="M144.562 99.4092L139.993 96.7648L139.435 97.7362L143.987 100.363C144.149 100.039 144.364 99.733 144.562 99.4092ZM154.331 90.0008L151.704 85.4495L150.733 86.0072L153.377 90.5765C153.701 90.3966 154.007 90.1987 154.331 90.0008ZM179.588 90.0008C179.911 90.1807 180.235 90.3966 180.541 90.5765L183.185 85.9892L182.214 85.4315L179.588 90.0008ZM194.501 97.7362L193.943 96.7648L189.374 99.4092C189.572 99.733 189.77 100.039 189.967 100.363L194.501 97.7362ZM140.731 112.991C140.731 112.811 140.749 112.613 140.767 112.434H135.496V113.549H140.767C140.749 113.369 140.731 113.189 140.731 112.991ZM166.401 86.7987C166.599 86.7987 166.779 86.7627 166.959 86.7627C167.157 86.7627 167.337 86.7807 167.517 86.7987V81.5278H166.401V86.7987ZM166.401 139.202V144.473H167.517V139.202C167.319 139.202 167.139 139.238 166.959 139.238C166.779 139.238 166.599 139.202 166.401 139.202ZM139.417 128.246L139.975 129.218L144.544 126.573C144.346 126.249 144.149 125.944 143.969 125.62L139.417 128.246ZM193.17 112.434C193.17 112.631 193.206 112.811 193.206 112.991C193.206 113.171 193.188 113.369 193.17 113.549H198.44V112.434H193.17ZM189.374 126.591L193.943 129.236L194.501 128.264L189.949 125.638C189.77 125.961 189.572 126.267 189.374 126.591ZM179.588 135.982L182.214 140.533L183.185 139.975L180.541 135.406C180.235 135.604 179.911 135.802 179.588 135.982ZM150.751 139.975L151.722 140.533L154.349 135.982C154.025 135.802 153.701 135.586 153.395 135.406L150.751 139.975Z" fill="#D8A688"/>
<path d="M166.959 145.048C149.294 145.048 134.92 130.675 134.92 112.991C134.92 95.3076 149.294 80.9521 166.959 80.9521C184.625 80.9521 198.998 95.3256 198.998 112.991C198.998 130.657 184.625 145.048 166.959 145.048ZM166.959 82.0855C149.905 82.0855 136.035 95.9553 136.035 113.009C136.035 130.063 149.905 143.933 166.959 143.933C184.013 143.933 197.883 130.063 197.883 113.009C197.883 95.9553 184.013 82.0855 166.959 82.0855Z" fill="#D8A688"/>
<path d="M189.23 90.7383L186.855 91.5478L168.542 108.8C168.056 108.62 167.517 108.494 166.977 108.494C164.495 108.494 162.48 110.509 162.48 112.991C162.48 113.459 162.57 113.891 162.696 114.304L159.026 117.758L162.21 120.942L165.664 117.273C166.078 117.398 166.509 117.488 166.977 117.488C169.46 117.488 171.474 115.474 171.474 112.991C171.474 112.433 171.366 111.912 171.187 111.426L188.456 93.1129L189.23 90.7383ZM166.959 115.24C165.718 115.24 164.71 114.232 164.71 112.991C164.71 111.75 165.718 110.742 166.959 110.742C168.2 110.742 169.208 111.75 169.208 112.991C169.208 114.232 168.2 115.24 166.959 115.24Z" fill="#D8A688"/>
<path d="M112.415 140.766C112.595 140.766 112.793 140.731 112.973 140.731C113.171 140.731 113.351 140.748 113.531 140.766V135.496H112.415V140.766ZM105.885 136.287L106.983 141.45C107.342 141.36 107.702 141.27 108.08 141.216L106.983 136.071L105.885 136.287ZM94.0303 141.828L97.1425 146.109C97.4483 145.875 97.7361 145.66 98.0419 145.444L94.9478 141.18L94.0303 141.828ZM99.661 138.446L101.802 143.267C102.144 143.105 102.467 142.925 102.809 142.781L100.668 137.978L99.661 138.446ZM88.2378 158.324L83.2367 156.705L82.8949 157.766L87.878 159.385C87.9859 159.026 88.1118 158.684 88.2378 158.324ZM86.9785 163.649L81.7436 163.091L81.6177 164.207L86.8526 164.764C86.8886 164.386 86.9245 164.027 86.9785 163.649ZM89.2272 146.307L93.1488 149.833C93.4007 149.545 93.6525 149.275 93.9044 149.006L89.9827 145.48L89.2272 146.307ZM90.5764 153.377L86.0071 150.733L85.4494 151.704L90.0007 154.33C90.1806 154.007 90.3785 153.683 90.5764 153.377ZM135.963 154.33L140.533 151.686L139.975 150.715L135.388 153.359C135.586 153.701 135.784 154.007 135.963 154.33ZM117.884 141.216C118.262 141.288 118.622 141.378 118.982 141.45L120.079 136.251L118.982 136.017L117.884 141.216ZM139.112 164.782L144.382 164.225L144.275 163.109L139.004 163.667C139.022 164.027 139.076 164.404 139.112 164.782ZM138.086 159.385L143.105 157.748L142.763 156.687L137.726 158.324C137.852 158.684 137.978 159.026 138.086 159.385ZM127.922 145.426C128.228 145.642 128.516 145.875 128.822 146.091L131.952 141.792L131.034 141.126L127.922 145.426ZM136.773 146.289L136.017 145.462L132.078 149.024C132.33 149.293 132.581 149.563 132.833 149.851L136.773 146.289ZM123.137 142.781C123.479 142.925 123.821 143.105 124.144 143.267L126.303 138.41L125.278 137.96L123.137 142.781ZM127.94 188.51L131.034 192.774L131.952 192.108L128.84 187.827C128.534 188.06 128.246 188.294 127.94 188.51ZM132.078 184.912L135.999 188.456L136.755 187.629L132.833 184.103C132.581 184.373 132.33 184.642 132.078 184.912ZM117.884 192.72L118.982 197.865L120.079 197.631L118.982 192.486C118.604 192.576 118.244 192.648 117.884 192.72ZM123.137 191.155L125.278 195.958L126.303 195.508L124.162 190.687C123.821 190.831 123.479 191.011 123.137 191.155ZM138.986 170.251L144.257 170.809L144.364 169.693L139.112 169.136C139.076 169.513 139.04 169.891 138.986 170.251ZM137.726 175.594L142.745 177.231L143.087 176.169L138.068 174.532C137.978 174.892 137.852 175.234 137.726 175.594ZM135.388 180.541L139.975 183.185L140.533 182.214L135.963 179.587C135.802 179.911 135.586 180.235 135.388 180.541ZM87.86 174.514L82.8769 176.134L83.2187 177.195L88.2198 175.576C88.0938 175.234 87.9679 174.874 87.86 174.514ZM89.9827 179.587L85.4494 182.214L86.0071 183.185L90.5764 180.559C90.3785 180.217 90.1626 179.911 89.9827 179.587ZM89.2092 187.593L89.9647 188.42L93.8684 184.894C93.6166 184.624 93.3647 184.355 93.1129 184.067L89.2092 187.593ZM86.8526 169.136L81.6177 169.693L81.7436 170.809L86.9785 170.251C86.9245 169.873 86.8886 169.513 86.8526 169.136ZM99.661 195.472L100.686 195.922L102.809 191.137C102.467 190.993 102.126 190.813 101.802 190.651L99.661 195.472ZM94.0303 192.09L94.9478 192.756L98.024 188.51C97.7181 188.294 97.4123 188.06 97.1245 187.845L94.0303 192.09ZM105.885 197.613L106.983 197.847L108.08 192.72C107.702 192.648 107.342 192.558 106.983 192.486L105.885 197.613ZM112.415 193.169V198.44H113.531V193.169C113.351 193.169 113.153 193.205 112.973 193.205C112.793 193.205 112.613 193.169 112.415 193.169Z" fill="#D8A688"/>
<path d="M112.991 199.016C95.3255 199.016 80.952 184.642 80.952 166.977C80.952 149.311 95.3255 134.92 112.991 134.92C130.657 134.92 145.03 149.293 145.03 166.959C145.03 184.624 130.657 199.016 112.991 199.016ZM112.991 136.053C95.9371 136.053 82.0674 149.923 82.0674 166.977C82.0674 184.031 95.9371 197.901 112.991 197.901C130.045 197.883 143.915 184.013 143.915 166.959C143.915 149.923 130.045 136.053 112.991 136.053Z" fill="#D8A688"/>
<path d="M117.488 166.959C117.488 165.142 116.409 163.577 114.862 162.875L114.124 137.726L113.009 135.478L111.894 137.726L111.156 162.875C109.609 163.577 108.53 165.142 108.53 166.959C108.53 168.686 109.501 170.161 110.922 170.917L110.778 175.954H115.276L115.132 170.917C116.517 170.161 117.488 168.686 117.488 166.959ZM112.991 169.208C111.75 169.208 110.742 168.2 110.742 166.959C110.742 165.718 111.75 164.71 112.991 164.71C114.232 164.71 115.24 165.718 115.24 166.959C115.24 168.2 114.232 169.208 112.991 169.208Z" fill="#D8A688"/>
<path d="M194.051 56.2524L112.307 103.061L54.5797 79.2608L101.46 115.365L94.5699 125.889L111.732 121.86C112.146 121.914 112.559 121.985 112.991 121.985C113.711 121.985 114.394 121.878 115.06 121.716L132.473 124.234L124.918 114.646L194.051 56.2524ZM112.991 118.298C110.059 118.298 107.684 115.923 107.684 112.991C107.684 110.059 110.059 107.684 112.991 107.684C115.923 107.684 118.298 110.059 118.298 112.991C118.298 115.923 115.923 118.298 112.991 118.298Z" fill="#D8A688"/>
<path d="M119.161 90.0906C118.55 89.9287 117.938 90.2885 117.776 90.8821L112.451 110.76C111.498 111.03 110.796 111.858 110.796 112.883C110.796 113.495 111.048 114.07 111.462 114.466L84.0282 216.843C83.8663 217.437 84.226 218.067 84.8197 218.229C84.9096 218.247 85.0176 218.265 85.1075 218.265C85.6112 218.265 86.061 217.941 86.1869 217.437L113.639 115.024C114.592 114.754 115.294 113.926 115.294 112.901C115.294 112.271 115.042 111.714 114.628 111.318L119.953 91.4758C120.115 90.8641 119.755 90.2525 119.161 90.0906Z" fill="#E53935"/>
</g>
<defs>
<clipPath id="clip0_2_1925">
<rect width="225.982" height="226" fill="white"/>
</clipPath>
</defs>
</svg>
