<svg width="226" height="226" viewBox="0 0 226 226" fill="none" xmlns="http://www.w3.org/2000/svg">
<g clip-path="url(#clip0_2_1832)">
<path d="M113 226C50.698 226 0 175.32 0 113C0 50.698 50.698 0 113 0C175.302 0 226 50.698 226 113C226 175.32 175.32 226 113 226ZM113 1.11543C51.3097 1.11543 1.11543 51.3097 1.11543 113C1.11543 174.69 51.3097 224.885 113 224.885C174.69 224.885 224.885 174.69 224.885 113C224.885 51.3097 174.69 1.11543 113 1.11543Z" fill="#D8A688"/>
<path d="M61.7803 23.154L57.2826 15.364L56.3111 15.9217L60.8088 23.7117C61.1326 23.5138 61.4564 23.3339 61.7803 23.154ZM46.4701 22.3804L51.7594 29.6487C52.0653 29.4328 52.3711 29.2169 52.677 29.001L47.3877 21.7148L46.4701 22.3804ZM71.4593 18.2785L67.8072 10.0747L66.7817 10.5245L70.4338 18.7463C70.7757 18.5844 71.1175 18.4224 71.4593 18.2785ZM92.0587 11.6939L90.1877 2.91441L89.0903 3.14829L90.9613 11.9458C91.3211 11.8558 91.6809 11.7659 92.0587 11.6939ZM81.5701 14.4285L78.7995 5.90087L77.7381 6.2427L80.5087 14.7883C80.8685 14.6804 81.2283 14.5544 81.5701 14.4285ZM37.3668 29.8286L43.3757 36.5032C43.6456 36.2513 43.9514 36.0174 44.2213 35.7655L38.1944 29.073L37.3668 29.8286ZM23.7118 60.7907L15.9398 56.293L15.3821 57.2645L23.1721 61.7622C23.334 61.4384 23.5319 61.1145 23.7118 60.7907ZM11.9459 90.9432L3.18436 89.0722L2.95048 90.1696L11.712 92.0227C11.766 91.6629 11.8559 91.303 11.9459 90.9432ZM10.2008 101.63L1.27734 100.694L1.16939 101.81L10.0928 102.745C10.1108 102.367 10.1468 102.008 10.2008 101.63ZM14.8064 80.4906L6.27877 77.72L5.93695 78.7815L14.4466 81.552C14.5545 81.1922 14.6805 80.8504 14.8064 80.4906ZM29.0911 38.1943L35.7836 44.2212C36.0355 43.9334 36.2694 43.6455 36.5212 43.3756L29.8467 37.3667L29.0911 38.1943ZM29.6668 51.7413L22.3985 46.4521L21.7328 47.3696L29.0011 52.6589C29.235 52.353 29.4329 52.0472 29.6668 51.7413ZM112.442 9.57099C112.622 9.57099 112.82 9.553 113 9.553C113.18 9.553 113.378 9.57099 113.558 9.57099V0.557617H112.442V9.57099ZM18.7464 70.4158L10.5426 66.7636L10.0928 67.7891L18.2786 71.4412C18.4225 71.0814 18.5845 70.7576 18.7464 70.4158ZM154.577 18.2785C154.918 18.4224 155.26 18.5844 155.602 18.7463L159.29 10.4885L158.265 10.0388L154.577 18.2785ZM202.864 61.7802L210.708 57.2465L210.15 56.275L202.306 60.8087C202.504 61.1325 202.684 61.4564 202.864 61.7802ZM196.981 38.1583L196.225 37.3307L189.497 43.3756C189.749 43.6455 189.982 43.9513 190.234 44.2212L196.981 38.1583ZM207.739 71.4412L215.997 67.7711L215.547 66.7456L207.29 70.4158C207.434 70.7576 207.595 71.0994 207.739 71.4412ZM197.017 52.6769L204.357 47.3516L203.691 46.4341L196.369 51.7593C196.585 52.0652 196.801 52.371 197.017 52.6769ZM123.291 10.0747C123.669 10.1107 124.028 10.1647 124.406 10.2007L125.36 1.20528L124.226 1.07935L123.291 10.0747ZM214.324 92.0407L223.139 90.1696L222.906 89.0722L214.072 90.9432C214.162 91.303 214.252 91.6808 214.324 92.0407ZM211.571 81.57L220.153 78.7815L219.811 77.72L211.212 80.5086C211.338 80.8684 211.463 81.2102 211.571 81.57ZM215.943 102.745L224.921 101.81L224.813 100.694L215.817 101.648C215.853 102.008 215.907 102.367 215.943 102.745ZM144.466 14.4465C144.826 14.5544 145.167 14.6804 145.527 14.8063L148.316 6.20672L147.254 5.86489L144.466 14.4465ZM9.55309 113C9.55309 112.802 9.57108 112.622 9.57108 112.424H0.593689V113.54H9.57108C9.57108 113.378 9.55309 113.198 9.55309 113ZM133.995 11.6939C134.373 11.7659 134.733 11.8738 135.093 11.9458L136.964 3.09432L135.866 2.86044L133.995 11.6939ZM164.256 23.154C164.58 23.3339 164.903 23.5318 165.227 23.7117L169.761 15.8678L168.789 15.31L164.256 23.154ZM181.797 35.7655C182.085 36.0174 182.372 36.2513 182.642 36.5032L188.687 29.7746L187.86 29.019L181.797 35.7655ZM173.359 29.019C173.665 29.2349 173.971 29.4508 174.277 29.6667L179.602 22.3444L178.684 21.6788L173.359 29.019ZM102.745 10.0747L101.81 1.13332L100.694 1.24127L101.63 10.2007C102.008 10.1467 102.385 10.1107 102.745 10.0747ZM173.341 196.999L178.648 204.303L179.566 203.637L174.259 196.351C173.971 196.567 173.647 196.783 173.341 196.999ZM181.797 190.234L187.842 196.945L188.669 196.189L182.642 189.497C182.372 189.749 182.085 189.982 181.797 190.234ZM123.255 215.943L124.19 224.902L125.306 224.795L124.37 215.835C124.01 215.853 123.633 215.907 123.255 215.943ZM164.238 202.864L168.753 210.672L169.725 210.114L165.209 202.306C164.885 202.486 164.562 202.666 164.238 202.864ZM133.977 214.324L135.848 223.103L136.946 222.87L135.075 214.072C134.697 214.144 134.337 214.252 133.977 214.324ZM154.577 207.739L158.247 215.961L159.272 215.511L155.602 207.272C155.26 207.433 154.918 207.577 154.577 207.739ZM144.448 211.571L147.218 220.117L148.28 219.775L145.491 211.212C145.149 211.337 144.808 211.463 144.448 211.571ZM189.515 182.642L196.225 188.669L196.981 187.841L190.27 181.797C190 182.066 189.767 182.354 189.515 182.642ZM215.817 124.37L224.813 125.324L224.921 124.208L215.943 123.273C215.907 123.632 215.853 123.992 215.817 124.37ZM216.447 112.442C216.447 112.64 216.465 112.82 216.465 113.018C216.465 113.198 216.447 113.396 216.447 113.576H225.496V112.442H216.447ZM214.072 135.057L222.906 136.928L223.139 135.83L214.324 133.959C214.252 134.319 214.162 134.679 214.072 135.057ZM196.369 174.258L203.673 179.566L204.339 178.648L197.035 173.341C196.801 173.647 196.585 173.953 196.369 174.258ZM202.306 165.209L210.132 169.725L210.69 168.753L202.864 164.238C202.684 164.543 202.504 164.885 202.306 165.209ZM207.29 155.584L215.529 159.254L215.979 158.229L207.739 154.559C207.595 154.9 207.434 155.242 207.29 155.584ZM211.212 145.491L219.793 148.28L220.135 147.218L211.571 144.43C211.463 144.79 211.338 145.149 211.212 145.491ZM18.2786 154.577L10.0928 158.211L10.5426 159.236L18.7284 155.584C18.5845 155.26 18.4225 154.918 18.2786 154.577ZM29.0011 173.341L21.7328 178.612L22.3985 179.53L29.6488 174.258C29.4329 173.971 29.217 173.647 29.0011 173.341ZM23.1541 164.238L15.3821 168.717L15.9398 169.689L23.7118 165.209C23.5139 164.885 23.334 164.561 23.1541 164.238ZM29.1091 187.806L29.8647 188.633L36.5212 182.642C36.2694 182.372 36.0355 182.066 35.7836 181.797L29.1091 187.806ZM37.3848 196.171L38.2124 196.927L44.2213 190.252C43.9334 190 43.6456 189.766 43.3757 189.515L37.3848 196.171ZM11.676 133.959L2.93249 135.83L3.16637 136.928L11.9279 135.057C11.8559 134.697 11.766 134.337 11.676 133.959ZM10.0748 123.255L1.16939 124.19L1.27734 125.306L10.2008 124.37C10.1468 123.992 10.1108 123.632 10.0748 123.255ZM14.4286 144.448L5.93695 147.2L6.27877 148.262L14.7884 145.491C14.6805 145.149 14.5545 144.808 14.4286 144.448ZM100.712 224.741L101.828 224.848L102.763 215.925C102.385 215.889 102.026 215.835 101.648 215.799L100.712 224.741ZM89.0903 222.834L90.1877 223.067L92.0407 214.324C91.6629 214.252 91.3031 214.144 90.9433 214.072L89.0903 222.834ZM112.442 216.429V225.442H113.558V216.429C113.378 216.429 113.18 216.447 113 216.447C112.82 216.447 112.64 216.429 112.442 216.429ZM77.7561 219.739L78.8175 220.081L81.5881 211.571C81.2283 211.463 80.8865 211.337 80.5266 211.212L77.7561 219.739ZM46.4881 203.619L47.4057 204.285L52.677 197.017C52.3711 196.801 52.0653 196.585 51.7594 196.369L46.4881 203.619ZM56.3291 210.078L57.3006 210.636L61.7803 202.864C61.4564 202.684 61.1326 202.486 60.8088 202.306L56.3291 210.078ZM66.7817 215.475L67.8072 215.925L71.4593 207.739C71.1175 207.595 70.7757 207.433 70.4338 207.272L66.7817 215.475Z" fill="#D8A688"/>
<path d="M111.327 16.3535C111.885 16.3535 112.442 16.3175 113.018 16.3175C113.576 16.3175 114.133 16.3535 114.709 16.3535V0.557617H111.327V16.3535ZM66.152 28.4613L58.2541 14.7883L55.3396 16.4794L63.2195 30.1344C64.191 29.5587 65.1625 29.001 66.152 28.4613ZM14.8064 58.254L28.4614 66.1339C29.0011 65.1445 29.5588 64.173 30.1525 63.2195L16.4975 55.3395L14.8064 58.254ZM211.266 58.218L209.574 55.3035L195.865 63.2195C196.441 64.173 196.999 65.1625 197.539 66.1339L211.266 58.218ZM159.884 28.4613C160.873 29.001 161.845 29.5587 162.798 30.1344L170.714 16.4255L167.8 14.7523L159.884 28.4613ZM16.2996 113C16.2996 112.424 16.3356 111.866 16.3356 111.309H0.593689V114.691H16.3356C16.3356 114.133 16.2996 113.576 16.2996 113ZM195.883 162.78L209.574 170.678L211.266 167.764L197.575 159.848C197.017 160.837 196.459 161.827 195.883 162.78ZM159.884 197.557L167.782 211.247L170.696 209.556L162.798 195.883C161.845 196.441 160.855 196.999 159.884 197.557ZM209.664 111.309C209.664 111.866 209.7 112.442 209.7 113C209.7 113.558 209.664 114.115 209.664 114.673H225.478V111.291H209.664V111.309ZM111.327 209.664V225.46H114.709V209.664C114.151 209.664 113.594 209.7 113.018 209.7C112.442 209.7 111.885 209.664 111.327 209.664ZM55.3576 209.52L58.2721 211.212L66.152 197.574C65.1625 197.035 64.191 196.477 63.2375 195.883L55.3576 209.52ZM14.8244 167.746L16.5155 170.66L30.1525 162.78C29.5768 161.809 29.0191 160.837 28.4794 159.866L14.8244 167.746Z" fill="#D8A688"/>
<path d="M113 217.005C55.6454 217.005 8.99536 170.355 8.99536 113C8.99536 55.6457 55.6454 8.99561 113 8.99561C170.355 8.99561 217.005 55.6457 217.005 113C217.005 170.355 170.355 217.005 113 217.005ZM113 10.111C56.2751 10.111 10.1108 56.2573 10.1108 113C10.1108 169.743 56.2751 215.889 113 215.889C169.725 215.889 215.889 169.743 215.889 113C215.889 56.2573 169.743 10.111 113 10.111Z" fill="#D8A688"/>
<path d="M113 44.9771C75.4893 44.9771 44.9769 75.5074 44.9769 113C44.9769 139.824 60.5749 163.068 83.1713 174.151C83.6751 174.385 84.1608 174.618 84.6646 174.852C84.4307 174.349 84.2328 173.827 84.0349 173.323C83.5491 173.071 83.0634 172.837 82.5956 172.604C60.9527 161.503 46.0924 138.961 46.0924 113C46.0924 76.1191 76.1189 46.1105 113 46.1105C149.899 46.1105 179.908 76.1191 179.908 113C179.908 138.961 165.065 161.503 143.422 172.604C142.937 172.837 142.451 173.071 141.965 173.323C141.767 173.827 141.569 174.349 141.335 174.852C141.839 174.618 142.361 174.385 142.865 174.133C165.443 163.05 181.023 139.806 181.023 113C181.023 75.5074 150.511 44.9771 113 44.9771Z" fill="#D8A688"/>
<path d="M176.022 67.861C176.489 68.4907 176.975 69.0484 177.659 69.4442L188.165 63.3813C188.165 62.6077 187.86 61.7801 187.554 61.0605L188.381 60.7007L191.71 66.4577L190.864 66.7996C190.396 66.1699 189.911 65.6122 189.227 65.2164L178.72 71.2792C178.72 72.0529 179.026 72.8804 179.332 73.6001L178.504 73.9599L175.176 68.2028L176.022 67.861Z" fill="#D8A688"/>
<path d="M180.537 75.669C181.005 76.2987 181.491 76.8564 182.175 77.2342L192.681 71.1713C192.681 70.3977 192.375 69.5702 192.069 68.8505L192.897 68.4907L196.225 74.2658L195.38 74.5896C194.912 73.9599 194.426 73.4022 193.743 73.0244L183.236 79.0873C183.236 79.8609 183.542 80.6885 183.848 81.4081L183.02 81.7679L179.692 76.0109L180.537 75.669Z" fill="#D8A688"/>
<path d="M149.125 44.6349C149.845 44.9407 150.547 45.1926 151.32 45.1746L157.383 34.668C156.987 34.0024 156.34 33.4446 155.692 32.9589L156.232 32.2393L161.989 35.5675L161.431 36.2872C160.712 35.9633 160.01 35.7295 159.236 35.7475L153.155 46.2541C153.551 46.9197 154.217 47.4774 154.847 47.9632L154.307 48.6828L148.55 45.3545L149.125 44.6349Z" fill="#D8A688"/>
<path d="M190.378 100.766C190.468 101.558 190.594 102.277 191.008 102.943H203.152C203.53 102.259 203.691 101.414 203.781 100.622L204.681 100.73V107.387L203.781 107.243C203.691 106.451 203.565 105.731 203.152 105.066H191.008C190.63 105.749 190.468 106.595 190.378 107.387L189.479 107.279V100.622L190.378 100.766Z" fill="#D8A688"/>
<path d="M190.378 109.779C190.468 110.571 190.594 111.29 191.008 111.956H203.152C203.53 111.272 203.691 110.427 203.781 109.635L204.681 109.743V116.4L203.781 116.256C203.691 115.464 203.565 114.745 203.152 114.079H191.008C190.63 114.763 190.468 115.608 190.378 116.4L189.479 116.292V109.635L190.378 109.779Z" fill="#D8A688"/>
<path d="M190.378 118.811C190.468 119.603 190.594 120.322 191.008 120.988H203.152C203.53 120.304 203.691 119.459 203.781 118.667L204.681 118.775V125.432L203.781 125.288C203.691 124.496 203.565 123.776 203.152 123.111H191.008C190.63 123.794 190.468 124.64 190.378 125.432L189.479 125.324V118.667L190.378 118.811Z" fill="#D8A688"/>
<path d="M185.431 142.307C185.125 143.026 184.873 143.728 184.891 144.502L195.398 150.564C196.063 150.169 196.639 149.503 197.107 148.873L197.826 149.413L194.498 155.17L193.779 154.594C194.102 153.875 194.336 153.173 194.318 152.399L183.812 146.337C183.146 146.732 182.588 147.398 182.103 148.028L181.383 147.488L184.711 141.731L185.431 142.307Z" fill="#D8A688"/>
<path d="M191.71 157.005C192.195 156.753 192.699 156.285 193.149 155.728L193.868 156.267L190.666 161.809L189.946 161.233C190.27 160.513 190.504 159.812 190.486 159.038L179.26 157.041L186.618 165.785C187.266 165.389 187.824 164.741 188.273 164.129L188.993 164.669L186.042 169.779L185.323 169.203C185.593 168.555 185.827 167.889 185.773 167.152L176.507 155.854L177.227 154.612L191.71 157.005Z" fill="#D8A688"/>
<path d="M163.176 187.967C163.716 188.003 164.4 187.841 165.065 187.59L165.425 188.417L159.884 191.619L159.542 190.774C160.172 190.306 160.729 189.82 161.125 189.137L152.4 181.796L154.415 193.041C155.17 193.023 155.98 192.735 156.682 192.429L157.041 193.257L151.95 196.207L151.608 195.362C152.166 194.93 152.706 194.462 153.029 193.814L150.655 179.404L151.896 178.684L163.176 187.967Z" fill="#D8A688"/>
<path d="M80.8325 198.474C81.0664 198.96 81.5521 199.464 82.1099 199.913L81.5701 200.633L76.029 197.431L76.5867 196.711C77.3063 197.017 78.008 197.269 78.7816 197.251L80.7785 186.025L72.035 193.383C72.4308 194.03 73.0785 194.588 73.6902 195.038L73.1505 195.758L68.0411 192.807L68.6168 192.087C69.2644 192.357 69.9301 192.591 70.6677 192.537L81.9659 183.272L83.2073 183.992L80.8325 198.474Z" fill="#D8A688"/>
<path d="M74.1039 179.817C73.3843 179.494 72.6827 179.26 71.9091 179.278L65.8462 189.784C66.242 190.45 66.8896 191.008 67.5373 191.493L66.9976 192.213L61.2225 188.885L61.7982 188.165C62.5179 188.471 63.2195 188.723 63.9931 188.705L70.056 178.198C69.6602 177.533 68.9945 176.957 68.3649 176.489L68.9046 175.77L74.6616 179.098L74.1039 179.817Z" fill="#D8A688"/>
<path d="M66.2959 175.302C65.5763 174.996 64.8747 174.744 64.1011 174.762L58.0382 185.269C58.434 185.934 59.0996 186.492 59.7293 186.978L59.1896 187.697L53.4326 184.369L53.9903 183.65C54.7099 183.973 55.4115 184.207 56.1851 184.189L62.248 173.683C61.8522 173.017 61.2046 172.459 60.5569 171.974L61.0966 171.254L66.8537 174.582L66.2959 175.302Z" fill="#D8A688"/>
<path d="M44.9229 174.888C44.8869 175.428 45.0488 176.112 45.3007 176.759L44.4731 177.119L41.2708 171.578L42.1163 171.254C42.5841 171.884 43.0698 172.442 43.7535 172.837L51.0937 164.112L39.8495 166.127C39.8675 166.882 40.1553 167.692 40.4612 168.394L39.6336 168.753L36.6831 163.644L37.5287 163.32C37.9605 163.878 38.4282 164.418 39.0759 164.741L53.4865 162.367L54.2061 163.608L44.9229 174.888Z" fill="#D8A688"/>
<path d="M48.4131 155.35C47.9453 154.72 47.4776 154.163 46.7759 153.785L36.2693 159.848C36.2693 160.621 36.5572 161.449 36.881 162.168L36.0535 162.528L32.7252 156.771L33.5707 156.447C34.0385 157.077 34.5242 157.635 35.2079 158.031L45.7145 151.968C45.7145 151.194 45.4086 150.367 45.1028 149.647L45.9304 149.287L49.2587 155.044L48.4131 155.35Z" fill="#D8A688"/>
<path d="M43.9154 147.542C43.4476 146.912 42.9619 146.355 42.2783 145.977L31.7716 152.04C31.7716 152.813 32.0775 153.641 32.3833 154.36L31.5378 154.72L28.2095 148.963L29.055 148.639C29.5228 149.269 30.0085 149.827 30.6922 150.223L41.1988 144.16C41.1988 143.386 40.911 142.558 40.5871 141.839L41.4147 141.479L44.743 147.236L43.9154 147.542Z" fill="#D8A688"/>
<path d="M39.3997 139.734C38.932 139.104 38.4462 138.547 37.7626 138.151L27.256 144.214C27.256 144.987 27.5438 145.815 27.8677 146.535L27.0401 146.894L23.7118 141.137L24.5574 140.814C25.0251 141.443 25.5109 142.001 26.1945 142.379L36.7011 136.316C36.7011 135.542 36.4133 134.733 36.0894 133.995L36.917 133.635L40.2453 139.392L39.3997 139.734Z" fill="#D8A688"/>
<path d="M35.6397 124.172C35.5497 123.38 35.4238 122.661 35.01 121.995H22.8663C22.4884 122.679 22.3265 123.524 22.2366 124.316L21.337 124.208V117.551L22.2366 117.695C22.3265 118.487 22.4525 119.206 22.8663 119.872H35.01C35.3878 119.188 35.5497 118.343 35.6397 117.551L36.5392 117.659V124.316L35.6397 124.172Z" fill="#D8A688"/>
<path d="M35.6397 116.328C35.5497 115.033 35.2439 114.313 34.4343 113.701L28.9651 109.582L23.0462 113.845C22.5244 114.223 22.3445 114.691 22.2366 116.004L21.337 115.896V109.132L22.2366 109.276C22.3265 110.211 22.5604 110.859 22.8842 111.183L27.202 108.088L22.8663 104.832C22.5064 105.39 22.3265 105.947 22.2366 106.739L21.337 106.631V101.162L22.2366 101.288C22.3265 102.385 22.5604 102.961 23.1361 103.375L28.3175 107.261L34.4703 102.817C35.1 102.367 35.4958 101.576 35.6397 100.532L36.5392 100.64V107.477L35.6397 107.333C35.6397 106.271 35.4778 105.642 34.956 105.246L30.0805 108.772L35.028 112.496C35.4598 112.208 35.6397 111.507 35.6397 110.229L36.5392 110.337V116.454L35.6397 116.328Z" fill="#D8A688"/>
<path d="M42.3323 80.9762C42.908 79.8068 42.9979 79.0152 42.6022 78.0977L39.9215 71.8009L32.6712 72.5385C32.0236 72.6105 31.6458 72.9343 30.8902 73.9958L30.1705 73.4561L33.5528 67.5911L34.2724 68.1488C33.8766 69.0123 33.7507 69.678 33.8766 70.1278L39.1659 69.606L37.043 64.6226C36.4493 64.9284 36.0175 65.3242 35.5318 65.9539L34.8121 65.4142L37.5467 60.6826L38.2484 61.2403C37.7806 62.2298 37.6907 62.8415 37.9785 63.5072L40.5152 69.4621L48.0713 68.6885C48.8449 68.6165 49.5826 68.1308 50.2302 67.2852L50.9499 67.825L47.5316 73.7619L46.812 73.2042C47.3337 72.2867 47.5136 71.657 47.2798 71.0633L41.2888 71.675L43.7176 77.3601C44.2393 77.3241 44.7431 76.8023 45.3727 75.7049L46.0924 76.2446L43.0339 81.5339L42.3323 80.9762Z" fill="#D8A688"/>
<path d="M63.9212 52.3707C65.0006 51.6331 65.4684 51.0034 65.5943 49.9959L66.4219 43.2134L59.7653 40.2269C59.1716 39.9751 58.6679 40.047 57.4985 40.6047L57.1387 39.7772L63.0037 36.3949L63.3455 37.2405C62.5719 37.7982 62.1401 38.3019 62.0142 38.7697L66.8537 40.9646L67.5014 35.5673C66.8357 35.5313 66.26 35.6573 65.5404 35.9811L65.1805 35.1535L69.9121 32.4189L70.2539 33.2645C69.3364 33.8942 68.9766 34.3619 68.8866 35.0816L68.095 41.5043L75.0395 44.6167C75.7411 44.9405 76.6227 44.8865 77.6122 44.4728L77.972 45.3003L72.053 48.7186L71.7112 47.873C72.6287 47.3513 73.0965 46.9015 73.1864 46.2359L67.6993 43.7711L66.9436 49.924C67.4114 50.1398 68.095 49.9599 69.2105 49.3123L69.5703 50.1399L64.281 53.1983L63.9212 52.3707Z" fill="#D8A688"/>
<path d="M78.6376 43.8793C79.2673 43.4115 79.825 42.9258 80.2208 42.2421L74.1579 31.7175C73.3843 31.7355 72.5567 32.0234 71.8371 32.3292L71.4773 31.5016L77.2343 28.1733L77.5762 29.0189C76.9465 29.4867 76.3888 29.9724 75.993 30.6561L82.0739 41.1807C82.8475 41.1807 83.657 40.8928 84.3947 40.569L84.7545 41.3966L78.9974 44.7248L78.6376 43.8793Z" fill="#D8A688"/>
<path d="M96.2146 35.6396C97.51 35.5496 98.2296 35.2438 98.8413 34.4342L102.961 28.965L98.6973 23.046C98.3195 22.5243 97.8518 22.3444 96.5385 22.2365L96.6464 21.3369H103.411L103.267 22.2365C102.331 22.3264 101.684 22.5423 101.36 22.8841L104.454 27.2019L107.711 22.8661C107.153 22.5063 106.595 22.3264 105.804 22.2365L105.912 21.3369H111.381L111.255 22.2365C110.157 22.3264 109.582 22.5423 109.168 23.136L105.282 28.2993L109.726 34.4522C110.175 35.0819 110.967 35.4956 112.011 35.6216L111.903 36.5211H105.066L105.21 35.6216C106.271 35.6216 106.901 35.4597 107.297 34.9379L103.771 30.0624L100.047 35.0099C100.335 35.4417 101.036 35.6216 102.313 35.6216L102.206 36.5211H96.0887L96.2146 35.6396Z" fill="#D8A688"/>
<path d="M113.216 35.6396C114.007 35.5496 114.727 35.4237 115.393 35.0099V22.8661C114.709 22.4883 113.864 22.3264 113.072 22.2365L113.18 21.3369H119.836L119.693 22.2365C118.901 22.3264 118.181 22.4523 117.516 22.8661V35.0099C118.199 35.3877 119.045 35.5496 119.836 35.6396L119.729 36.5391H113.072L113.216 35.6396Z" fill="#D8A688"/>
<path d="M122.229 35.6396C123.021 35.5496 123.741 35.4237 124.406 35.0099V22.8661C123.723 22.4883 122.877 22.3264 122.085 22.2365L122.193 21.3369H128.85L128.706 22.2365C127.914 22.3264 127.195 22.4523 126.529 22.8661V35.0099C127.213 35.3877 128.058 35.5496 128.85 35.6396L128.742 36.5391H122.085L122.229 35.6396Z" fill="#D8A688"/>
<path d="M96.7723 135.488L99.4169 140.058C99.7408 139.86 100.047 139.662 100.37 139.482L97.7438 134.931L96.7723 135.488ZM86.7694 162.475C86.7694 162.277 86.7874 162.097 86.8054 161.917H81.5341V163.032H86.8054C86.8054 162.852 86.7694 162.672 86.7694 162.475ZM112.442 136.28C112.622 136.28 112.82 136.244 113 136.244C113.18 136.244 113.378 136.262 113.558 136.28V130.991H112.442V136.28ZM85.4561 147.218L90.0078 149.845C90.1877 149.521 90.4036 149.197 90.6015 148.892L86.0318 146.247L85.4561 147.218ZM140.544 147.218L139.986 146.247L135.416 148.892C135.614 149.215 135.812 149.521 135.992 149.845L140.544 147.218ZM125.629 139.482C125.953 139.662 126.277 139.878 126.583 140.058L129.228 135.488L128.256 134.931L125.629 139.482ZM135.416 176.076L139.986 178.72L140.544 177.749L135.992 175.122C135.83 175.428 135.614 175.752 135.416 176.076ZM139.213 161.917C139.213 162.115 139.248 162.295 139.248 162.475C139.248 162.672 139.23 162.852 139.213 163.032H144.484V161.917H139.213ZM85.4561 177.731L86.0138 178.702L90.5835 176.058C90.3856 175.734 90.1877 175.428 90.0078 175.104L85.4561 177.731ZM125.629 185.485L128.256 190.036L129.228 189.479L126.583 184.909C126.277 185.089 125.971 185.305 125.629 185.485ZM112.442 188.687V193.958H113.558V188.687C113.378 188.687 113.18 188.723 113 188.723C112.82 188.723 112.64 188.687 112.442 188.687ZM96.7723 189.461L97.7438 190.018L100.37 185.467C100.047 185.287 99.7228 185.071 99.4169 184.873L96.7723 189.461Z" fill="#D8A688"/>
<path d="M118.667 139.194C119.027 139.284 119.405 139.374 119.765 139.482L121.708 132.214L120.628 131.926L118.667 139.194ZM104.31 132.214L106.253 139.482C106.613 139.374 106.973 139.284 107.351 139.194L105.408 131.908L104.31 132.214ZM143.566 154.882L143.278 153.803L136.01 155.746C136.118 156.106 136.208 156.466 136.298 156.843L143.566 154.882ZM129.533 145.149C129.803 145.401 130.073 145.671 130.325 145.941L135.65 140.616L134.859 139.824L129.533 145.149ZM82.4517 154.882L89.7199 156.825C89.8099 156.466 89.8998 156.088 90.0078 155.746L82.7395 153.803L82.4517 154.882ZM90.3496 140.616L95.6749 145.941C95.9267 145.671 96.1966 145.401 96.4665 145.149L91.1412 139.824L90.3496 140.616ZM118.667 185.773L120.61 193.041L121.69 192.753L119.747 185.503C119.405 185.593 119.027 185.683 118.667 185.773ZM129.551 179.818L134.877 185.143L135.668 184.351L130.343 179.026C130.073 179.296 129.821 179.548 129.551 179.818ZM136.01 169.221L143.278 171.164L143.566 170.085L136.298 168.142C136.208 168.501 136.118 168.879 136.01 169.221ZM82.4517 170.085L82.7395 171.164L90.0078 169.221C89.8998 168.861 89.8099 168.501 89.7199 168.142L82.4517 170.085ZM90.3496 184.351L91.1412 185.143L96.4665 179.818C96.1966 179.566 95.9267 179.296 95.6749 179.026L90.3496 184.351ZM104.31 192.753L105.39 193.041L107.333 185.773C106.973 185.683 106.595 185.593 106.235 185.485L104.31 192.753Z" fill="#D8A688"/>
<path d="M113 130.433C95.3331 130.433 80.9584 144.808 80.9584 162.475C80.9584 166.019 81.5341 169.419 82.5956 172.603C82.7755 173.125 82.9554 173.647 83.1713 174.151C87.8309 186.079 99.4529 194.534 113 194.534C126.565 194.534 138.187 186.061 142.865 174.133C143.063 173.629 143.242 173.125 143.422 172.603C144.484 169.419 145.06 166.019 145.06 162.475C145.06 144.808 130.667 130.433 113 130.433ZM141.965 173.323C141.767 173.827 141.569 174.349 141.335 174.852C136.568 185.755 125.665 193.401 113 193.401C100.334 193.401 89.4321 185.755 84.6645 174.852C84.4307 174.349 84.2328 173.827 84.0349 173.323C82.7755 169.941 82.0739 166.289 82.0739 162.475C82.0739 145.437 95.9447 131.567 113 131.567C130.055 131.567 143.926 145.437 143.926 162.475C143.926 166.289 143.224 169.941 141.965 173.323Z" fill="#D8A688"/>
<path d="M135.273 140.22L132.88 141.012L114.331 158.193C113.917 158.067 113.486 157.977 113.018 157.977C110.535 157.977 108.52 159.992 108.52 162.475C108.52 163.158 108.682 163.788 108.952 164.364L103.483 172.028L111.147 166.559C111.723 166.829 112.352 166.99 113.036 166.99C115.519 166.99 117.534 164.976 117.534 162.493C117.534 162.025 117.444 161.593 117.318 161.179L134.499 142.631L135.273 140.22ZM113 164.724C111.759 164.724 110.751 163.716 110.751 162.475C110.751 161.233 111.759 160.226 113 160.226C114.241 160.226 115.249 161.233 115.249 162.475C115.249 163.716 114.241 164.724 113 164.724Z" fill="#D8A688"/>
<path d="M194.066 56.2573L180.429 60.3052L118.631 106.038C117.084 104.778 115.141 104.005 113 104.005C110.607 104.005 108.448 104.958 106.847 106.47L64.8027 79.9871L54.584 79.2855L60.305 87.7771L104.274 110.949C104.113 111.615 104.023 112.299 104.023 113.018C104.023 117.984 108.053 122.014 113.018 122.014C117.983 122.014 122.013 117.984 122.013 113.018C122.013 111.993 121.797 111.021 121.492 110.104L185.593 67.6815L194.066 56.2573ZM113 118.307C110.068 118.307 107.693 115.933 107.693 113C107.693 110.068 110.068 107.693 113 107.693C115.915 107.693 118.307 110.068 118.307 113C118.307 115.933 115.932 118.307 113 118.307Z" fill="#D8A688"/>
<path d="M120.574 84.7725C119.387 84.4487 118.145 85.1683 117.822 86.3557L114.313 99.381C114.097 100.173 114.367 100.964 114.907 101.522L112.406 110.877C111.471 111.147 110.751 111.975 110.751 113C110.751 113.612 111.003 114.169 111.399 114.583L95.8908 172.459C94.9193 173.899 93.7679 175.95 93.1022 178.378C92.4545 180.825 92.4186 183.164 92.5445 184.891L83.9449 216.951C83.783 217.544 84.1428 218.174 84.7365 218.336C84.8265 218.354 84.9344 218.372 85.0243 218.372C85.5281 218.372 85.9779 218.048 86.1038 217.544L94.7394 185.305C95.6929 183.884 96.7903 181.887 97.42 179.548C98.0497 177.191 98.1036 174.924 97.9777 173.215L113.594 115.141C114.547 114.871 115.249 114.043 115.249 113.018C115.249 112.388 114.997 111.831 114.583 111.435L117.066 102.152C117.804 101.954 118.433 101.378 118.649 100.586L122.157 87.5611C122.481 86.3197 121.779 85.0963 120.574 84.7725Z" fill="#E53935"/>
</g>
<defs>
<clipPath id="clip0_2_1832">
<rect width="226" height="226" fill="white"/>
</clipPath>
</defs>
</svg>
