<svg width="226" height="226" viewBox="0 0 226 226" fill="none" xmlns="http://www.w3.org/2000/svg">
<g clip-path="url(#clip0_2_1884)">
<path d="M113 226C50.698 226 0 175.32 0 113C0 50.68 50.698 0 113 0C175.302 0 226 50.698 226 113C226 175.302 175.32 226 113 226ZM113 1.11543C51.3097 1.11543 1.11543 51.3097 1.11543 113C1.11543 174.69 51.3097 224.885 113 224.885C174.69 224.885 224.885 174.69 224.885 113C224.885 51.3097 174.69 1.11543 113 1.11543Z" fill="#D8A688"/>
<path d="M61.7803 23.136L57.2826 15.346L56.3111 15.9217L60.8088 23.7117C61.1326 23.5138 61.4564 23.3339 61.7803 23.136ZM37.3668 29.8286L43.3757 36.5032C43.6456 36.2513 43.9514 36.0174 44.2213 35.7655L38.1944 29.073L37.3668 29.8286ZM112.442 9.57099C112.622 9.57099 112.82 9.553 113 9.553C113.18 9.553 113.378 9.57099 113.558 9.57099V0.557617H112.442V9.57099ZM81.5701 14.4285L78.7995 5.90087L77.7381 6.2427L80.5087 14.7883C80.8685 14.6804 81.2283 14.5544 81.5701 14.4285ZM102.745 10.0747L101.81 1.13332L100.694 1.25926L101.63 10.2007C102.008 10.1467 102.385 10.1107 102.745 10.0747ZM92.0407 11.6759L90.1697 2.89642L89.0723 3.1303L90.9433 11.9278C91.3211 11.8558 91.6809 11.7659 92.0407 11.6759ZM71.4593 18.2605L67.8072 10.0567L66.7817 10.5065L70.4338 18.7103C70.7757 18.5844 71.1175 18.4224 71.4593 18.2605ZM11.9459 90.9432L3.16637 89.0722L2.93249 90.1696L11.694 92.0227C11.766 91.6629 11.8559 91.303 11.9459 90.9432ZM14.8064 80.4906L6.27877 77.72L5.91896 78.7995L14.4466 81.57C14.5545 81.2102 14.6805 80.8504 14.8064 80.4906ZM10.2008 101.63L1.27734 100.694L1.1514 101.81L10.0748 102.745C10.1108 102.367 10.1468 102.008 10.2008 101.63ZM29.6668 51.7413L22.3985 46.4521L21.7328 47.3696L29.0191 52.6589C29.235 52.353 29.4329 52.0472 29.6668 51.7413ZM29.0911 38.1943L35.7836 44.2212C36.0355 43.9334 36.2694 43.6455 36.5212 43.3756L29.8467 37.3667L29.0911 38.1943ZM18.7464 70.4158L10.5426 66.7636L10.0928 67.7891L18.2966 71.4412C18.4225 71.0994 18.5845 70.7576 18.7464 70.4158ZM23.7118 60.7907L15.9218 56.293L15.3641 57.2645L23.1541 61.7622C23.352 61.4384 23.5319 61.1145 23.7118 60.7907ZM52.677 29.001L47.3877 21.7148L46.4701 22.3804L51.7594 29.6487C52.0653 29.4328 52.3711 29.2169 52.677 29.001ZM123.291 10.0747C123.669 10.1107 124.028 10.1647 124.406 10.2007L125.36 1.20528L124.226 1.07935L123.291 10.0747ZM202.864 61.7802L210.708 57.2465L210.15 56.275L202.306 60.8087C202.486 61.1325 202.684 61.4564 202.864 61.7802ZM197.017 52.6769L204.357 47.3516L203.691 46.4341L196.369 51.7593C196.585 52.0652 196.801 52.371 197.017 52.6769ZM207.739 71.4412L215.997 67.7711L215.547 66.7456L207.29 70.4338C207.434 70.7576 207.595 71.0994 207.739 71.4412ZM211.571 81.57L220.153 78.7815L219.811 77.72L211.212 80.5086C211.338 80.8684 211.463 81.2102 211.571 81.57ZM215.943 102.745L224.939 101.81L224.813 100.694L215.817 101.648C215.853 102.008 215.907 102.367 215.943 102.745ZM214.324 92.0407L223.157 90.1696L222.924 89.0722L214.072 90.9432C214.144 91.321 214.252 91.6808 214.324 92.0407ZM196.981 38.1583L196.225 37.3307L189.497 43.3756C189.749 43.6455 189.982 43.9513 190.234 44.2212L196.981 38.1583ZM133.995 11.6939C134.373 11.7659 134.733 11.8738 135.093 11.9458L136.964 3.09432L135.866 2.86044L133.995 11.6939ZM9.55309 113C9.55309 112.802 9.57108 112.622 9.57108 112.442H0.593689V113.558H9.57108C9.57108 113.378 9.55309 113.198 9.55309 113ZM181.797 35.7835C182.085 36.0354 182.372 36.2693 182.642 36.5212L188.687 29.7926L187.86 29.037L181.797 35.7835ZM144.466 14.4465C144.826 14.5544 145.167 14.6984 145.527 14.8063L148.316 6.20672L147.254 5.86489L144.466 14.4465ZM154.577 18.2785C154.918 18.4224 155.26 18.5844 155.602 18.7463L159.29 10.4885L158.265 10.0388L154.577 18.2785ZM173.359 29.001C173.665 29.2169 173.971 29.4328 174.277 29.6487L179.602 22.3264L178.684 21.6608L173.359 29.001ZM164.256 23.154C164.58 23.3339 164.903 23.5318 165.227 23.7117L169.761 15.8678L168.789 15.31L164.256 23.154ZM133.977 214.324L135.848 223.121L136.946 222.887L135.075 214.072C134.697 214.144 134.337 214.252 133.977 214.324ZM10.0748 123.255L1.16939 124.19L1.29533 125.306L10.2187 124.37C10.1468 123.992 10.1108 123.632 10.0748 123.255ZM181.797 190.234L187.842 196.945L188.669 196.189L182.642 189.497C182.372 189.749 182.085 189.982 181.797 190.234ZM189.515 182.624L196.225 188.651L196.981 187.824L190.27 181.779C190 182.066 189.767 182.354 189.515 182.624ZM154.577 207.739L158.247 215.961L159.272 215.511L155.602 207.272C155.26 207.433 154.918 207.577 154.577 207.739ZM164.238 202.864L168.753 210.672L169.725 210.114L165.209 202.306C164.885 202.486 164.562 202.666 164.238 202.864ZM144.448 211.571L147.218 220.117L148.28 219.775L145.491 211.212C145.149 211.337 144.808 211.463 144.448 211.571ZM196.369 174.24L203.673 179.548L204.339 178.63L197.035 173.323C196.801 173.629 196.585 173.953 196.369 174.24ZM173.359 196.999L178.666 204.303L179.584 203.637L174.277 196.333C173.971 196.567 173.647 196.783 173.359 196.999ZM214.072 135.057L222.906 136.928L223.139 135.83L214.324 133.959C214.252 134.319 214.144 134.679 214.072 135.057ZM215.817 124.37L224.813 125.324L224.939 124.208L215.943 123.255C215.907 123.632 215.853 123.992 215.817 124.37ZM216.429 112.442C216.429 112.64 216.447 112.82 216.447 113C216.447 113.18 216.429 113.378 216.429 113.558H225.478V112.442H216.429ZM207.272 155.584L215.529 159.254L215.979 158.229L207.739 154.559C207.595 154.9 207.434 155.242 207.272 155.584ZM211.212 145.491L219.793 148.28L220.135 147.218L211.553 144.43C211.463 144.79 211.338 145.131 211.212 145.491ZM202.306 165.191L210.132 169.707L210.69 168.735L202.864 164.22C202.684 164.543 202.504 164.867 202.306 165.191ZM123.255 215.943L124.19 224.902L125.306 224.795L124.37 215.835C124.01 215.853 123.633 215.907 123.255 215.943ZM29.0011 173.341L21.7328 178.612L22.3985 179.53L29.6488 174.258C29.4329 173.953 29.217 173.647 29.0011 173.341ZM29.1091 187.806L29.8647 188.633L36.5212 182.642C36.2694 182.372 36.0355 182.084 35.7836 181.797L29.1091 187.806ZM23.1541 164.238L15.3821 168.717L15.9398 169.689L23.7118 165.209C23.5319 164.885 23.334 164.561 23.1541 164.238ZM11.694 133.959L2.93249 135.83L3.16637 136.928L11.9279 135.057C11.8559 134.697 11.766 134.337 11.694 133.959ZM37.3848 196.171L38.2124 196.927L44.2213 190.252C43.9334 190 43.6456 189.766 43.3757 189.515L37.3848 196.171ZM14.4466 144.448L5.93695 147.2L6.27877 148.262L14.8064 145.491C14.6805 145.149 14.5545 144.808 14.4466 144.448ZM18.2786 154.577L10.0928 158.229L10.5426 159.254L18.7284 155.602C18.5845 155.242 18.4225 154.918 18.2786 154.577ZM66.7817 215.475L67.8072 215.925L71.4593 207.739C71.1175 207.595 70.7757 207.433 70.4338 207.272L66.7817 215.475ZM89.1083 222.852L90.2057 223.085L92.0587 214.324C91.6989 214.252 91.3211 214.144 90.9613 214.072L89.1083 222.852ZM100.712 224.741L101.828 224.848L102.763 215.925C102.385 215.889 102.026 215.835 101.648 215.799L100.712 224.741ZM77.7561 219.739L78.8175 220.081L81.5881 211.571C81.2283 211.463 80.8865 211.337 80.5267 211.212L77.7561 219.739ZM112.442 216.429V225.442H113.558V216.429C113.378 216.429 113.18 216.447 113 216.447C112.82 216.447 112.64 216.447 112.442 216.429ZM46.4881 203.619L47.4057 204.285L52.6949 197.017C52.3891 196.801 52.0833 196.585 51.7774 196.369L46.4881 203.619ZM56.3291 210.078L57.3006 210.636L61.7803 202.864C61.4564 202.684 61.1326 202.486 60.8088 202.306L56.3291 210.078Z" fill="#D8A688"/>
<path d="M18.5485 113C18.5485 112.424 18.5845 111.866 18.5845 111.309H0.593689V114.691H18.6024C18.5845 114.133 18.5485 113.576 18.5485 113ZM67.2495 30.3683L58.2541 14.7883L55.3396 16.4794L64.335 32.0594C65.2885 31.4658 66.278 30.926 67.2495 30.3683ZM14.8064 58.236L30.3864 67.2314C30.9261 66.2419 31.4838 65.2704 32.0595 64.2989L16.4975 55.3035L14.8064 58.236ZM211.266 58.218L209.574 55.3035L193.94 64.3349C194.516 65.2884 195.074 66.2779 195.614 67.2674L211.266 58.218ZM111.327 18.6024C111.885 18.5844 112.442 18.5664 113.018 18.5664C113.576 18.5664 114.133 18.6024 114.709 18.6024V0.557617H111.327V18.6024ZM158.768 30.3863C159.758 30.926 160.729 31.4837 161.701 32.0594L170.732 16.4255L167.8 14.7523L158.768 30.3863ZM193.958 161.683L209.574 170.696L211.266 167.782L195.65 158.768C195.092 159.74 194.534 160.711 193.958 161.683ZM158.768 195.631L167.782 211.229L170.696 209.538L161.683 193.94C160.729 194.534 159.758 195.092 158.768 195.631ZM207.416 111.309C207.434 111.866 207.451 112.424 207.451 113C207.451 113.558 207.416 114.115 207.416 114.691H225.496V111.309H207.416ZM55.3576 209.52L58.2721 211.212L67.2495 195.649C66.26 195.11 65.2885 194.552 64.317 193.976L55.3576 209.52ZM111.327 207.415V225.442H114.709V207.415C114.151 207.415 113.594 207.451 113.018 207.451C112.442 207.451 111.885 207.415 111.327 207.415ZM14.8244 167.746L16.5155 170.66L32.0775 161.683C31.5018 160.711 30.9441 159.74 30.4044 158.768L14.8244 167.746Z" fill="#D8A688"/>
<path d="M31.0521 122.751C36.0175 120.736 39.3998 118.002 40.5152 113.144C39.2199 113.936 37.6007 114.475 35.8016 114.475C31.4479 114.475 28.4614 111.777 28.4614 107.675C28.4614 103.249 31.6278 100.155 36.3414 100.155C41.8465 100.155 44.5451 103.501 44.5451 109.186C44.5451 117.21 39.1119 121.996 31.6638 124.118L31.0521 122.751ZM40.947 109.186C40.947 104.545 39.5797 101.954 36.3414 101.954C33.6068 101.954 32.0595 104.041 32.0595 107.639C32.0595 110.805 33.5348 112.676 36.1614 112.676C38.1404 112.676 39.6517 111.849 40.911 110.481C40.911 110.086 40.947 109.654 40.947 109.186Z" fill="#D8A688"/>
<path d="M118.703 177.821C113.702 179.872 110.355 182.57 109.204 187.464C110.535 186.636 112.154 186.097 113.954 186.097C118.307 186.097 121.294 188.795 121.294 192.897C121.294 197.323 118.127 200.417 113.414 200.417C107.909 200.417 105.21 197.071 105.21 191.386C105.21 183.362 110.643 178.577 118.091 176.454L118.703 177.821ZM108.808 191.386C108.808 196.028 110.175 198.618 113.414 198.618C116.148 198.618 117.696 196.531 117.696 192.933C117.696 189.767 116.22 187.896 113.594 187.896C111.579 187.896 110.067 188.723 108.844 190.091C108.808 190.522 108.808 190.954 108.808 191.386Z" fill="#D8A688"/>
<path d="M187.158 110.644C190.972 110.536 193.203 108.952 193.203 105.822C193.203 103.339 191.872 102.008 189.605 102.008C187.194 102.008 185.971 103.519 185.971 105.282C185.971 105.858 186.114 106.326 186.366 106.758C185.755 107.225 185.107 107.441 184.423 107.441C183.308 107.441 182.588 106.47 182.588 104.959C182.588 102.368 185.539 100.209 189.677 100.209C193.922 100.209 196.765 102.512 196.765 105.822C196.765 107.837 195.937 110.104 191.8 111.435C195.686 112.371 197.053 114.566 197.053 117.372C197.053 121.114 194.066 123.957 189.317 123.957C184.531 123.957 181.653 121.942 181.653 118.703C181.653 117.264 182.732 116.581 183.884 116.581C184.531 116.581 185.215 116.832 185.719 117.228C185.503 117.804 185.395 118.38 185.395 118.883C185.395 120.826 186.906 122.158 189.497 122.158C192.159 122.158 193.671 120.287 193.671 117.372C193.671 114.35 191.512 112.335 187.158 112.335V110.644Z" fill="#D8A688"/>
<path d="M97.456 45.8765C99.5789 45.6606 101.378 45.3008 102.637 44.7611V27.5979H97.5279V25.9427C100.478 25.6549 102.817 24.8273 104.724 23.8198L106.02 24.3236V44.7611C107.135 45.3368 109.906 45.7686 110.805 45.8765L110.661 47.2078H97.348L97.456 45.8765Z" fill="#D8A688"/>
<path d="M113.108 45.0131C121.779 37.565 124.406 33.9308 124.406 29.9729C124.406 27.0224 123.075 25.5471 120.484 25.5471C118.145 25.5471 116.67 27.1663 116.67 29.1093C116.67 29.8649 116.922 30.6205 117.462 31.3401C116.994 31.8439 116.238 32.1677 115.483 32.1677C114.295 32.1677 113.144 31.4121 113.144 29.3252C113.144 26.4467 116.418 23.748 120.484 23.748C125.126 23.748 128.004 26.2308 128.004 30.3327C128.004 34.1827 125.162 38.2126 117.174 44.3655H128.94V47.208H113.108V45.0131Z" fill="#D8A688"/>
<path d="M72.5388 49.6366C70.128 49.6366 67.8791 48.3413 66.6918 46.2544C64.8207 43.034 65.9361 38.8961 69.1565 37.0431C70.182 36.4494 71.3334 36.1436 72.5208 36.1436C74.9315 36.1436 77.1804 37.4389 78.3678 39.5078C79.2673 41.073 79.5012 42.8901 79.0334 44.6352C78.5657 46.3803 77.4502 47.8376 75.903 48.7371C74.8775 49.3308 73.7082 49.6366 72.5388 49.6366Z" fill="#D8A688"/>
<path d="M42.89 79.2675C41.7206 79.2675 40.5512 78.9616 39.5257 78.368C37.9605 77.4684 36.8451 76.0112 36.3773 74.2661C35.9096 72.5209 36.1434 70.7039 37.043 69.1567C38.2484 67.0697 40.4792 65.7744 42.89 65.7744C44.0594 65.7744 45.2288 66.0803 46.2542 66.674C47.8194 67.5735 48.9349 69.0307 49.4026 70.7758C49.8704 72.5209 49.6365 74.338 48.737 75.8852C47.5316 77.9722 45.3007 79.2675 42.89 79.2675Z" fill="#D8A688"/>
<path d="M42.908 160.226C40.4972 160.226 38.2484 158.931 37.061 156.844C36.1614 155.278 35.9276 153.461 36.3773 151.734C36.8451 149.989 37.9605 148.55 39.5077 147.632C40.5332 147.039 41.7026 146.715 42.872 146.715C45.2828 146.715 47.5136 148.01 48.719 150.097C49.6185 151.662 49.8524 153.479 49.4026 155.206C48.9349 156.952 47.8195 158.409 46.2543 159.308C45.2468 159.92 44.0774 160.226 42.908 160.226Z" fill="#D8A688"/>
<path d="M72.5208 189.857C71.3514 189.857 70.182 189.551 69.1745 188.957C67.6093 188.058 66.4939 186.601 66.0261 184.855C65.5583 183.128 65.7922 181.293 66.6917 179.746C67.8971 177.659 70.146 176.364 72.5567 176.364C73.7261 176.364 74.8775 176.688 75.903 177.263C77.4682 178.163 78.5836 179.62 79.0514 181.365C79.5192 183.11 79.2853 184.927 78.3857 186.493C77.1624 188.58 74.9315 189.857 72.5208 189.857Z" fill="#D8A688"/>
<path d="M153.497 189.857C151.086 189.857 148.838 188.562 147.65 186.475C146.751 184.909 146.517 183.092 146.967 181.347C147.434 179.62 148.55 178.163 150.097 177.263C151.122 176.67 152.292 176.364 153.461 176.364C155.872 176.364 158.121 177.659 159.308 179.746C160.208 181.311 160.442 183.128 159.992 184.873C159.524 186.619 158.409 188.076 156.861 188.975C155.836 189.551 154.685 189.857 153.497 189.857Z" fill="#D8A688"/>
<path d="M183.11 160.226C181.923 160.226 180.771 159.92 179.746 159.326C178.181 158.427 177.065 156.97 176.597 155.225C176.13 153.479 176.363 151.68 177.263 150.115C178.468 148.028 180.699 146.733 183.11 146.733C184.279 146.733 185.449 147.039 186.474 147.632C189.695 149.485 190.81 153.623 188.957 156.844C187.77 158.931 185.521 160.226 183.11 160.226Z" fill="#D8A688"/>
<path d="M183.128 79.2676C180.717 79.2676 178.486 77.9722 177.281 75.9033C176.381 74.3381 176.148 72.521 176.615 70.7939C177.083 69.0488 178.199 67.5916 179.764 66.692C180.789 66.0983 181.941 65.7925 183.128 65.7925C185.539 65.7925 187.788 67.0878 188.993 69.1568C189.893 70.704 190.126 72.539 189.659 74.2661C189.191 76.0112 188.075 77.4685 186.528 78.35C185.467 78.9617 184.297 79.2676 183.128 79.2676Z" fill="#D8A688"/>
<path d="M153.461 49.6366C152.292 49.6366 151.122 49.3308 150.115 48.7371C148.55 47.8376 147.434 46.3803 146.967 44.6352C146.499 42.8901 146.751 41.073 147.632 39.5258C148.838 37.4389 151.086 36.1436 153.497 36.1436C154.667 36.1436 155.836 36.4494 156.861 37.0431C158.427 37.9426 159.524 39.3999 160.01 41.145C160.478 42.8901 160.244 44.7072 159.344 46.2544C158.121 48.3413 155.89 49.6366 153.461 49.6366Z" fill="#D8A688"/>
<path d="M194.066 56.257L187.806 55.1416L116.796 104.868C115.645 104.328 114.367 104.005 113.018 104.005C111.381 104.005 109.87 104.472 108.556 105.228L60.7188 77.6301L54.566 79.2672L56.2211 85.4201L104.005 113C104.005 117.965 108.035 121.995 113 121.995C117.965 121.995 121.995 117.965 121.995 113C121.995 112.748 121.941 112.496 121.923 112.244L192.951 62.4998L194.066 56.257ZM104.724 109.51L59.1177 83.1892L58.7039 81.66L60.2331 81.2462L105.876 107.585C105.408 108.178 105.012 108.808 104.724 109.51ZM113 118.307C110.068 118.307 107.693 115.932 107.693 113C107.693 110.067 110.068 107.693 113 107.693C115.933 107.693 118.307 110.067 118.307 113C118.307 115.932 115.933 118.307 113 118.307ZM189.875 60.5568L120.934 108.826C120.574 108.16 120.16 107.531 119.657 106.973L188.597 58.7038L190.162 58.9736L189.875 60.5568Z" fill="#D8A688"/>
<path d="M122.535 92.8143C121.977 91.8428 121.15 91.0871 120.178 90.6014L121.078 87.2371C121.24 86.6434 120.88 86.0137 120.286 85.8518C119.693 85.6899 119.063 86.0497 118.901 86.6434L118.001 90.0437C117.893 90.0437 117.786 90.0077 117.678 90.0077C115.141 90.0077 112.91 91.7168 112.244 94.1815C111.543 96.8082 112.82 99.5068 115.159 100.676L112.424 110.895C111.471 111.165 110.769 111.992 110.769 113.018C110.769 113.648 111.021 114.205 111.435 114.601L83.9989 216.987C83.837 217.58 84.1968 218.21 84.7905 218.372C84.8804 218.39 84.9884 218.408 85.0783 218.408C85.5821 218.408 86.0318 218.084 86.1578 217.58L113.594 115.141C114.547 114.871 115.249 114.043 115.249 113.018C115.249 112.406 114.997 111.83 114.583 111.435L117.318 101.234C117.426 101.234 117.534 101.27 117.642 101.27C120.178 101.27 122.409 99.5608 123.075 97.0961C123.489 95.6388 123.273 94.1096 122.535 92.8143ZM120.916 96.5024C120.448 98.2655 118.541 99.3629 116.796 98.8951C114.997 98.4094 113.936 96.5563 114.403 94.7573C114.799 93.282 116.13 92.2565 117.66 92.2565C117.947 92.2565 118.253 92.2925 118.523 92.3645C119.405 92.5984 120.124 93.1561 120.574 93.9297C121.042 94.7213 121.15 95.6208 120.916 96.5024Z" fill="#E53935"/>
</g>
<defs>
<clipPath id="clip0_2_1884">
<rect width="226" height="226" fill="white"/>
</clipPath>
</defs>
</svg>
