<svg width="41" height="40" viewBox="0 0 41 40" fill="none" xmlns="http://www.w3.org/2000/svg">
<path d="M32.8618 39.3115C24.3061 40.2245 15.7245 40.2245 7.16886 39.3115C3.75734 38.9475 1.06273 36.2533 0.698631 32.8421C-0.214526 24.2879 -0.214526 15.7081 0.698631 7.15387C1.06273 3.74294 3.75734 1.04879 7.16886 0.684751C15.7245 -0.22825 24.3058 -0.22825 32.8615 0.684751C36.2733 1.04879 38.9679 3.74294 39.332 7.15387C40.2452 15.7081 40.2452 24.2879 39.332 32.8421C38.9679 36.2533 36.2736 38.9475 32.8618 39.3115Z" fill="url(#paint0_linear_2_1633)"/>
<path d="M37.1565 8.59986C36.8336 5.57321 34.4427 3.18247 31.4151 2.85933C23.823 2.04949 16.2082 2.04949 8.61609 2.85933C5.58881 3.18247 3.19757 5.57321 2.87437 8.59986C2.06437 16.1904 2.06437 23.8036 2.87437 31.3939C3.19757 34.4208 5.58881 36.8116 8.61609 37.1344C16.2082 37.9446 23.823 37.9446 31.4148 37.1344C34.4424 36.8116 36.8336 34.4208 37.1565 31.3939C37.9668 23.8036 37.9668 16.1904 37.1565 8.59986Z" fill="url(#paint1_linear_2_1633)"/>
<path d="M0.613586 32.0122C0.641054 32.2887 0.669438 32.5652 0.699042 32.8417C1.06315 36.2533 3.75775 38.9479 7.16958 39.312C15.7252 40.2251 24.3065 40.2251 32.8622 39.312C36.274 38.9479 38.9683 36.2533 39.3324 32.8417C39.362 32.5652 39.3904 32.2887 39.4182 32.0122H0.613586Z" fill="url(#paint2_linear_2_1633)"/>
<path d="M40.0088 18.5929L31.7052 10.2911C30.7747 10.823 29.9546 11.118 29.3369 11.2816C28.9895 11.3747 28.706 11.4253 28.5021 11.4531C27.5658 10.4934 26.2583 9.89746 24.8111 9.89746C21.9635 9.89746 19.6547 12.2056 19.6547 15.0532C19.6547 15.156 19.6575 15.2577 19.6642 15.359C19.6779 15.6058 19.7093 15.8484 19.7579 16.0843C18.5691 16.0666 14.7053 15.7493 11.0203 12.591C11.02 12.591 11.02 12.5907 11.02 12.5907H11.0197L9.28188 10.8529C9.28188 10.8529 7.24315 14.4106 10.2405 17.1102C10.3721 17.257 10.5167 17.4019 10.6751 17.5444C10.6876 17.5585 10.7008 17.5722 10.7133 17.5862C10.3199 17.5597 9.13661 17.4419 8.45174 16.9582C8.45174 16.9582 8.3141 19.1327 10.1261 20.7335L11.5892 22.2089C11.1436 22.2458 10.6507 22.237 10.308 22.0868C10.308 22.0868 10.6113 23.3749 11.7839 24.4056L13.8336 26.4657C12.604 27.1819 10.4514 28.0781 7.61794 27.8492L20.0521 39.9965C24.3243 39.9953 28.5964 39.767 32.8622 39.3117C36.274 38.9477 38.9687 36.2536 39.3328 32.8426C39.8391 28.0976 40.064 23.3446 40.0088 18.5929Z" fill="url(#paint3_linear_2_1633)"/>
<path d="M32.4131 12.2934C31.5281 12.7563 30.1949 12.9702 29.753 13.0318C29.7494 13.0104 29.7457 12.99 29.742 12.9696C31.2445 12.0404 31.7045 10.2911 31.7045 10.2911C30.7739 10.8229 29.9538 11.118 29.3361 11.2815C28.9888 11.3746 28.7053 11.425 28.5014 11.453C27.565 10.4931 26.2575 9.89746 24.8103 9.89746C21.9628 9.89746 19.6539 12.2052 19.6539 15.053C19.6539 15.1555 19.6567 15.2574 19.6634 15.3584C19.6771 15.6053 19.7085 15.8479 19.7571 16.0837C18.3788 16.0633 13.4037 15.6407 9.28104 10.8528C9.28104 10.8528 6.98532 14.8574 10.8449 17.5929C10.8449 17.5929 9.28104 17.5441 8.4509 16.958C8.4509 16.958 8.20674 20.8167 12.652 22.0372C12.652 22.0372 11.0891 22.4284 10.3068 22.0863C10.3068 22.0863 11.0888 25.4074 14.9968 25.6521C14.9968 25.6521 12.1939 28.2177 7.61678 27.8485C9.86795 29.2735 12.5369 30.0983 15.3985 30.0983C23.4445 30.0983 29.9673 23.5772 29.9673 15.533C29.9673 15.4326 29.9664 15.3322 29.9642 15.2318C29.9664 15.1723 29.9673 15.1131 29.9673 15.053C29.9673 15.0112 29.9664 14.9694 29.9657 14.9276C31.4533 13.9365 32.4131 12.2934 32.4131 12.2934Z" fill="white"/>
<defs>
<linearGradient id="paint0_linear_2_1633" x1="13.2956" y1="5.6234" x2="23.4107" y2="27.2687" gradientUnits="userSpaceOnUse">
<stop stop-color="#00C3FF"/>
<stop offset="1" stop-color="#00B0ED"/>
</linearGradient>
<linearGradient id="paint1_linear_2_1633" x1="28.4758" y1="24.5345" x2="-29.6381" y2="-6.64644" gradientUnits="userSpaceOnUse">
<stop stop-color="#00B0ED" stop-opacity="0"/>
<stop offset="1" stop-color="#00A2CE"/>
</linearGradient>
<linearGradient id="paint2_linear_2_1633" x1="20.0158" y1="34.1669" x2="20.0158" y2="39.4087" gradientUnits="userSpaceOnUse">
<stop stop-color="#00B0ED" stop-opacity="0"/>
<stop offset="1" stop-color="#00A2CE"/>
</linearGradient>
<linearGradient id="paint3_linear_2_1633" x1="38.2532" y1="37.6586" x2="18.7139" y2="18.1159" gradientUnits="userSpaceOnUse">
<stop stop-color="#00B0ED" stop-opacity="0"/>
<stop offset="1" stop-color="#00A2CE"/>
</linearGradient>
</defs>
</svg>
